<svg height="512pt" preserveAspectRatio="xMidYMid meet" viewBox="0 0 512 512" width="512pt" xmlns="http://www.w3.org/2000/svg"><g transform="matrix(.1 0 0 -.1 0 512)"><path d="m881 5108c-13-7-33-25-45-41-20-27-22-70-68-1290-26-694-47-1263-47-1264-1-1-27 10-58 24-75 32-126 27-165-17l-28-30v-168c0-472 72-928 202-1277 207-560 583-897 1118-1004 58-11 152-25 209-31 137-13 988-13 1127 1 396 38 700 172 939 414 122 123 194 222 278 385 199 383 307 916 307 1512v168l-27 30c-39 43-87 49-158 20-31-12-58-21-60-19-2 3-25 553-50 1224s-48 1239-51 1263c-4 28-15 54-34 75-25 28-35 32-79 32-41 0-55-5-80-29-16-15-32-40-36-54-3-14-22-59-42-99-68-140-199-252-385-328-114-47-150-46-288 10-61 24-159 58-218 74-457 129-945 102-1382-74-138-56-170-57-291-9-213 86-341 210-418 405-12 31-33 67-46 79-28 26-91 36-124 18zm340-639c40-23 115-60 168-83 95-41 97-41 216-41h120l125 52c202 82 339 115 573 135 285 24 590-25 862-140l110-47h120c116 0 123 1 213 39 112 46 235 119 308 181l54 47v-39c0-21 18-499 40-1063s40-1041 40-1060v-35l-202-84c-363-150-465-209-615-354-135-131-223-266-277-429-21-61-128-593-231-1143-14-77-28-148-31-157-5-17-26-18-254-18s-249 1-254 18c-3 9-30 150-61 312-125 660-178 919-201 988-51 152-125 271-247 399-150 157-255 220-597 363-135 57-246 104-247 104-1 1 16 472 37 1046 22 575 40 1069 40 1098v53l60-50c33-28 92-69 131-92zm-186-2341c132-55 276-118 319-139 226-112 401-304 469-514 21-63 36-136 147-719 50-259 93-482 96-495l5-24-73 7c-167 16-352 69-493 141-494 252-747 809-801 1763l-7 122 49-21c27-11 157-66 289-121zm3380 20c-45-816-234-1332-596-1630-180-148-436-249-694-273l-76-7 5 23c3 13 46 236 96 495 137 716 137 717 188 819 77 155 231 312 387 393 37 20 670 294 694 301 2 1 0-54-4-121z"/><path d="m1231 4177c-58-29-82-105-51-161 19-36 142-119 255-172l95-46-66-71c-232-251-243-648-26-909 51-61 134-132 197-168 124-71 317-106 450-81l59 11 181-179c183-182 208-200 263-186 17 4 95 74 207 186l181 179 59-11c133-25 326 10 450 81 389 225 472 751 171 1077l-66 71 95 46c110 52 237 137 253 169 21 42 23 66 9 99-22 52-52 73-106 73-39-1-57-8-113-48-89-63-216-122-319-147-46-11-149-25-229-30-80-6-172-17-205-25-142-37-304-140-376-240-18-25-35-45-39-45s-21 21-39 46c-73 101-234 204-372 238-37 9-131 21-210 26-230 15-378 63-554 179-80 52-111 60-154 38zm942-499c103-49 175-122 224-225 32-66 38-89 41-166 6-110-15-194-68-275-213-328-692-276-828 89-90 243 45 518 296 600 44 15 80 18 157 16 92-2 106-5 178-39zm1106 23c252-78 390-355 299-600-116-311-495-408-742-190-111 98-162 222-154 376 3 77 9 100 41 166 58 123 160 211 292 253 62 20 193 17 264-5zm-690-867c14-20 54-62 90-95l65-60-92-92-92-92-92 92-92 92 65 60c36 33 76 75 90 95 13 20 26 36 29 36s16-16 29-36z"/><path d="m1890 3464c-84-36-140-121-140-211 1-134 92-223 227-223 73 0 127 24 174 77 69 76 78 181 23 270s-187 129-284 87z"/><path d="m3060 3464c-59-26-101-65-126-118-33-70-31-129 4-197 58-113 200-154 314-92 30 17 62 45 81 73 30 41 32 51 32 127 0 74-3 85-30 125-58 83-185 121-275 82z"/><path d="m2290 1623c-31-11-70-58-76-90-14-72 39-133 113-133 38 0 50 5 79 34 28 28 34 41 34 78 0 24-7 54-16 66-28 41-89 61-134 45z"/><path d="m2733 1611c-40-25-53-49-53-101 0-34 6-48 34-76 29-29 41-34 79-34 51 0 88 24 107 69 41 99-77 199-167 142z"/><path d="m2502 1147c-49-28-70-89-48-142 16-38 68-75 106-75 39 0 90 37 106 76 15 35 13 58-9 102-23 46-104 67-155 39z"/></g></svg>