<svg fill="none" height="94" viewBox="0 0 94 94" width="94" xmlns="http://www.w3.org/2000/svg" xmlns:xlink="http://www.w3.org/1999/xlink"><filter id="a" color-interpolation-filters="sRGB" filterUnits="userSpaceOnUse" height="93.2222" width="93.2227" x="0" y="0"><feFlood flood-opacity="0" result="BackgroundImageFix"/><feColorMatrix in="SourceAlpha" result="hardAlpha" type="matrix" values="0 0 0 0 0 0 0 0 0 0 0 0 0 0 0 0 0 0 127 0"/><feMorphology in="SourceAlpha" operator="dilate" radius="2" result="effect1_dropShadow_49_4381"/><feOffset/><feGaussianBlur stdDeviation="5"/><feComposite in2="hardAlpha" operator="out"/><feColorMatrix type="matrix" values="0 0 0 0 0 0 0 0 0 0 0 0 0 0 0 0 0 0 0.15 0"/><feBlend in2="BackgroundImageFix" mode="normal" result="effect1_dropShadow_49_4381"/><feBlend in="SourceGraphic" in2="effect1_dropShadow_49_4381" mode="normal" result="shape"/></filter><g filter="url(#a)"><rect fill="#003778" height="69.2222" rx="34.6111" width="69.2222" x="12" y="12"/></g><path d="m33.975 44.3474c-.1193.121-.2616.217-.4186.2826s-.3256.0994-.4959.0994-.3389-.0338-.4959-.0994-.2993-.1616-.4186-.2826c-.2427-.2457-.3787-.5766-.3787-.9212s.136-.6754.3787-.9211l11.3131-11.3715c2.5511-1.9711 5.1172-2.9175 7.6721-2.7887 3.2189.1643 5.725 1.385 7.8522 3.3879 2.1684 2.0421 3.5715 4.9559 3.5715 8.4875 0 2.7104-.7916 5.0959-2.4629 7.2126l-15.9501 16.3516c-1.6132 1.316-3.4065 1.9525-5.3273 1.876-2.4386-.1008-4.2525-.8848-5.6012-2.212-1.5795-1.5511-2.5474-3.4569-2.5474-6.0198 0-2.0384.7072-3.9199 2.1666-5.6857l14.0386-14.2629c1.1255-1.1946 2.2266-1.9039 3.3521-2.0757.7512-.1177 1.5199-.0508 2.2392.1948s1.3673.6626 1.8876 1.2145c.9979 1.051 1.4256 2.3613 1.2755 3.8527-.1031 1.0174-.5214 1.9544-1.2905 2.8522l-12.9056 13.156c-.1185.1214-.2601.2181-.4166.2845-.1564.0663-.3245.1011-.4946.1021-.1701.0011-.3386-.0316-.4959-.0961-.1572-.0644-.3-.1594-.42-.2793-.2443-.2443-.3823-.5743-.3844-.9189s.1319-.6763.3732-.9235l12.8437-13.0887c.3751-.4387.5721-.8811.619-1.3514.075-.7467-.1051-1.2973-.5721-1.7883-.2359-.2514-.5306-.4409-.8579-.5516-.3272-.1107-.6769-.1393-1.0179-.083-.4559.069-1.0936.4816-1.8796 1.3141l-13.9805 14.1994c-1.0073 1.2226-1.495 2.5199-1.495 3.9367 0 1.7807.6471 3.0556 1.767 4.155.891.8774 2.1009 1.4 3.9017 1.4747 1.2756.0504 2.4573-.3696 3.4853-1.1984l15.7512-16.1462c1.2099-1.5437 1.8139-3.36 1.8139-5.4935 0-2.7663-1.0823-5.01-2.7537-6.5854-1.707-1.6091-3.6578-2.5573-6.2146-2.688-1.8908-.097-3.8735.6347-5.8469 2.1392z" fill="#fff"/></svg>