<svg fill="none" height="51" viewBox="0 0 51 51" width="51" xmlns="http://www.w3.org/2000/svg"><path d="m25.5 0c-6.7378.0812893-13.1767 2.79399-17.94134 7.55866-4.76467 4.76464-7.4773707 11.20354-7.55866 17.94134.0812893 6.7378 2.79399 13.1767 7.55866 17.9413 4.76464 4.7647 11.20354 7.4774 17.94134 7.5587 6.7378-.0813 13.1767-2.794 17.9413-7.5587 4.7647-4.7646 7.4774-11.2035 7.5587-17.9413-.0813-6.7378-2.794-13.1767-7.5587-17.94134-4.7646-4.76467-11.2035-7.4773707-17.9413-7.55866zm14.5714 27.3214h-12.75v12.75h-3.6428v-12.75h-12.75v-3.6428h12.75v-12.75h3.6428v12.75h12.75z" fill="#222"/></svg>