<svg fill="none" height="38" viewBox="0 0 54 38" width="54" xmlns="http://www.w3.org/2000/svg"><path d="m16.2 19c5.2228 0 9.45-4.2496 9.45-9.5 0-5.25045-4.2272-9.5-9.45-9.5s-9.45 4.24955-9.45 9.5c0 5.2504 4.2272 9.5 9.45 9.5zm6.48 2.7143h-.7003c-1.755.8482-3.7041 1.3571-5.7797 1.3571s-4.0163-.5089-5.7797-1.3571h-.7003c-5.36625 0-9.72 4.3768-9.72 9.7714v2.4429c0 2.2477 1.81406 4.0714 4.05 4.0714h24.3c2.2359 0 4.05-1.8237 4.05-4.0714v-2.4429c0-5.3946-4.3538-9.7714-9.72-9.7714zm17.82-2.7143c4.4719 0 8.1-3.6473 8.1-8.1429 0-4.49549-3.6281-8.14281-8.1-8.14281s-8.1 3.64732-8.1 8.14281c0 4.4956 3.6281 8.1429 8.1 8.1429zm4.05 2.7143h-.3206c-1.1728.4071-2.4132.6786-3.7294.6786-1.3163 0-2.5566-.2715-3.7294-.6786h-.3206c-1.7213 0-3.3075.5004-4.6997 1.3062 2.0588 2.2308 3.3497 5.1911 3.3497 8.4652v3.2572c0 .1866-.0422.3647-.0506.5428h14.9006c2.2359 0 4.05-1.8236 4.05-4.0714 0-5.2505-4.2272-9.5-9.45-9.5z" fill="#222"/></svg>