<svg fill="none" height="62" viewBox="0 0 62 62" width="62" xmlns="http://www.w3.org/2000/svg"><circle cx="31" cy="31" fill="#9a0505" r="31"/><path d="m50 30.9252c0-.7957-.3246-1.5587-.9025-2.1214-.5778-.5626-1.3616-.8786-2.1788-.8786h-24.4039l8.0935-7.88c.5443-.5687.8406-1.3209.8266-2.0981-.0141-.7772-.3375-1.5188-.9021-2.0684-.5645-.5497-1.3261-.8645-2.1244-.8782s-1.5708.2748-2.155.8047l-13.3523 13c-.577.5625-.9011 1.325-.9011 2.12s.3241 1.5575.9011 2.12l13.3523 13c.2821.2947.6223.5311 1.0003.6951s.786.2521 1.1997.2592.8247-.067 1.2084-.2178c.3836-.1509.7322-.3755 1.0248-.6604s.5232-.6242.6782-.9977c.155-.3736.2311-.7737.2238-1.1765s-.0979-.8001-.2663-1.1681-.4112-.6992-.714-.9738l-8.0935-7.88h24.4039c1.7009 0 3.0813-1.344 3.0813-3z" fill="#fff"/></svg>