<svg fill="none" height="76" viewBox="0 0 87 76" width="87" xmlns="http://www.w3.org/2000/svg"><path d="m74.6025 17.5039c-.7591-1.3228-1.8491-2.4227-3.1617-3.1903-1.3126-.7677-2.802-1.1765-4.3203-1.1857h-10.5705v-8.75194c0-1.16057-.4583-2.27362-1.2741-3.09427-.8158-.820651-1.9222-1.28169-3.0759-1.28169h-43.5c-2.30738 0-4.52026.922075-6.15183 2.56338-1.631566 1.6413-2.54817 3.86739-2.54817 6.18855v43.75967c.00156488 1.5347.404301 3.0421 1.16781 4.3708.7635 1.3288 1.86093 2.4322 3.18219 3.1996-.15575 4.062 1.29894 8.0199 4.04405 11.003 2.74515 2.983 6.55575 4.7469 10.59365 4.9036 4.038.1567 7.9724-1.3067 10.9378-4.0682 2.9653-2.7615 4.7188-6.5949 4.8745-10.6569h13.485c.481 3.6614 2.2683 7.0221 5.0292 9.4565 2.7608 2.4344 6.307 3.7766 9.9783 3.7766s7.2175-1.3422 9.9783-3.7766c2.7609-2.4344 4.5482-5.7951 5.0292-9.4565 2.3074 0 4.5203-.9221 6.1518-2.5634 1.6316-1.6413 2.5482-3.8674 2.5482-6.1885v-13.1279c-.0068-.7984-.2165-1.5817-.609-2.2755zm-18.0525 4.3759h10.5705l7.83 13.1279h-18.4005zm-36.975 43.7596c-1.2905 0-2.5521-.3849-3.6251-1.1062-1.073-.7212-1.9094-1.7464-2.4032-2.9458-.4939-1.1994-.6231-2.5192-.3713-3.7925.2517-1.2732.8732-2.4428 1.7857-3.3608.9126-.918 2.0752-1.5431 3.3409-1.7964 1.2658-.2533 2.5777-.1233 3.77.3735s2.2114 1.3381 2.9283 2.4176c.717 1.0794 1.0997 2.3485 1.0997 3.6467 0 1.7409-.6875 3.4104-1.9111 4.6414-1.2237 1.231-2.8834 1.9225-4.6139 1.9225zm43.5 0c-1.2905 0-2.5521-.3849-3.6251-1.1062-1.073-.7212-1.9094-1.7464-2.4032-2.9458-.4939-1.1994-.6231-2.5192-.3713-3.7925.2517-1.2732.8732-2.4428 1.7857-3.3608.9126-.918 2.0752-1.5431 3.3409-1.7964 1.2658-.2533 2.5777-.1233 3.77.3735s2.2114 1.3381 2.9283 2.4176c.717 1.0794 1.0997 2.3485 1.0997 3.6467 0 1.7409-.6875 3.4104-1.9111 4.6414-1.2237 1.231-2.8834 1.9225-4.6139 1.9225z" fill="#17ab5b"/></svg>