<svg fill="none" height="60" viewBox="0 0 54 60" width="54" xmlns="http://www.w3.org/2000/svg"><path d="m45 60c-2.5 0-4.625-.875-6.375-2.625s-2.625-3.875-2.625-6.375c0-.35.025-.713.075-1.089s.125-.713.225-1.011l-21.15-12.3c-.85.75-1.8 1.338-2.85 1.764s-2.15.638-3.3.636c-2.5 0-4.625-.875-6.375-2.625s-2.625-3.875-2.625-6.375.875-4.625 2.625-6.375 3.875-2.625 6.375-2.625c1.15 0 2.25.213 3.3.639s2 1.013 2.85 1.761l21.15-12.3c-.1-.3-.175-.637-.225-1.011s-.075-.737-.075-1.089c0-2.5.875-4.625 2.625-6.375s3.875-2.625 6.375-2.625 4.625.875 6.375 2.625 2.625 3.875 2.625 6.375-.875 4.625-2.625 6.375-3.875 2.625-6.375 2.625c-1.15 0-2.25-.212-3.3-.636s-2-1.012-2.85-1.764l-21.15 12.3c.1.3.175.638.225 1.014s.075.738.075 1.086c0 .35-.025.713-.075 1.089s-.125.713-.225 1.011l21.15 12.3c.85-.75 1.8-1.337 2.85-1.761s2.15-.637 3.3-.639c2.5 0 4.625.875 6.375 2.625s2.625 3.875 2.625 6.375-.875 4.625-2.625 6.375-3.875 2.625-6.375 2.625z" fill="#003778"/></svg>