<svg fill="none" height="81" viewBox="0 0 81 81" width="81" xmlns="http://www.w3.org/2000/svg" xmlns:xlink="http://www.w3.org/1999/xlink"><filter id="a" color-interpolation-filters="sRGB" filterUnits="userSpaceOnUse" height="81" width="81" x="0" y="0"><feFlood flood-opacity="0" result="BackgroundImageFix"/><feColorMatrix in="SourceAlpha" result="hardAlpha" type="matrix" values="0 0 0 0 0 0 0 0 0 0 0 0 0 0 0 0 0 0 127 0"/><feMorphology in="SourceAlpha" operator="dilate" radius="2" result="effect1_dropShadow_50_6794"/><feOffset/><feGaussianBlur stdDeviation="5"/><feComposite in2="hardAlpha" operator="out"/><feColorMatrix type="matrix" values="0 0 0 0 0 0 0 0 0 0 0 0 0 0 0 0 0 0 0.15 0"/><feBlend in2="BackgroundImageFix" mode="normal" result="effect1_dropShadow_50_6794"/><feBlend in="SourceGraphic" in2="effect1_dropShadow_50_6794" mode="normal" result="shape"/></filter><g filter="url(#a)"><rect fill="#003778" height="57" rx="28.5" width="57" x="12" y="12"/></g><path d="m48.1667 57c-1.3426 0-2.4838-.4813-3.4236-1.4438-.9399-.9624-1.4098-2.1312-1.4098-3.5062 0-.1925.0135-.3922.0403-.599.0269-.2068.0671-.3921.1208-.556l-11.3583-6.765c-.4565.4125-.9667.7359-1.5305.9702-.5639.2343-1.1547.3509-1.7723.3498-1.3426 0-2.4838-.4812-3.4236-1.4437-.9398-.9626-1.4097-2.1313-1.4097-3.5063s.4699-2.5437 1.4097-3.5063c.9398-.9625 2.081-1.4437 3.4236-1.4437.6176 0 1.2084.1172 1.7723.3515.5638.2343 1.074.5571 1.5305.9685l11.3583-6.765c-.0537-.165-.0939-.3504-.1208-.5561-.0268-.2057-.0403-.4053-.0403-.5989 0-1.375.4699-2.5438 1.4098-3.5062.9398-.9625 2.081-1.4438 3.4236-1.4438s2.4838.4813 3.4236 1.4438c.9398.9624 1.4097 2.1312 1.4097 3.5062s-.4699 2.5438-1.4097 3.5063c-.9398.9624-2.081 1.4437-3.4236 1.4437-.6176 0-1.2084-.1166-1.7723-.3498-.5638-.2332-1.074-.5566-1.5305-.9702l-11.3583 6.765c.0537.165.0939.3509.1208.5577.0268.2068.0403.4059.0403.5973 0 .1925-.0135.3921-.0403.5989-.0269.2068-.0671.3922-.1208.5561l11.3583 6.765c.4565-.4125.9667-.7354 1.5305-.9686.5639-.2332 1.1547-.3503 1.7723-.3514 1.3426 0 2.4838.4812 3.4236 1.4437.9398.9626 1.4097 2.1313 1.4097 3.5063s-.4699 2.5438-1.4097 3.5062c-.9398.9625-2.081 1.4438-3.4236 1.4438z" fill="#fff"/></svg>