<svg fill="none" height="65" viewBox="0 0 59 65" width="59" xmlns="http://www.w3.org/2000/svg"><path d="m18.4991 9.69427c-.1087-.00043-.2165.02043-.3171.0614-.1006.04096-.192.10122-.2691.17731-.077.07612-.1382.16652-.1799.26612-.0417.0995-.0632.2063-.0632.3141 0 .4518.3704.8157.8293.8157h12.1706c.4589 0 .8293-.3639.8293-.8157 0-.1078-.0215-.2146-.0632-.3141-.0417-.0996-.1028-.19-.1799-.26612-.077-.07609-.1685-.13635-.2691-.17731-.1006-.04097-.2083-.06183-.3171-.0614zm12.1706-4.36129c2.4059 0 4.4349 1.59242 5.061 3.76982l7.1293.00325c2.0355.01299 3.6777.66621 4.6938 2.07335.8719 1.209 1.2194 2.7624 1.1309 4.5076l-.0099 42.2901c.1377 1.7939-.2032 3.3798-1.0751 4.696-1.0227 1.5372-2.6911 2.3074-4.7594 2.3269h-35.82671c-2.49115-.0975-4.33657-.6792-5.49037-1.9791-1.071852-1.2057-1.5405815-2.8599-1.52091448-4.8748v-42.4169c-.04261182-1.9499.50478648-3.5943 1.69791448-4.8097 1.23247-1.24798 3.05494-1.80046 5.39859-1.8167h6.34259c.6228-2.1774 2.6518-3.76982 5.0577-3.76982zm0 10.35722h-12.1706c-1.7897 0-3.3663-.8774-4.3169-2.2229h-7.07028c-1.25541.0065-1.97325.2275-2.23548.494-.29828.3022-.47201.819-.45234 1.7257v42.4753c-.00983 1.0562.17045 1.6965.42612 1.9824.177.1983.93746.4388 2.24531.4908h35.72837c.6556-.0065.9178-.13 1.0686-.3543.2983-.4484.4359-1.0854.3605-2.1384l.0033-42.5598c.0459-.9522-.0885-1.5665-.3147-1.8784-.0852-.1138-.3802-.234-1.1013-.2373h-7.857c-.9505 1.3455-2.5272 2.2229-4.3169 2.2229zm22.4302-15.6902c3.2582 0 5.9001 2.60312 5.9001 5.81721v45.76419c0 3.2109-2.6419 5.8172-5.9001 5.8172h-6.418v-4.3645h6.4147c.8162 0 1.4751-.65 1.4751-1.4527v-45.76744c-.0018-.38643-.1581-.75641-.4346-1.02874-.2765-.27234-.6507-.4248-1.0405-.42394h-24.7673c-.8129 0-1.475.64997-1.475 1.45268v.51022h-4.4251v-.51022c0-3.21084 2.642-5.81396 5.9001-5.81396zm-29.5136 38.1888c1.2226 0 2.2125.975 2.2125 2.1807 0 1.2024-.9899 2.1806-2.2125 2.1806h-13.2785c-.2897.0013-.5768-.054-.84493-.1627-.26814-.1088-.51205-.2688-.71781-.471s-.36933-.4426-.48139-.7074c-.11205-.2649-.17039-.549-.17167-.8363 0-1.2057.99318-2.1839 2.2158-2.1839zm13.2818-8.7225c1.2193 0 2.2125.9749 2.2125 2.1806 0 1.2025-.9932 2.1807-2.2125 2.1807h-26.5603c-.2897.0012-.5768-.0541-.84493-.1628-.26814-.1087-.51205-.2687-.71781-.4709s-.36933-.4426-.48139-.7075c-.11205-.2649-.17039-.549-.17167-.8362 0-1.2057.99318-2.1839 2.2158-2.1839zm0-8.7226c1.2193 0 2.2125.975 2.2125 2.1807-.0008.2872-.0588.5714-.1704.8364-.1117.2651-.2749.5057-.4803.7082-.2055.2025-.4492.3629-.7171.472-.268.1091-.555.1649-.8447.164h-26.5603c-.2897.0013-.5768-.054-.84493-.1628-.26814-.1087-.51205-.2687-.71781-.4709s-.36933-.4426-.48139-.7075c-.11205-.2648-.17039-.549-.17167-.8362 0-1.2057.99318-2.1839 2.2158-2.1839z" fill="#003778"/></svg>