<svg width="44" height="51" viewBox="0 0 44 51" fill="none" xmlns="http://www.w3.org/2000/svg">
<path d="M22 25.5C29.0927 25.5 34.8333 19.7967 34.8333 12.75C34.8333 5.70335 29.0927 0 22 0C14.9073 0 9.16667 5.70335 9.16667 12.75C9.16667 19.7967 14.9073 25.5 22 25.5ZM30.8 29.1429H29.849C27.4656 30.2813 24.8187 30.9643 22 30.9643C19.1812 30.9643 16.5458 30.2813 14.151 29.1429H13.2C5.9125 29.1429 0 35.017 0 42.2571V45.5357C0 48.5525 2.46354 51 5.5 51H38.5C41.5365 51 44 48.5525 44 45.5357V42.2571C44 35.017 38.0875 29.1429 30.8 29.1429Z" fill="#222222"/>
</svg>
