<svg fill="none" height="73" viewBox="0 0 73 73" width="73" xmlns="http://www.w3.org/2000/svg"><path d="m11.1735 0c-1.86228 0-3.35207.768421-4.46942 2.30526l-4.84184 6.14737c-1.117342 1.53684-1.86224 3.07367-1.86224 4.99477v48.0263c0 4.2263 3.35204 7.6842 7.44898 7.6842h30.91322c-.7449-2.3053-1.1173-4.9947-1.1173-7.6842 0-12.679 10.0561-23.0526 22.3469-23.0526 2.6072 0 5.2143.3842 7.449 1.1526v-26.1263c0-1.9211-.7449-3.45793-1.8622-4.99477l-5.2143-6.53158c-.7449-1.152629-2.2347-1.92105-4.097-1.92105zm-.3725 3.84211h44.6939l3.352 3.8421h-51.02547zm.3725 42.26319h22.3469v11.5263h-22.3469zm56.9847 3.0736-13.4082 13.8316-5.9592-6.1473-4.0969 4.6105 10.4285 11.5263 17.8776-18.4421z" fill="#bcbcbc"/></svg>