<svg fill="none" height="138" viewBox="0 0 138 138" width="138" xmlns="http://www.w3.org/2000/svg" xmlns:xlink="http://www.w3.org/1999/xlink"><filter id="a" color-interpolation-filters="sRGB" filterUnits="userSpaceOnUse" height="138" width="138" x="0" y="0"><feFlood flood-opacity="0" result="BackgroundImageFix"/><feColorMatrix in="SourceAlpha" result="hardAlpha" type="matrix" values="0 0 0 0 0 0 0 0 0 0 0 0 0 0 0 0 0 0 127 0"/><feMorphology in="SourceAlpha" operator="dilate" radius="2" result="effect1_dropShadow_64_4845"/><feOffset/><feGaussianBlur stdDeviation="5"/><feComposite in2="hardAlpha" operator="out"/><feColorMatrix type="matrix" values="0 0 0 0 0 0 0 0 0 0 0 0 0 0 0 0 0 0 0.15 0"/><feBlend in2="BackgroundImageFix" mode="normal" result="effect1_dropShadow_64_4845"/><feBlend in="SourceGraphic" in2="effect1_dropShadow_64_4845" mode="normal" result="shape"/></filter><g filter="url(#a)"><circle cx="69" cy="69" fill="#003778" r="57"/></g><path d="m95.664 48.1376c1.53-4.2322-2.5712-8.3335-6.8035-6.8l-51.726 18.7071c-4.2465 1.5371-4.76 7.3313-.8536 9.5944l16.5113 9.559 14.7439-14.744c.668-.6451 1.5626-1.0021 2.4912-.994.9287.008 1.8169.3805 2.4736 1.0371.6567.6567 1.0291 1.545 1.0372 2.4736s-.3489 1.8233-.9941 2.4912l-14.7439 14.744 9.5625 16.511c2.2596 3.907 8.0537 3.39 9.5908-.8533z" fill="#fff"/></svg>