<svg fill="none" height="113" viewBox="0 0 113 113" width="113" xmlns="http://www.w3.org/2000/svg" xmlns:xlink="http://www.w3.org/1999/xlink"><filter id="a" color-interpolation-filters="sRGB" filterUnits="userSpaceOnUse" height="113" width="113" x="0" y="0"><feFlood flood-opacity="0" result="BackgroundImageFix"/><feColorMatrix in="SourceAlpha" result="hardAlpha" type="matrix" values="0 0 0 0 0 0 0 0 0 0 0 0 0 0 0 0 0 0 127 0"/><feMorphology in="SourceAlpha" operator="dilate" radius="2" result="effect1_dropShadow_16_1693"/><feOffset/><feGaussianBlur stdDeviation="5"/><feComposite in2="hardAlpha" operator="out"/><feColorMatrix type="matrix" values="0 0 0 0 0 0 0 0 0 0 0 0 0 0 0 0 0 0 0.25 0"/><feBlend in2="BackgroundImageFix" mode="normal" result="effect1_dropShadow_16_1693"/><feBlend in="SourceGraphic" in2="effect1_dropShadow_16_1693" mode="normal" result="shape"/></filter><g filter="url(#a)"><rect fill="#003778" height="89" rx="44.5" width="89" x="12" y="12"/></g><path d="m62.9992 60.9963v23.6368c.1199.8999-.18 1.8598-.8699 2.4897-.2775.2781-.6071.4987-.97.6492s-.7519.228-1.1447.228c-.3929 0-.7819-.0775-1.1447-.228-.3629-.1505-.6925-.3711-.97-.6492l-6.0292-6.0292c-.3271-.3198-.5759-.711-.7268-1.1428-.1509-.4319-.1999-.8929-.1431-1.3469v-17.6076h-.09l-17.2776-22.137c-.4871-.6253-.7069-1.418-.6113-2.2049.0955-.7868.4987-1.5039 1.1213-1.9945.5699-.4199 1.1998-.6599 1.8597-.6599h41.9942c.6599 0 1.2898.24 1.8597.6599.6226.4906 1.0258 1.2077 1.1213 1.9945.0956.7869-.1242 1.5796-.6113 2.2049l-17.2776 22.137z" fill="#fff"/></svg>