<svg fill="none" height="97" viewBox="0 0 97 97" width="97" xmlns="http://www.w3.org/2000/svg"><circle cx="48.5" cy="48.5" fill="#d9d9d9" r="48.5"/><path clip-rule="evenodd" d="m11.3174 79.641v-3.7962c0-12.164 9.993-22.0329 22.31-22.0329h1.6074c4.0475 1.9126 8.5018 3.0601 13.2659 3.0601s9.2377-1.1475 13.2659-3.0601h1.6074c12.317 0 22.3101 9.8689 22.3101 22.0329v3.7962c-8.8968 10.6118-22.2522 17.359-37.1834 17.359s-28.2865-6.7472-37.1833-17.359zm58.8736-53.3702c0 11.8389-9.7025 21.4209-21.6903 21.4209-11.9877 0-21.6903-9.582-21.6903-21.4209 0-11.8388 9.7026-21.42079 21.6903-21.42079 11.9878 0 21.6903 9.58199 21.6903 21.42079z" fill="#666" fill-rule="evenodd"/></svg>