<svg fill="none" height="80" viewBox="0 0 80 80" width="80" xmlns="http://www.w3.org/2000/svg"><path d="m44.112.00492141c2.9188-.01120051 5.8376.01813499 8.7556.08799729l.7759.0279993c.896.031999 1.78.071997 2.8479.119995 4.2558.199994 7.1596.871967 9.7075 1.859937 2.6399 1.01597 4.8638 2.39192 7.0876 4.61584 2.0334 1.99836 3.6072 4.41561 4.6118 7.08381.988 2.5479 1.6599 5.4558 1.8599 9.7116.048 1.064.088 1.952.12 2.8479l.024.776c.0711 2.9167.1017 5.8342.092 8.7517l.004 2.9839v5.2398c.0099 2.9189-.0208 5.8377-.092 8.7557l-.024.776c-.032.896-.072 1.7799-.12 2.8479-.2 4.2559-.8799 7.1598-1.8639 9.7077-1.0014 2.6709-2.5755 5.0902-4.6118 7.0877-2 2.0332-4.4185 3.6069-7.0876 4.6119-2.5479.9879-5.4517 1.6599-9.7075 1.8599-1.0679.048-1.9519.088-2.8479.12l-.7759.024c-2.918.0711-5.8368.1018-8.7556.092l-2.9838.004h-5.2357c-2.9188.0099-5.8376-.0208-8.7556-.092l-.7759-.024c-.9496-.0344-1.8989-.0744-2.8479-.12-4.2558-.2-7.1596-.88-9.7115-1.8639-2.6691-1.0026-5.08679-2.5766-7.08364-4.6119-2.03571-1.9988-3.61092-4.4176-4.61576-7.0877-.98795-2.5479-1.659915-5.4518-1.859905-9.7077-.044546-.9491-.084544-1.8984-.119993-2.8479l-.019999-.776c-.0737417-2.9179-.10707694-5.8368-.09999512-8.7557v-8.2237c-.01116329-2.9175.01817162-5.835.08799582-8.7517l.0279983-.776c.031998-.8959.071996-1.7839.119994-2.8479.199989-4.2598.871954-7.1597 1.859904-9.7116 1.00544-2.6695 2.58372-5.08609 4.62376-7.07981 1.99548-2.03692 4.41164-3.61358 7.07964-4.61984 2.5519-.98797 5.4517-1.659943 9.7115-1.859937l2.8479-.119995.7759-.019999c2.9166-.0737064 5.8341-.10704219 8.7516-.09999716zm-4.1117 19.99927859c-2.6499-.0374-5.2807.4521-7.7397 1.4403-2.459.9881-4.6971 2.4551-6.5842 4.3158-1.8871 1.8606-3.3856 4.0778-4.4084 6.5226s-1.5495 5.0685-1.5495 7.7187c0 2.6501.5267 5.2738 1.5495 7.7186 1.0228 2.4449 2.5213 4.662 4.4084 6.5227 1.8871 1.8606 4.1252 3.3276 6.5842 4.3158 2.459.9881 5.0898 1.4777 7.7397 1.4402 5.304 0 10.3908-2.1071 14.1414-5.8577 3.7505-3.7506 5.8575-8.8375 5.8575-14.1416 0-5.3042-2.107-10.3911-5.8575-14.1417-3.7506-3.7506-8.8374-5.8537-14.1414-5.8537zm0 7.9998c1.5939-.0294 3.1777.2591 4.6589.8488 1.4812.5896 2.83 1.4685 3.9677 2.5852 1.1377 1.1168 2.0415 2.4491 2.6585 3.9191.6171 1.47.935 3.0482.9353 4.6424.0003 1.5943-.3172 3.1726-.9337 4.6428-.6166 1.4702-1.5199 2.8028-2.6572 3.9199-1.1374 1.1172-2.4859 1.9965-3.9669 2.5866s-3.0647.8792-4.6586.8504c-3.1825 0-6.2346-1.2643-8.4849-3.5146-2.2503-2.2504-3.5145-5.3025-3.5145-8.485s1.2642-6.2347 3.5145-8.485c2.2503-2.2504 5.3024-3.5146 8.4849-3.5146zm20.9989-13.9996c-1.2904.0517-2.5107.6006-3.4054 1.5319-.8947.9312-1.3944 2.1726-1.3944 3.464s.4997 2.5327 1.3944 3.464c.8947.9312 2.115 1.4802 3.4054 1.5318 1.326 0 2.5977-.5268 3.5353-1.4644.9377-.9377 1.4644-2.2094 1.4644-3.5354 0-1.3261-.5267-2.5978-1.4644-3.5354-.9376-.9377-2.2093-1.4645-3.5353-1.4645z" fill="#dd1c3e"/></svg>