<svg fill="none" height="49" viewBox="0 0 49 49" width="49" xmlns="http://www.w3.org/2000/svg"><path clip-rule="evenodd" d="m35.0973 31.6012 13.1807 13.1808c.4633.4636.7235 1.0922.7232 1.7476-.0002.6554-.2608 1.2839-.7244 1.7472s-1.0923.7234-1.7477.7232-1.2839-.2608-1.7471-.7244l-13.1808-13.1807c-3.9402 3.0518-8.895 4.488-13.8566 4.0163-4.9615-.4717-9.55694-2.8158-12.8515-6.5554-3.29457-3.7397-5.040746-8.594-4.88330921-13.5754.15743721-4.9813 2.20665921-9.71567 5.73079921-13.23981s8.25851-5.573362 13.23991-5.73079921c4.9813-.15743679 9.8356 1.58873921 13.5753 4.88330921 3.7396 3.29456 6.0837 7.89 6.5554 12.8515.4717 4.9616-.9645 9.9164-4.0163 13.8566zm-15.4959 2.6974c3.8986 0 7.6375-1.5487 10.3942-4.3054 2.7568-2.7567 4.3055-6.4957 4.3055-10.3943 0-3.8985-1.5487-7.6375-4.3055-10.39419-2.7567-2.75673-6.4956-4.30544-10.3942-4.30544s-7.6375 1.54871-10.39424 4.30544c-2.75673 2.75669-4.30544 6.49569-4.30544 10.39419 0 3.8986 1.54871 7.6376 4.30544 10.3943 2.75674 2.7567 6.49564 4.3054 10.39424 4.3054z" fill="#222" fill-rule="evenodd"/></svg>