<svg width="53" height="53" viewBox="0 0 53 53" fill="none" xmlns="http://www.w3.org/2000/svg">
<path d="M0 53V5.3C0 3.8425 0.5194 2.59435 1.5582 1.55555C2.597 0.516754 3.84427 -0.00176217 5.3 4.49915e-06H47.7C49.1575 4.49915e-06 50.4056 0.519405 51.4444 1.5582C52.4832 2.597 53.0018 3.84427 53 5.3V37.1C53 38.5575 52.4806 39.8057 51.4418 40.8445C50.403 41.8833 49.1557 42.4018 47.7 42.4H10.6L0 53ZM10.6 31.8H31.8V26.5H10.6V31.8ZM10.6 23.85H42.4V18.55H10.6V23.85ZM10.6 15.9H42.4V10.6H10.6V15.9Z" fill="#003778"/>
</svg>
