<svg fill="none" height="51" viewBox="0 0 51 51" width="51" xmlns="http://www.w3.org/2000/svg"><path d="m39.7239 6.23151-5.1-2.69041c-4.4778-2.35988-6.7167-3.5411-9.1239-3.5411s-4.6461 1.17866-9.1239 3.5411l-.8186.43303 22.7537 13.06517 10.2408-5.1502c-1.6473-1.8756-4.3044-3.27721-8.8281-5.66271zm10.6335 9.05009-10.1949 5.1245v7.7792c0 .5097-.2015.9985-.5602 1.3589-.3586.3603-.8451.5628-1.3523.5628s-.9937-.2025-1.3523-.5628c-.3587-.3604-.5602-.8492-.5602-1.3589v-5.86l-8.925 4.484v24.1907c1.8309-.4587 3.9142-1.5553 7.2114-3.2951l5.1-2.6904c5.485-2.8929 8.2288-4.338 9.7537-6.9387 1.5224-2.5982 1.5224-5.8344 1.5224-12.2991v-.2998c0-4.8504 0-7.8842-.6426-10.1953zm-26.7699 35.7184v-24.1881l-22.9449-11.5303c-.64259977 2.3111-.6426 5.3449-.6426 10.1902v.2998c0 6.4698-.0000003 9.706 1.52235 12.3042 1.5249 2.6007 4.2687 4.0484 9.75375 6.9412l5.1 2.6879c3.2971 1.7398 5.3805 2.8364 7.2114 3.2951zm-21.1395-39.1084 23.052 11.5816 8.6981-4.3687-22.6593-13.01135-.2627.13836c-4.52115 2.38294-7.1808 3.78449-8.8281 5.66269z" fill="#222"/></svg>