<svg fill="none" height="80" viewBox="0 0 80 80" width="80" xmlns="http://www.w3.org/2000/svg"><path d="m40 0c-22.08 0-40 17.92-40 40s17.92 40 40 40 40-17.92 40-40-17.92-40-40-40zm18.56 27.2c-.6 6.32-3.2 21.68-4.52 28.76-.56 3-1.68 4-2.72 4.12-2.32.2-4.08-1.52-6.32-3-3.52-2.32-5.52-3.76-8.92-6-3.96-2.6-1.4-4.04.88-6.36.6-.6 10.84-9.92 11.04-10.76.0278-.1272.0241-.2593-.0108-.3848-.0348-.1255-.0998-.2405-.1892-.3352-.24-.2-.56-.12-.84-.08-.36.08-5.96 3.8-16.88 11.16-1.6 1.08-3.04 1.64-4.32 1.6-1.44-.04-4.16-.8-6.2-1.48-2.52-.8-4.48-1.24-4.32-2.64.08-.72 1.08-1.44 2.96-2.2 11.68-5.08 19.44-8.44 23.32-10.04 11.12-4.64 13.4-5.44 14.92-5.44.32 0 1.08.08 1.56.48.4.32.52.76.56 1.08-.04.24.04.96 0 1.52z" fill="#1e8edf"/></svg>