<svg fill="none" height="46" viewBox="0 0 53 46" width="53" xmlns="http://www.w3.org/2000/svg"><path d="m6.29035 5.75h40.41935c1.5879 0 2.887-1.29375 2.887-2.875s-1.2991-2.875-2.887-2.875h-40.41935c-1.5879 0-2.88709 1.29375-2.88709 2.875s1.29919 2.875 2.88709 2.875zm43.76835 5.175c-.2599-1.3225-1.4436-2.3-2.8294-2.3h-41.45862c-1.38581 0-2.56952.9775-2.82935 2.3l-2.8870974 14.375c-.3464516 1.7825 1.0104874 3.45 2.8293474 3.45h.51968v14.375c0 1.5813 1.29919 2.875 2.88709 2.875h23.09675c1.5879 0 2.8871-1.2937 2.8871-2.875v-14.375h11.5484v14.375c0 1.5813 1.2992 2.875 2.8871 2.875s2.887-1.2937 2.887-2.875v-14.375h.5197c1.8189 0 3.1758-1.6675 2.8294-3.45zm-23.5587 29.325h-17.32255v-11.5h17.32255z" fill="#222"/></svg>