<svg fill="none" height="58" viewBox="0 0 58 58" width="58" xmlns="http://www.w3.org/2000/svg"><path d="m34.4382 51.7167c-.9264.9264-2.0743 1.3896-3.4438 1.3896-1.3694 0-2.5173-.4632-3.4437-1.3896l-21.2667-21.2667c-.44306-.443-.79589-.9666-1.0585-1.5708s-.39311-1.2486-.3915-1.9333v-17.27919c0-1.32917.47367-2.46742 1.421-3.41475s2.08478-1.42019 3.41233-1.41858h17.27917c.6847 0 1.3292.1313 1.9333.39392.6042.26261 1.1278.61463 1.5709 1.05608l21.2666 21.32712c.9264.9264 1.3896 2.0646 1.3896 3.4147s-.4632 2.4876-1.3896 3.4123zm-18.7292-32.3833c1.0069 0 1.8632-.3529 2.5689-1.0585.7057-.7057 1.0577-1.5612 1.0561-2.5665 0-1.007-.3528-1.8633-1.0585-2.5689-.7057-.7057-1.5612-1.0577-2.5665-1.0561-1.0069 0-1.8633.3528-2.5689 1.0585-.7057.7056-1.0577 1.5611-1.0561 2.5665 0 1.0069.3528 1.8632 1.0585 2.5689s1.5612 1.0577 2.5665 1.0561z" fill="#222"/></svg>