<svg fill="none" height="75" viewBox="0 0 75 75" width="75" xmlns="http://www.w3.org/2000/svg"><path d="m37.0834 0c20.4811 0 37.0833 16.6022 37.0833 37.0833 0 20.4812-16.6022 37.0834-37.0833 37.0834-6.5535.0105-12.9916-1.7238-18.6529-5.0248l-18.4156145 5.0248 5.0136645-18.423c-3.30378-5.6631-5.0394465-12.104-5.02849853-18.6604 0-20.4811 16.60224853-37.0833 37.08334853-37.0833zm-12.638 19.6542-.7417.0296c-.4801.0293-.9494.1554-1.3795.3709-.4023.2278-.7695.5126-1.0902.8455-.445.419-.6972.7824-.9679 1.1347-1.3716 1.7834-2.1101 3.9728-2.0989 6.2226.0074 1.8171.4821 3.586 1.2237 5.2399 1.5167 3.3449 4.0124 6.8864 7.3054 10.1682.7936.7899 1.5724 1.5835 2.4105 2.3214 4.0917 3.6026 8.9677 6.2005 14.24 7.5873l2.1063.3226c.686.0371 1.3721-.0148 2.0618-.0482 1.08-.0557 2.1346-.3482 3.0891-.8566.4856-.2502.9595-.5224 1.4203-.8158 0 0 .1594-.1039.4635-.3338.5006-.3708.8084-.6341 1.2238-1.068.3077-.3189.5747-.6935.7787-1.1199.2893-.6045.5785-1.7578.6972-2.7182.089-.7343.063-1.1348.0519-1.3832-.0148-.3968-.3449-.8084-.7046-.9827l-2.1582-.9679s-3.2263-1.4055-5.1991-2.3029c-.2065-.0901-.4277-.1417-.6527-.152-.2537-.0261-.5101.0025-.7519.0837-.2417.0812-.4633.2133-.6498.3872-.0186-.0074-.267.204-2.9482 3.4525-.1539.2068-.3658.363-.6089.4489-.243.0859-.5061.0974-.7557.0332-.2416-.0648-.4783-.1466-.7083-.2448-.4599-.1928-.6193-.267-.9345-.4005-2.1284-.9288-4.0989-2.1836-5.8407-3.7194-.4672-.408-.9011-.853-1.3461-1.2831-1.4589-1.3972-2.7303-2.9778-3.7825-4.7022l-.2188-.3523c-.1571-.2367-.2842-.4921-.3782-.7602-.1409-.5451.2262-.9827.2262-.9827s.9011-.9864 1.3202-1.5204c.4079-.5192.7527-1.0235.9752-1.3832.4376-.7046.5748-1.4277.3449-1.9877-1.0383-2.5365-2.1137-5.0619-3.2188-7.5687-.2188-.4969-.8678-.8529-1.4574-.9234-.2002-.0222-.4005-.0445-.6007-.0593-.498-.0247-.9971-.0198-1.4945.0148l.7454-.0296z" fill="#42b532"/></svg>