<svg fill="none" height="273" viewBox="0 0 273 273" width="273" xmlns="http://www.w3.org/2000/svg" xmlns:xlink="http://www.w3.org/1999/xlink"><clipPath id="a"><path d="m0 0h273v273h-273z"/></clipPath><g clip-path="url(#a)"><path d="m200.484 268.734h-63.984v-12.796l34.125-8.532-8.531-12.797 8.531-4.265v-29.86l21.328 4.266s.597 2.048 1.45 5.673c2.537 10.782 4.417 21.708 5.631 32.718.939 8.499 1.423 17.042 1.45 25.593z" fill="#3d5c9e"/><path d="m179.156 132.234v8.532c-.007 2.26-.907 4.426-2.506 6.025-1.598 1.598-3.764 2.499-6.025 2.506h-4.266v-17.063z" fill="#e09380"/><path d="m174.891 119.438v12.796h-8.532c-46.921 0-46.921-12.796-46.921-12.796.036 1.69-.271 3.37-.901 4.939s-1.572 2.994-2.767 4.19c-1.196 1.195-2.621 2.136-4.19 2.767-1.569.63-3.249.936-4.939.9h-8.5316v-12.796c0-10.182 4.0446-19.9471 11.2446-27.1468 7.199-7.1996 16.964-11.2443 27.146-11.2443s19.947 4.0447 27.146 11.2443c7.2 7.1997 11.245 16.9648 11.245 27.1468z" fill="#966857"/><path d="m119.438 110.906c.036 1.691-.271 3.371-.901 4.94s-1.572 2.994-2.767 4.189c-1.196 1.196-2.621 2.137-4.19 2.767-1.569.631-3.249.937-4.939.901h-8.5316v8.531h8.5316c1.69.036 3.37-.27 4.939-.9 1.569-.631 2.994-1.572 4.19-2.767 1.195-1.196 2.137-2.621 2.767-4.19s.937-3.249.901-4.939c0 0 0 12.796 46.921 12.796h8.532v-8.531h-8.532c-46.921 0-46.921-12.797-46.921-12.797z" fill="#8d5c4d"/><path d="m170.625 200.484v29.86l-8.531 4.265 8.531 12.797-34.125 8.531c17.062-17.062 21.328-51.187 21.328-51.187v-6.825z" fill="#7ea8c2"/><path d="m149.297 180.521c-5.567 2.633-11.811 3.485-17.88 2.439s-11.667-3.938-16.032-8.283c-2.78-2.767-4.985-6.057-6.486-9.682-1.501-3.624-2.268-7.51-2.258-11.433v-21.328c1.69.036 3.37-.27 4.939-.9 1.569-.631 2.994-1.572 4.19-2.767 1.195-1.196 2.137-2.621 2.767-4.19s.937-3.249.9-4.939c0 0 0 12.796 46.922 12.796v21.328c.012 5.651-1.587 11.188-4.609 15.962-3.021 4.775-7.341 8.59-12.453 10.997zm0-26.959h-25.594c0 3.394 1.348 6.649 3.748 9.049s5.655 3.748 9.049 3.748 6.649-1.348 9.049-3.748 3.748-5.655 3.748-9.049z" fill="#ffbeaa"/><path d="m157.828 197.925v6.825l-12.797 12.797-8.531-8.531 12.797-12.797z" fill="#acaeaf"/><path d="m145.031 217.547 12.797-12.797s-4.266 34.125-21.328 51.188v-46.922z" fill="#f4f4f4"/><path d="m149.297 180.521v15.697l-12.797 12.797-12.797-12.797v-15.697c3.996 1.909 8.368 2.9 12.797 2.9s8.801-.991 12.797-2.9z" fill="#e09380"/><path d="m123.703 153.562h25.594c0 3.394-1.348 6.649-3.748 9.049s-5.655 3.748-9.049 3.748-6.649-1.348-9.049-3.748-3.748-5.655-3.748-9.049z" fill="#ff475a"/><path d="m136.5 153.562h-12.797c.012 2.253.623 4.461 1.77 6.399 1.113-1.942 2.718-3.557 4.654-4.68 1.936-1.124 4.135-1.717 6.373-1.719z" fill="#d1093a"/><path d="m147.527 159.961c1.147-1.938 1.758-4.146 1.77-6.399h-12.797c2.238.002 4.437.595 6.373 1.719 1.936 1.123 3.541 2.738 4.654 4.68z" fill="#d1093a"/><path d="m136.5 255.938v12.796h-63.9844c.0274-8.551.5115-17.094 1.4503-25.593 1.2142-11.01 3.0945-21.936 5.6307-32.718.8531-3.625 1.4503-5.673 1.4503-5.673l21.3281-4.266v29.86l8.531 4.265-8.531 12.797z" fill="#314a66"/><path d="m136.5 209.016v46.922c-17.062-17.063-21.328-51.188-21.328-51.188l12.797 12.797z" fill="#cfd9dc"/><path d="m136.5 209.016-8.531 8.531-12.797-12.797v-6.825l8.531-1.706z" fill="#acaeaf"/><path d="m136.5 255.937-34.125-8.531 8.531-12.797-8.531-4.265v-29.86l12.797-2.559v6.825s4.266 34.125 21.328 51.187z" fill="#7ea8c2"/><path d="m106.641 132.234v17.063h-4.266c-2.261-.007-4.4266-.908-6.0251-2.506-1.5984-1.599-2.4994-3.765-2.5061-6.025v-8.532z" fill="#e09380"/><path d="m21.3281 123.703h17.0625v59.719h-17.0625z" fill="#06ccab"/><path d="m29.8594 166.359v-42.656h-8.5313v59.719h17.0625v-8.531c-2.2626 0-4.4326-.899-6.0325-2.499s-2.4987-3.77-2.4987-6.033z" fill="#00bd9d"/><path d="m55.4531 98.1094h17.0625v85.3126h-17.0625z" fill="#54addd"/><path d="m63.9844 166.359v-68.2496h-8.5313v85.3126h17.0625v-8.531c-2.2626 0-4.4326-.899-6.0325-2.499s-2.4987-3.77-2.4987-6.033z" fill="#7099cf"/><path d="m200.484 76.7812h17.063v12.7969h-17.063z" fill="#966857"/><path d="m200.484 76.7812h8.532v12.7969h-8.532z" fill="#8d5c4d"/><path d="m243.141 38.3902c.004 6.5957-1.909 13.0504-5.507 18.5788-3.597 5.5283-8.723 9.8921-14.755 12.5603-1.522.5211-2.848 1.495-3.801 2.791-.953 1.2961-1.487 2.8524-1.531 4.4606h-17.063c-.043-1.6082-.577-3.1645-1.53-4.4606-.953-1.296-2.28-2.2699-3.802-2.791-5.614-2.4961-10.45-6.4618-13.998-11.4785-3.548-5.0166-5.675-10.898-6.158-17.0234-.483-6.1253.698-12.2673 3.416-17.7776s6.874-10.1845 12.028-13.52904c5.155-3.34456 11.116-5.23545 17.256-5.47306s12.23 1.18688 17.627 4.12309 9.902 7.27521 13.038 12.55891c3.136 5.2838 4.787 11.3162 4.78 17.4605z" fill="#ffd03e"/><path d="m203.684 69.5295c-6.608-2.9301-12.114-7.8842-15.724-14.1473-3.609-6.263-5.134-13.511-4.356-20.6974.779-7.1865 3.821-13.9396 8.687-19.2846 4.867-5.345 11.306-9.00521 18.388-10.4523.896-.17489 1.779-.2602 2.662-.36684-3.727-.47752-7.506-.35366-11.193.36684-7.082 1.44709-13.521 5.1073-18.388 10.4523-4.866 5.345-7.908 12.0981-8.687 19.2846-.778 7.1864.747 14.4344 4.356 20.6974 3.609 6.2631 9.115 11.2172 15.723 14.1473 1.522.5211 2.849 1.495 3.802 2.791.953 1.2961 1.487 2.8524 1.53 4.4605h8.532c-.044-1.6081-.578-3.1644-1.531-4.4605-.953-1.296-2.28-2.2699-3.801-2.791z" fill="#fbb040"/><path d="m221.812 187.688h46.922c.011 6.163-1.198 12.268-3.555 17.964-2.357 5.695-5.817 10.868-10.18 15.222z" fill="#54addd"/><path d="m268.734 187.688h-46.922v-46.922c6.163-.004 12.266 1.208 17.961 3.565 5.694 2.356 10.868 5.812 15.226 10.17s7.814 9.532 10.171 15.226c2.356 5.695 3.568 11.798 3.564 17.961z" fill="#ff636e"/><path d="m221.813 187.688 33.186 33.186c-7.525 7.518-17.379 12.257-27.95 13.443-10.57 1.186-21.23-1.253-30.233-6.917-1.239-7.627-2.862-15.186-4.863-22.65l-14.93-2.986c-1.409-4.559-2.127-9.304-2.132-14.076-.004-6.163 1.208-12.266 3.565-17.961 2.356-5.694 5.812-10.868 10.17-15.226s9.532-7.814 15.226-10.17c5.695-2.357 11.798-3.569 17.961-3.565z" fill="#fbb040"/><path d="m205.347 227.4c-1.239-7.627-2.862-15.186-4.863-22.65l-14.929-2.986c-1.409-4.559-2.128-9.304-2.133-14.076-.003-10.963 3.837-21.579 10.851-30.003 7.014-8.425 16.758-14.125 27.54-16.109v-.81c-6.163-.004-12.266 1.208-17.961 3.565-5.694 2.356-10.868 5.812-15.226 10.17s-7.814 9.532-10.17 15.226c-2.357 5.695-3.569 11.798-3.565 17.961.005 4.772.723 9.517 2.132 14.076l14.93 2.986c2.001 7.464 3.624 15.023 4.863 22.65 7.483 4.718 16.15 7.218 24.997 7.209 1.441 0 2.857-.089 4.265-.213-7.366-.661-14.47-3.058-20.731-6.996z" fill="#f7941d"/><g fill="#000"><path d="m136.5 187.688c-9.047-.011-17.721-3.609-24.119-10.007-6.397-6.397-9.996-15.071-10.006-24.119v-21.328h8.531v21.328c0 6.788 2.697 13.298 7.496 18.098 4.8 4.8 11.31 7.496 18.098 7.496s13.298-2.696 18.098-7.496c4.799-4.8 7.496-11.31 7.496-18.098v-21.328h8.531v21.328c-.01 9.048-3.609 17.722-10.006 24.119-6.398 6.398-15.072 9.996-24.119 10.007z"/><path d="m136.5 170.625c-4.525 0-8.865-1.798-12.065-4.997-3.2-3.2-4.997-7.54-4.997-12.066 0-1.131.449-2.216 1.249-3.016s1.885-1.249 3.016-1.249h25.594c1.131 0 2.216.449 3.016 1.249s1.249 1.885 1.249 3.016c0 4.526-1.797 8.866-4.997 12.066-3.2 3.199-7.54 4.997-12.065 4.997zm-7.384-12.797c.75 1.295 1.826 2.37 3.122 3.117 1.296.748 2.766 1.141 4.262 1.141s2.966-.393 4.262-1.141c1.296-.747 2.372-1.822 3.122-3.117z"/><path d="m170.625 153.562h-4.266v-8.531h4.266c1.131 0 2.216-.45 3.016-1.249.8-.8 1.25-1.885 1.25-3.017v-4.265h-8.532c-25.7 0-38.574-3.839-44.976-7.969-1.59 2.461-3.774 4.48-6.351 5.873-2.576 1.393-5.462 2.113-8.391 2.096h-8.5316v4.265c0 1.132.4494 2.217 1.2493 3.017.8003.799 1.8853 1.249 3.0163 1.249h4.266v8.531h-4.266c-3.3939 0-6.6489-1.348-9.0488-3.748-2.3998-2.4-3.7481-5.655-3.7481-9.049v-8.531c0-1.131.4494-2.216 1.2494-3.016s1.8849-1.25 3.0163-1.25h12.7972c1.139.073 2.28-.098 3.348-.501s2.038-1.029 2.845-1.836 1.433-1.777 1.836-2.845c.404-1.068.574-2.21.502-3.349-.005-1.092.409-2.145 1.157-2.942.749-.796 1.774-1.274 2.865-1.337 1.091-.062 2.164.297 2.998 1.002.834.706 1.366 1.705 1.486 2.791.349.721 5.293 9.017 42.681 9.017h12.797c1.132 0 2.217.45 3.017 1.25.799.8 1.249 1.885 1.249 3.016v8.531c0 3.394-1.348 6.649-3.748 9.049s-5.655 3.748-9.049 3.748z"/><path d="m179.156 132.234h-8.531v-12.796c0-9.051-3.595-17.731-9.995-24.1305-6.4-6.3997-15.079-9.995-24.13-9.995s-17.73 3.5953-24.13 9.995c-6.4 6.3995-9.995 15.0795-9.995 24.1305v12.796h-8.5312v-12.796c0-11.314 4.4941-22.1634 12.4932-30.163 8-7.9996 18.85-12.4937 30.163-12.4938 11.313 0 22.163 4.4942 30.163 12.4938 7.999 7.9996 12.493 18.849 12.493 30.163z"/><path d="m200.484 273h-127.9684c-1.1313 0-2.2163-.449-3.0162-1.249-.8-.8-1.2494-1.885-1.2494-3.017.1626-21.996 3.0846-43.884 8.6976-65.153.215-.753.6332-1.432 1.2089-1.964.5756-.531 1.2863-.893 2.0543-1.047l39.2272-7.845v-13.569h8.531v17.063c0 .983-.34 1.936-.961 2.698-.622.762-1.488 1.285-2.452 1.482l-40.0454 8.011c-4.5612 18.357-7.1368 37.151-7.6824 56.059h119.3438c-.544-18.908-3.119-37.702-7.678-56.059l-40.05-8.011c-.964-.197-1.83-.72-2.452-1.482-.621-.762-.961-1.715-.961-2.698v-17.063h8.531v13.569l39.244 7.845c.768.154 1.479.516 2.055 1.047.575.532.993 1.211 1.208 1.964 5.608 21.269 8.524 43.158 8.681 65.153 0 1.132-.449 2.217-1.249 3.017s-1.885 1.249-3.017 1.249z"/><path d="m136.5 213.281c-1.131 0-2.216-.45-3.016-1.25l-12.797-12.797 6.032-6.031 9.781 9.781 9.781-9.781 6.032 6.031-12.797 12.797c-.8.8-1.885 1.25-3.016 1.25z"/><path d="m145.031 221.812c-1.131 0-2.216-.449-3.016-1.249l-5.515-5.516-5.515 5.516c-.8.799-1.885 1.249-3.016 1.249s-2.216-.45-3.016-1.249l-12.797-12.797c-.8-.8-1.25-1.885-1.25-3.016v-8.531h8.532v6.765l8.531 8.531 5.515-5.515c.8-.8 1.885-1.249 3.016-1.249s2.216.449 3.016 1.249l5.515 5.515 8.531-8.531v-6.765h8.532v8.531c0 1.131-.45 2.216-1.25 3.016l-12.797 12.797c-.8.8-1.885 1.249-3.016 1.249z"/><path d="m136.5 260.203c-.349 0-.698-.043-1.037-.128l-34.125-8.531c-.663-.166-1.276-.489-1.7883-.942-.5122-.452-.9081-1.021-1.1543-1.659-.2463-.638-.3357-1.325-.2608-2.005.0749-.679.3121-1.331.6914-1.899l5.852-8.775-4.21-2.103c-.7088-.354-1.3051-.899-1.7218-1.573s-.6372-1.452-.6368-2.244v-29.86h8.5316v27.224l6.172 3.084c.542.27 1.019.653 1.402 1.122.382.469.66 1.014.815 1.599.156.585.185 1.197.086 1.794s-.325 1.166-.661 1.67l-5.174 7.759 16.299 4.074c-7.569-13.456-12.535-28.216-14.64-43.51l8.463-1.058c.043.325 4.304 32.893 20.113 48.701.589.598.989 1.356 1.149 2.179.16.824.074 1.677-.248 2.452s-.865 1.438-1.562 1.905c-.697.468-1.516.72-2.355.724z"/><path d="m136.5 260.203c-.844 0-1.668-.25-2.369-.719-.702-.469-1.248-1.135-1.571-1.914-.323-.78-.407-1.637-.243-2.464.165-.828.571-1.588 1.167-2.184 15.813-15.809 20.079-48.377 20.113-48.701l8.463 1.058c-2.105 15.294-7.071 30.054-14.64 43.509l16.299-4.073-5.174-7.76c-.336-.503-.562-1.072-.661-1.669s-.07-1.209.086-1.794c.155-.585.433-1.13.815-1.599.383-.47.86-.852 1.402-1.123l6.172-3.062v-27.224h8.532v29.86c.004.796-.215 1.578-.632 2.256-.416.679-1.015 1.227-1.727 1.583l-4.21 2.103 5.852 8.774c.379.569.616 1.22.691 1.9.075.679-.014 1.367-.26 2.004-.247.638-.643 1.207-1.155 1.66-.512.452-1.125.775-1.788.941l-34.125 8.531c-.34.078-.688.113-1.037.107z"/><path d="m132.234 209.016h8.532v59.718h-8.532z"/><path d="m217.547 93.8436h-17.063c-1.131 0-2.216-.4494-3.016-1.2494s-1.249-1.8849-1.249-3.0162v-12.7969c0-.5759 0-2.103-2.79-3.34-8.04-3.5721-14.61-9.7976-18.609-17.6345s-5.185-16.8096-3.359-25.4164c1.826-8.6067 6.552-16.3252 13.389-21.86352 6.836-5.53831 15.367-8.5603714 24.166-8.5603714 8.798 0 17.329 3.0220614 24.166 8.5603714 6.836 5.53832 11.563 13.25682 13.389 21.86352 1.825 8.6068.639 17.5795-3.36 25.4164s-10.568 14.0624-18.609 17.6345c-2.789 1.2413-2.789 2.7641-2.789 3.34v12.7969c0 1.1313-.45 2.2162-1.25 3.0162s-1.885 1.2494-3.016 1.2494zm-12.797-8.5313h8.531v-8.5312c.038-2.4313.808-4.7948 2.21-6.7817 1.401-1.987 3.37-3.505 5.648-4.3559 6.254-2.7779 11.364-7.6197 14.475-13.7151s4.033-13.0743 2.613-19.7687c-1.419-6.6944-5.096-12.6979-10.413-17.0057s-11.953-6.65847-18.796-6.65847-13.479 2.35067-18.796 6.65847c-5.318 4.3078-8.994 10.3113-10.414 17.0057s-.497 13.6733 2.614 19.7687 8.221 10.9372 14.475 13.7151c2.277.8516 4.245 2.3699 5.645 4.3568 1.401 1.9868 2.171 4.35 2.208 6.7808z"/><path d="m200.484 72.5156h17.063v8.5313h-17.063z"/><path d="m213.281 76.7812h-8.531v-34.125c0-1.1313.449-2.2162 1.249-3.0162s1.885-1.2494 3.017-1.2494h8.531v-8.5312h8.531v12.7968c0 1.1314-.449 2.2163-1.249 3.0163s-1.885 1.2494-3.017 1.2494h-8.531z"/><path d="m209.016 46.9219h-12.797c-1.132 0-2.217-.4494-3.017-1.2494-.799-.8-1.249-1.8849-1.249-3.0163v-12.7968h8.531v8.5312h8.532z"/><path d="m251.672 34.125h17.062v8.5312h-17.062z"/><path d="m248.628 26.8672 12.798-12.798 6.033 6.0325-12.798 12.798z"/><path d="m248.624 49.9609 6.032-6.0325 12.798 12.798-6.032 6.0325z"/><path d="m149.297 34.125h17.062v8.5312h-17.062z"/><path d="m150.527 20.0928 6.033-6.0325 12.798 12.7979-6.033 6.0325z"/><path d="m150.527 56.7139 12.798-12.798 6.033 6.0325-12.798 12.798z"/><path d="m106.641 187.688h-102.37538c-1.13131 0-2.21629-.45-3.01625-1.25-.799957-.8-1.24937-1.885-1.24937-3.016v-89.5782h8.53125v85.3122h98.10975z"/><path d="m38.3906 187.688h-17.0625c-1.1313 0-2.2163-.45-3.0162-1.25-.8-.8-1.2494-1.885-1.2494-3.016v-59.719c0-1.131.4494-2.216 1.2494-3.016.7999-.8 1.8849-1.249 3.0162-1.249h17.0625c1.1313 0 2.2163.449 3.0163 1.249.7999.8 1.2493 1.885 1.2493 3.016v59.719c0 1.131-.4494 2.216-1.2493 3.016-.8.8-1.885 1.25-3.0163 1.25zm-12.7968-8.532h8.5312v-51.187h-8.5312z"/><path d="m72.5156 187.688h-17.0625c-1.1313 0-2.2163-.45-3.0162-1.25-.8-.8-1.2494-1.885-1.2494-3.016v-85.3126c0-1.1313.4494-2.2163 1.2494-3.0163.7999-.7999 1.8849-1.2493 3.0162-1.2493h17.0625c1.1313 0 2.2163.4494 3.0163 1.2493.7999.8 1.2493 1.885 1.2493 3.0163v85.3126c0 1.131-.4494 2.216-1.2493 3.016-.8.8-1.885 1.25-3.0163 1.25zm-12.7968-8.532h8.5312v-76.781h-8.5312z"/><path d="m90.828 92.594-26.8436-26.8436-18.3124 18.3123c-.7999.7997-1.8847 1.249-3.0158 1.249-1.131 0-2.2158-.4493-3.0157-1.249l-31.10925-31.1092v15.2966h-8.53125v-25.5938c.00018011-.8435.250452-1.668.719177-2.3694.468723-.7013 1.134863-1.2479 1.914183-1.5706.77933-.3228 1.63687-.4073 2.4642-.2428s1.58731.5706 2.18386 1.167l35.37478 35.3749 18.3124-18.3124c.7999-.7997 1.8847-1.2489 3.0158-1.2489s2.2158.4492 3.0158 1.2489l29.8593 29.8594z"/><path d="m4.26562 38.3906h25.59378v8.5313h-25.59378z"/><path d="m0 76.7812h8.53125v8.5313h-8.53125z"/><path d="m221.812 238.875c-9.65.004-19.104-2.723-27.27-7.866l4.548-7.221c8.005 5.039 17.459 7.274 26.874 6.353s18.257-4.945 25.135-11.44 11.402-15.091 12.86-24.438-.232-18.913-4.805-27.195c-4.572-8.281-11.768-14.807-20.455-18.552s-18.373-4.496-27.533-2.135-17.276 7.7-23.071 15.178c-5.794 7.477-8.939 16.669-8.939 26.129.005 4.347.66 8.669 1.945 12.822l-8.156 2.508c-1.533-4.966-2.315-10.133-2.32-15.33 0-10.124 3.002-20.021 8.627-28.439 5.624-8.417 13.619-14.978 22.972-18.853 9.353-3.874 19.645-4.888 29.575-2.912 9.929 1.975 19.05 6.85 26.209 14.008 7.158 7.159 12.033 16.28 14.008 26.209 1.976 9.93.962 20.222-2.912 29.575-3.875 9.353-10.436 17.348-18.853 22.972-8.418 5.625-18.315 8.627-28.439 8.627z"/><path d="m252.922 224.828-34.125-34.125c-.8-.799-1.25-1.884-1.25-3.015v-46.922h8.531v45.156l32.875 32.875z"/><path d="m221.812 183.422h46.922v8.531h-46.922z"/><path d="m34.125 213.281h8.5312v25.594h-8.5312z"/><path d="m25.5938 221.812h25.5937v8.532h-25.5937z"/><path d="m238.875 98.1094h8.531v25.5936h-8.531z"/><path d="m230.344 106.641h25.594v8.531h-25.594z"/><path d="m93.8438 21.3281h8.5312v25.5938h-8.5312z"/><path d="m85.3125 29.8594h25.5935v8.5312h-25.5935z"/></g></g></svg>