<svg width="294" height="294" viewBox="0 0 294 294" fill="none" xmlns="http://www.w3.org/2000/svg">
<path d="M153.11 206.138H16.8987C9.94432 206.138 4.30664 200.501 4.30664 193.546V177.698C4.30664 170.744 9.94432 165.106 16.8987 165.106H153.11C160.065 165.106 165.702 170.744 165.702 177.698V193.546C165.702 200.501 160.065 206.138 153.11 206.138Z" fill="#F1E64C"/>
<path d="M43.1049 206.14H16.9033C9.9449 206.14 4.30664 200.502 4.30664 193.55V177.698C4.30664 170.746 9.94547 165.108 16.9033 165.108H43.1049C36.1528 165.108 30.5146 170.747 30.5146 177.698V193.55C30.5146 200.502 36.1534 206.14 43.1049 206.14Z" fill="#FFC250"/>
<path d="M165.703 183.538V193.552C165.703 200.506 160.064 206.139 153.11 206.139H16.8998C9.94602 206.139 4.30719 200.506 4.30719 193.552V183.538C4.30719 190.491 9.94602 196.13 16.8998 196.13H153.11C160.064 196.13 165.703 190.491 165.703 183.538Z" fill="#FFC250"/>
<path d="M176.446 165.107H40.2338C33.2794 165.107 27.6417 159.47 27.6417 152.515V136.667C27.6417 129.712 33.2794 124.075 40.2338 124.075H176.446C183.4 124.075 189.038 129.712 189.038 136.667V152.515C189.038 159.47 183.4 165.107 176.446 165.107Z" fill="#F1E64C"/>
<path d="M66.4406 165.109H40.239C33.2806 165.109 27.6423 159.47 27.6423 152.519V136.667C27.6423 129.715 33.2812 124.077 40.239 124.077H66.4406C59.4885 124.077 53.8503 129.715 53.8503 136.667V152.519C53.8503 159.471 59.4885 165.109 66.4406 165.109Z" fill="#FFC250"/>
<path d="M189.039 142.506V152.52C189.039 159.474 183.4 165.107 176.446 165.107H40.2355C33.2817 165.107 27.6429 159.474 27.6429 152.52V142.506C27.6429 149.46 33.2817 155.098 40.2355 155.098H176.446C183.4 155.098 189.039 149.46 189.039 142.506Z" fill="#FFC250"/>
<path d="M160.036 124.075H23.8249C16.8705 124.075 11.2328 118.437 11.2328 111.483V95.6345C11.2328 88.6802 16.8705 83.0425 23.8249 83.0425H160.036C166.991 83.0425 172.628 88.6802 172.628 95.6345V111.483C172.628 118.437 166.991 124.075 160.036 124.075Z" fill="#F1E64C"/>
<path d="M50.0317 124.077H23.8301C16.8717 124.077 11.2335 118.438 11.2335 111.487V95.6348C11.2335 88.6827 16.8723 83.0444 23.8301 83.0444H50.0317C43.0796 83.0444 37.4414 88.6833 37.4414 95.6348V111.487C37.4408 118.438 43.0796 124.077 50.0317 124.077Z" fill="#FFC250"/>
<path d="M172.629 101.474V111.488C172.629 118.442 166.99 124.075 160.037 124.075H23.8261C16.8723 124.075 11.2335 118.442 11.2335 111.488V101.474C11.2335 108.427 16.8723 114.066 23.8261 114.066H160.037C166.99 114.066 172.629 108.427 172.629 101.474Z" fill="#FFC250"/>
<path d="M164.595 247.171H28.3831C21.4287 247.171 15.791 241.534 15.791 234.579V218.731C15.791 211.776 21.4287 206.139 28.3831 206.139H164.595C171.549 206.139 177.187 211.776 177.187 218.731V234.579C177.187 241.534 171.549 247.171 164.595 247.171Z" fill="#F1E64C"/>
<path d="M177.187 224.57V234.584C177.187 241.538 171.548 247.171 164.595 247.171H28.3842C21.4304 247.171 15.7916 241.538 15.7916 234.584V224.57C15.7916 231.524 21.4304 237.162 28.3842 237.162H164.595C171.548 237.162 177.187 231.524 177.187 224.57Z" fill="#FFC250"/>
<path d="M54.5893 247.173H28.3877C21.4293 247.173 15.791 241.534 15.791 234.583V218.731C15.791 211.779 21.4298 206.141 28.3877 206.141H54.5893C47.6372 206.141 41.9989 211.779 41.9989 218.731V234.583C41.9989 241.534 47.6378 247.173 54.5893 247.173Z" fill="#FFC250"/>
<path d="M155.981 288.204H19.7698C12.8154 288.204 7.17773 282.566 7.17773 275.612V259.763C7.17773 252.809 12.8154 247.171 19.7698 247.171H155.981C162.936 247.171 168.573 252.809 168.573 259.763V275.612C168.573 282.566 162.936 288.204 155.981 288.204Z" fill="#F1E64C"/>
<path d="M168.574 265.603V275.617C168.574 282.571 162.935 288.204 155.981 288.204H19.7709C12.8171 288.204 7.17828 282.571 7.17828 275.617V265.603C7.17828 272.556 12.8171 278.195 19.7709 278.195H155.981C162.935 278.195 168.574 272.556 168.574 265.603Z" fill="#FFC250"/>
<path d="M45.976 288.205H19.7744C12.816 288.205 7.17773 282.567 7.17773 275.615V259.763C7.17773 252.811 12.8166 247.173 19.7744 247.173H45.976C39.0239 247.173 33.3857 252.812 33.3857 259.763V275.615C33.3857 282.567 39.0245 288.205 45.976 288.205Z" fill="#FFC250"/>
<path d="M208.996 288.205C253.564 288.205 289.693 252.076 289.693 207.507C289.693 162.939 253.564 126.81 208.996 126.81C164.427 126.81 128.298 162.939 128.298 207.507C128.298 252.076 164.427 288.205 208.996 288.205Z" fill="#F1E64C"/>
<path d="M215.82 287.917C213.573 288.111 211.295 288.204 208.994 288.204C164.425 288.204 128.298 252.077 128.298 207.508C128.298 162.938 164.425 126.811 208.994 126.811C211.296 126.811 213.573 126.904 215.82 127.099C174.438 130.558 141.941 165.231 141.941 207.508C141.941 249.784 174.438 284.457 215.82 287.917Z" fill="#FFC250"/>
<path d="M208.995 261.999C239.09 261.999 263.487 237.602 263.487 207.507C263.487 177.412 239.09 153.016 208.995 153.016C178.901 153.016 154.504 177.412 154.504 207.507C154.504 237.602 178.901 261.999 208.995 261.999Z" fill="#FFC250"/>
<path d="M113.332 178.016V111.582H124.688C138.475 111.582 147.092 96.6564 140.198 84.7173L103.8 21.6818C96.9069 9.74381 79.6757 9.74324 72.7816 21.6812L36.3802 84.7161C29.4855 96.6559 38.1017 111.582 51.8892 111.582H63.2507V178.016C63.2507 184.241 68.2964 189.287 74.5209 189.287H102.062C108.287 189.287 113.332 184.24 113.332 178.016Z" fill="#95D6A4"/>
<path d="M84.8896 189.288H74.5198C68.2975 189.288 63.2536 184.244 63.2536 178.022V111.58H51.8881C38.1005 111.58 29.4832 96.6573 36.383 84.7153L72.7788 21.6815C76.2258 15.7137 82.2574 12.7329 88.2895 12.7329C84.2488 12.7329 80.208 15.7137 77.9025 21.6815L53.5183 84.7153C48.8953 96.6573 54.6713 111.58 63.9053 111.58H68.5743C73.4138 111.58 77.3375 115.504 77.3375 120.343V178.015C77.3375 184.24 80.7208 189.288 84.8896 189.288Z" fill="#78C2A4"/>
<path d="M214.37 94.6788L214.04 93.4494C212.878 89.114 215.272 84.619 219.517 83.1634L232.578 78.6856C237.255 77.0818 242.313 79.7755 243.593 84.5518L244.411 87.6061C245.691 92.3825 242.657 97.2444 237.805 98.1941L224.256 100.846C219.852 101.709 215.531 99.0141 214.37 94.6788Z" fill="#F7F493"/>
<path d="M193.507 57.8847L192.607 56.9849C189.433 53.8112 189.258 48.7219 192.208 45.3386L201.279 34.9309C204.529 31.2031 210.255 31.0067 213.752 34.5037L215.988 36.7397C219.485 40.2367 219.288 45.9634 215.561 49.2123L205.153 58.2838C201.77 61.233 196.681 61.0584 193.507 57.8847Z" fill="#F7F493"/>
<path d="M157.042 36.4513L155.813 36.1217C151.477 34.9601 148.781 30.6396 149.644 26.2348L152.296 12.6861C153.246 7.83282 158.108 4.7998 162.884 6.07973L165.938 6.89799C170.715 8.17792 173.408 13.2356 171.805 17.9132L167.327 30.9733C165.872 35.2196 161.378 37.613 157.042 36.4513Z" fill="#F7F493"/>
<path d="M270.881 149.234C269.251 147.502 266.525 147.422 264.794 149.052C263.062 150.683 262.981 153.409 264.612 155.14C278.009 169.362 285.387 187.96 285.387 207.507C285.387 249.631 251.116 283.901 208.993 283.901C166.872 283.901 132.604 249.631 132.604 207.507C132.604 165.386 166.872 131.119 208.993 131.119C224.544 131.119 239.505 135.763 252.257 144.548C254.216 145.896 256.898 145.403 258.247 143.444C259.597 141.486 259.102 138.804 257.144 137.455C242.948 127.675 226.297 122.506 208.993 122.506C201.983 122.506 195.17 123.365 188.649 124.972C185.493 121.67 181.119 119.768 176.447 119.768H174.755C176.139 117.317 176.934 114.491 176.934 111.482V95.6333C176.934 86.3148 169.353 78.734 160.035 78.734H141.714L107.531 19.5297C103.512 12.5731 96.3183 8.4209 88.2856 8.4209C88.2844 8.4209 88.2821 8.4209 88.281 8.4209C80.2534 8.42262 73.0647 12.5736 69.0527 19.5246L34.8637 78.734H23.8243C14.5059 78.734 6.92508 86.3148 6.92508 95.6333V111.482C6.92508 120.8 14.5059 128.381 23.8243 128.381H25.5154C24.131 130.831 23.3362 133.657 23.3362 136.667V152.515C23.3362 155.525 24.131 158.351 25.5154 160.801H16.8993C7.58084 160.801 0 168.38 0 177.695V193.543C0 201.813 5.9713 208.708 13.8278 210.158C12.3411 212.673 11.4844 215.602 11.4844 218.729V234.578C11.4844 237.979 12.4979 241.146 14.2337 243.8C7.62735 246.098 2.87109 252.384 2.87109 259.763V275.611C2.87109 284.93 10.4519 292.51 19.7704 292.51H155.981C162.378 292.51 168.062 288.887 170.921 283.496C182.381 289.262 195.314 292.514 208.993 292.514C255.866 292.514 294 254.381 294 207.507C294 185.755 285.79 165.06 270.881 149.234ZM20.0977 234.578V218.729C20.0977 214.16 23.8146 210.443 28.3836 210.443H124.047C124.441 221.975 127.14 232.931 131.701 242.864H28.3836C23.8146 242.864 20.0977 239.147 20.0977 234.578ZM177.691 128.479C161.389 134.958 147.554 146.344 138.009 160.802H117.64V128.382H160.035H176.446C176.867 128.382 177.283 128.417 177.691 128.479ZM168.321 95.6338V111.482C168.321 116.051 164.604 119.768 160.035 119.768H117.64V115.891H124.686C132.719 115.891 139.911 111.737 143.927 104.778C147.055 99.3599 147.734 93.1256 145.989 87.3473H160.035C164.604 87.3479 168.321 91.0648 168.321 95.6338ZM15.5384 111.482V95.6338C15.5384 91.0648 19.2553 87.3479 23.8243 87.3479H30.5852C29.5028 90.9557 29.3529 94.7817 30.189 98.4911C30.7115 100.812 33.017 102.269 35.3368 101.746C37.6573 101.223 39.1146 98.9178 38.5915 96.5979C38.0673 94.2706 37.9053 90.6938 40.1121 86.8701L76.5124 23.8318C78.9683 19.5768 83.3685 17.0359 88.2833 17.0348H88.2856C93.2049 17.0348 97.6114 19.578 100.072 23.8381L136.467 86.8707C138.926 91.1279 138.926 96.2132 136.468 100.473C134.008 104.733 129.604 107.277 124.686 107.277H113.334C110.955 107.277 109.027 109.205 109.027 111.584V178.015C109.027 181.856 105.903 184.981 102.062 184.981H74.5221C70.6817 184.981 67.5568 181.856 67.5568 178.015V111.584C67.5568 109.205 65.6286 107.277 63.2502 107.277H51.8922C50.2562 107.277 48.6782 107.005 47.2025 106.469C44.9659 105.655 42.4962 106.809 41.6837 109.044C40.8706 111.28 42.0236 113.75 44.2591 114.563C46.6811 115.444 49.249 115.891 51.8922 115.891H58.9436V119.768H40.2355H23.8243C19.2553 119.768 15.5384 116.051 15.5384 111.482ZM31.9495 152.516V136.668C31.9495 132.098 35.6664 128.382 40.2355 128.382H58.9436V160.802H40.2355C35.6664 160.802 31.9495 157.085 31.9495 152.516ZM8.61328 193.544V177.695C8.61328 173.13 12.3302 169.415 16.8993 169.415H40.2355H58.9436V178.015C58.9436 186.605 65.9318 193.594 74.5221 193.594H102.062C110.651 193.594 117.64 186.606 117.64 178.015V169.415H133.019C128.053 179.282 124.953 190.242 124.185 201.83H28.3836H16.8993C12.3302 201.83 8.61328 198.113 8.61328 193.544ZM155.981 283.897H19.7704C15.2013 283.897 11.4844 280.18 11.4844 275.611V259.763C11.4844 255.194 15.2013 251.477 19.7704 251.477H28.3836H136.269C143.068 262.682 152.383 272.197 163.423 279.237C162.068 282.01 159.213 283.897 155.981 283.897Z" fill="black"/>
<path d="M217.496 203.038C215.972 202.594 214.411 202.128 212.855 201.641V182.558C217.479 183.241 220.241 185.188 220.449 185.34C222.342 186.754 225.025 186.379 226.456 184.495C227.895 182.6 227.526 179.899 225.632 178.46C225.354 178.25 220.595 174.723 212.855 173.891V170.171C212.855 167.792 210.928 165.864 208.549 165.864C206.17 165.864 204.242 167.792 204.242 170.171V174.167C203.411 174.308 202.563 174.483 201.695 174.698C194.434 176.499 189.014 182.039 187.885 188.811C186.933 194.523 189.263 199.959 193.967 202.997C196.553 204.668 199.789 206.2 204.242 207.826V231.998C199.771 231.809 196.816 231.056 191.952 228.436C189.857 227.307 187.245 228.091 186.118 230.185C184.99 232.278 185.772 234.891 187.867 236.019C194.296 239.483 198.459 240.412 204.243 240.616V244.845C204.243 247.224 206.17 249.152 208.549 249.152C210.928 249.152 212.856 247.224 212.856 244.845V240.336C224.201 238.642 231.115 230.587 232.226 222.644C233.475 213.702 227.693 206.007 217.496 203.038ZM198.64 195.761C196.047 194.087 196.197 191.333 196.381 190.226C196.83 187.535 199.006 184.239 203.768 183.058C203.928 183.018 204.084 182.985 204.242 182.949V198.585C202.106 197.697 200.181 196.757 198.64 195.761ZM223.694 221.452C223.089 225.778 219.251 230.158 212.855 231.573V210.648C213.578 210.865 214.318 211.085 215.088 211.309C221.21 213.09 224.346 216.787 223.694 221.452Z" fill="black"/>
<path d="M208.996 148.709C176.574 148.709 150.198 175.086 150.198 207.508C150.198 239.929 176.574 266.305 208.996 266.305C241.417 266.305 267.793 239.929 267.793 207.507C267.793 175.086 241.417 148.709 208.996 148.709ZM208.996 257.692C181.324 257.692 158.811 235.179 158.811 207.507C158.811 179.835 181.324 157.322 208.996 157.322C236.667 157.322 259.18 179.835 259.18 207.507C259.18 235.179 236.667 257.692 208.996 257.692Z" fill="black"/>
<path d="M209.88 94.5637L210.209 95.7931C210.209 95.7931 210.209 95.7937 210.209 95.7937C211.733 101.481 216.93 105.313 222.629 105.313C223.439 105.313 224.261 105.235 225.083 105.074L238.632 102.421C242.112 101.74 245.185 99.6237 247.062 96.6154C248.939 93.6071 249.489 89.9171 248.571 86.4925L247.753 83.4371C246.835 80.0118 244.513 77.0914 241.384 75.425C238.253 73.758 234.535 73.4623 231.18 74.6119L218.121 79.0891C211.759 81.2711 208.139 88.0681 209.88 94.5637ZM220.915 87.2378L233.975 82.7606C235.095 82.3759 236.289 82.4712 237.336 83.0282C238.382 83.5852 239.127 84.5229 239.434 85.6673L240.252 88.7227C240.559 89.8672 240.382 91.0512 239.755 92.0572C239.127 93.0633 238.141 93.742 236.978 93.97L223.429 96.6223C221.248 97.0478 219.103 95.7052 218.53 93.5657L218.2 92.3357C217.627 90.195 218.819 87.9562 220.915 87.2378Z" fill="black"/>
<path d="M190.461 60.9303C192.951 63.4201 196.246 64.6782 199.549 64.6782C202.555 64.6782 205.567 63.6354 207.983 61.5303L218.39 52.4588C221.063 50.1292 222.666 46.7603 222.788 43.2162C222.909 39.6721 221.541 36.2015 219.033 33.6945L216.797 31.4579C214.29 28.9509 210.821 27.5785 207.275 27.7037C203.731 27.8248 200.362 29.4281 198.033 32.101L188.96 42.5088C184.542 47.5785 184.806 55.2748 189.561 60.0305L190.461 60.9303ZM195.454 48.1683L204.526 37.7605C205.304 36.8671 206.386 36.3526 207.571 36.3124C207.621 36.3106 207.671 36.3095 207.721 36.3095C208.85 36.3095 209.905 36.7465 210.707 37.5487L212.944 39.7852C213.782 40.623 214.221 41.737 214.18 42.9216C214.14 44.1062 213.625 45.1875 212.732 45.9661L202.324 55.0376C200.655 56.4927 198.119 56.406 196.552 54.8395L195.653 53.9403C194.086 52.3733 193.999 49.8381 195.454 48.1683Z" fill="black"/>
<path d="M154.699 40.2827L155.927 40.6117C157.028 40.9063 158.136 41.0476 159.23 41.0476C164.593 41.0476 169.59 37.6551 171.401 32.3705L175.879 19.3111C177.029 15.9565 176.732 12.2379 175.066 9.10779C173.399 5.9783 170.478 3.65673 167.053 2.73913L163.999 1.92087C160.573 1.00269 156.884 1.5528 153.875 3.43049C150.867 5.30761 148.751 8.38026 148.07 11.86L145.417 25.4093C144.126 32.0082 148.203 38.5417 154.699 40.2827ZM153.871 27.063L156.523 13.5143C156.75 12.3516 157.43 11.365 158.435 10.738C159.118 10.3119 159.883 10.0937 160.664 10.0937C161.032 10.0937 161.403 10.1425 161.77 10.2407L164.824 11.059C165.969 11.3656 166.906 12.111 167.463 13.1566C168.021 14.2028 168.116 15.3966 167.732 16.5181L163.254 29.5775C162.536 31.6729 160.298 32.8644 158.157 32.2924C158.157 32.2924 158.157 32.2924 158.157 32.2924L156.928 31.9634C154.788 31.3892 153.445 29.237 153.871 27.063Z" fill="black"/>
</svg>
