<svg width="273" height="273" viewBox="0 0 273 273" fill="none" xmlns="http://www.w3.org/2000/svg">
<g clip-path="url(#clip0_11_173)">
<path d="M200.484 268.734H136.5V255.938L170.625 247.406L162.094 234.609L170.625 230.344V200.484L191.953 204.75C191.953 204.75 192.55 206.798 193.403 210.423C195.94 221.205 197.82 232.131 199.034 243.141C199.973 251.64 200.457 260.183 200.484 268.734Z" fill="#3D5C9E"/>
<path d="M179.156 132.234V140.766C179.149 143.026 178.249 145.192 176.65 146.791C175.052 148.389 172.886 149.29 170.625 149.297H166.359V132.234H179.156Z" fill="#E09380"/>
<path d="M174.891 119.438V132.234H166.359C119.438 132.234 119.438 119.438 119.438 119.438C119.474 121.128 119.167 122.808 118.537 124.377C117.907 125.946 116.965 127.371 115.77 128.567C114.574 129.762 113.149 130.703 111.58 131.334C110.011 131.964 108.331 132.27 106.641 132.234H98.1094V119.438C98.1094 109.256 102.154 99.4909 109.354 92.2912C116.553 85.0916 126.318 81.0469 136.5 81.0469C146.682 81.0469 156.447 85.0916 163.646 92.2912C170.846 99.4909 174.891 109.256 174.891 119.438Z" fill="#966857"/>
<path d="M119.438 110.906C119.474 112.597 119.167 114.277 118.537 115.846C117.907 117.415 116.965 118.84 115.77 120.035C114.574 121.231 113.149 122.172 111.58 122.802C110.011 123.433 108.331 123.739 106.641 123.703H98.1094V132.234H106.641C108.331 132.27 110.011 131.964 111.58 131.334C113.149 130.703 114.574 129.762 115.77 128.567C116.965 127.371 117.907 125.946 118.537 124.377C119.167 122.808 119.474 121.128 119.438 119.438C119.438 119.438 119.438 132.234 166.359 132.234H174.891V123.703H166.359C119.438 123.703 119.438 110.906 119.438 110.906Z" fill="#8D5C4D"/>
<path d="M170.625 200.484V230.344L162.094 234.609L170.625 247.406L136.5 255.937C153.562 238.875 157.828 204.75 157.828 204.75V197.925L170.625 200.484Z" fill="#7EA8C2"/>
<path d="M149.297 180.521C143.73 183.154 137.486 184.006 131.417 182.96C125.348 181.914 119.75 179.022 115.385 174.677C112.605 171.91 110.4 168.62 108.899 164.995C107.398 161.371 106.631 157.485 106.641 153.562V132.234C108.331 132.27 110.011 131.964 111.58 131.334C113.149 130.703 114.574 129.762 115.77 128.567C116.965 127.371 117.907 125.946 118.537 124.377C119.167 122.808 119.474 121.128 119.437 119.438C119.437 119.438 119.437 132.234 166.359 132.234V153.562C166.371 159.213 164.772 164.75 161.75 169.524C158.729 174.299 154.409 178.114 149.297 180.521ZM149.297 153.562H123.703C123.703 156.956 125.051 160.211 127.451 162.611C129.851 165.011 133.106 166.359 136.5 166.359C139.894 166.359 143.149 165.011 145.549 162.611C147.949 160.211 149.297 156.956 149.297 153.562Z" fill="#FFBEAA"/>
<path d="M157.828 197.925V204.75L145.031 217.547L136.5 209.016L149.297 196.219L157.828 197.925Z" fill="#ACAEAF"/>
<path d="M145.031 217.547L157.828 204.75C157.828 204.75 153.562 238.875 136.5 255.938V209.016L145.031 217.547Z" fill="#F4F4F4"/>
<path d="M149.297 180.521V196.218L136.5 209.015L123.703 196.218V180.521C127.699 182.43 132.071 183.421 136.5 183.421C140.929 183.421 145.301 182.43 149.297 180.521Z" fill="#E09380"/>
<path d="M123.703 153.562H149.297C149.297 156.956 147.949 160.211 145.549 162.611C143.149 165.011 139.894 166.359 136.5 166.359C133.106 166.359 129.851 165.011 127.451 162.611C125.051 160.211 123.703 156.956 123.703 153.562Z" fill="#FF475A"/>
<path d="M136.5 153.562H123.703C123.715 155.815 124.326 158.023 125.473 159.961C126.586 158.019 128.191 156.404 130.127 155.281C132.063 154.157 134.262 153.564 136.5 153.562Z" fill="#D1093A"/>
<path d="M147.527 159.961C148.674 158.023 149.285 155.815 149.297 153.562H136.5C138.738 153.564 140.937 154.157 142.873 155.281C144.809 156.404 146.414 158.019 147.527 159.961Z" fill="#D1093A"/>
<path d="M136.5 255.938V268.734H72.5156C72.543 260.183 73.0271 251.64 73.9659 243.141C75.1801 232.131 77.0604 221.205 79.5966 210.423C80.4497 206.798 81.0469 204.75 81.0469 204.75L102.375 200.484V230.344L110.906 234.609L102.375 247.406L136.5 255.938Z" fill="#314A66"/>
<path d="M136.5 209.016V255.938C119.438 238.875 115.172 204.75 115.172 204.75L127.969 217.547L136.5 209.016Z" fill="#CFD9DC"/>
<path d="M136.5 209.016L127.969 217.547L115.172 204.75V197.925L123.703 196.219L136.5 209.016Z" fill="#ACAEAF"/>
<path d="M136.5 255.937L102.375 247.406L110.906 234.609L102.375 230.344V200.484L115.172 197.925V204.75C115.172 204.75 119.438 238.875 136.5 255.937Z" fill="#7EA8C2"/>
<path d="M106.641 132.234V149.297H102.375C100.114 149.29 97.9484 148.389 96.3499 146.791C94.7515 145.192 93.8505 143.026 93.8438 140.766V132.234H106.641Z" fill="#E09380"/>
<path d="M21.3281 123.703H38.3906V183.422H21.3281V123.703Z" fill="#06CCAB"/>
<path d="M29.8594 166.359V123.703H21.3281V183.422H38.3906V174.891C36.128 174.891 33.958 173.992 32.3581 172.392C30.7582 170.792 29.8594 168.622 29.8594 166.359Z" fill="#00BD9D"/>
<path d="M55.4531 98.1094H72.5156V183.422H55.4531V98.1094Z" fill="#54ADDD"/>
<path d="M63.9844 166.359V98.1094H55.4531V183.422H72.5156V174.891C70.253 174.891 68.083 173.992 66.4831 172.392C64.8832 170.792 63.9844 168.622 63.9844 166.359Z" fill="#7099CF"/>
<path d="M200.484 76.7812H217.547V89.5781H200.484V76.7812Z" fill="#966857"/>
<path d="M200.484 76.7812H209.016V89.5781H200.484V76.7812Z" fill="#8D5C4D"/>
<path d="M243.141 38.3902C243.145 44.9859 241.232 51.4406 237.634 56.969C234.037 62.4973 228.911 66.8611 222.879 69.5293C221.357 70.0504 220.031 71.0243 219.078 72.3203C218.125 73.6164 217.591 75.1727 217.547 76.7809H200.484C200.441 75.1727 199.907 73.6164 198.954 72.3203C198.001 71.0243 196.674 70.0504 195.152 69.5293C189.538 67.0332 184.702 63.0675 181.154 58.0508C177.606 53.0342 175.479 47.1528 174.996 41.0274C174.513 34.9021 175.694 28.7601 178.412 23.2498C181.13 17.7395 185.286 13.0653 190.44 9.72076C195.595 6.3762 201.556 4.48531 207.696 4.2477C213.836 4.01009 219.926 5.43458 225.323 8.37079C230.72 11.307 235.225 15.646 238.361 20.9297C241.497 26.2135 243.148 32.2459 243.141 38.3902Z" fill="#FFD03E"/>
<path d="M203.684 69.5295C197.076 66.5994 191.57 61.6453 187.96 55.3822C184.351 49.1192 182.826 41.8712 183.604 34.6848C184.383 27.4983 187.425 20.7452 192.291 15.4002C197.158 10.0552 203.597 6.39499 210.679 4.9479C211.575 4.77301 212.458 4.6877 213.341 4.58106C209.614 4.10354 205.835 4.2274 202.148 4.9479C195.066 6.39499 188.627 10.0552 183.76 15.4002C178.894 20.7452 175.852 27.4983 175.073 34.6848C174.295 41.8712 175.82 49.1192 179.429 55.3822C183.038 61.6453 188.544 66.5994 195.152 69.5295C196.674 70.0506 198.001 71.0245 198.954 72.3205C199.907 73.6166 200.441 75.1729 200.484 76.781H209.016C208.972 75.1729 208.438 73.6166 207.485 72.3205C206.532 71.0245 205.205 70.0506 203.684 69.5295Z" fill="#FBB040"/>
<path d="M221.812 187.688H268.734C268.745 193.851 267.536 199.956 265.179 205.652C262.822 211.347 259.362 216.52 254.999 220.874L221.812 187.688Z" fill="#54ADDD"/>
<path d="M268.734 187.688H221.812V140.766C227.975 140.762 234.078 141.974 239.773 144.331C245.467 146.687 250.641 150.143 254.999 154.501C259.357 158.859 262.813 164.033 265.17 169.727C267.526 175.422 268.738 181.525 268.734 187.688Z" fill="#FF636E"/>
<path d="M221.813 187.688L254.999 220.874C247.474 228.392 237.62 233.131 227.049 234.317C216.479 235.503 205.819 233.064 196.816 227.4C195.577 219.773 193.954 212.214 191.953 204.75L177.023 201.764C175.614 197.205 174.896 192.46 174.891 187.688C174.887 181.525 176.099 175.422 178.456 169.727C180.812 164.033 184.268 158.859 188.626 154.501C192.984 150.143 198.158 146.687 203.852 144.331C209.547 141.974 215.65 140.762 221.813 140.766V187.688Z" fill="#FBB040"/>
<path d="M205.347 227.4C204.108 219.773 202.485 212.214 200.484 204.75L185.555 201.764C184.146 197.205 183.427 192.46 183.422 187.688C183.419 176.725 187.259 166.109 194.273 157.685C201.287 149.26 211.031 143.56 221.813 141.576V140.766C215.65 140.762 209.547 141.974 203.852 144.331C198.158 146.687 192.984 150.143 188.626 154.501C184.268 158.859 180.812 164.033 178.456 169.727C176.099 175.422 174.887 181.525 174.891 187.688C174.896 192.46 175.614 197.205 177.023 201.764L191.953 204.75C193.954 212.214 195.577 219.773 196.816 227.4C204.299 232.118 212.966 234.618 221.813 234.609C223.254 234.609 224.67 234.52 226.078 234.396C218.712 233.735 211.608 231.338 205.347 227.4Z" fill="#F7941D"/>
<path d="M136.5 187.688C127.453 187.677 118.779 184.079 112.381 177.681C105.984 171.284 102.385 162.61 102.375 153.562V132.234H110.906V153.562C110.906 160.35 113.603 166.86 118.402 171.66C123.202 176.46 129.712 179.156 136.5 179.156C143.288 179.156 149.798 176.46 154.598 171.66C159.397 166.86 162.094 160.35 162.094 153.562V132.234H170.625V153.562C170.615 162.61 167.016 171.284 160.619 177.681C154.221 184.079 145.547 187.677 136.5 187.688Z" fill="black"/>
<path d="M136.5 170.625C131.975 170.625 127.635 168.827 124.435 165.628C121.235 162.428 119.438 158.088 119.438 153.562C119.438 152.431 119.887 151.346 120.687 150.546C121.487 149.746 122.572 149.297 123.703 149.297H149.297C150.428 149.297 151.513 149.746 152.313 150.546C153.113 151.346 153.562 152.431 153.562 153.562C153.562 158.088 151.765 162.428 148.565 165.628C145.365 168.827 141.025 170.625 136.5 170.625ZM129.116 157.828C129.866 159.123 130.942 160.198 132.238 160.945C133.534 161.693 135.004 162.086 136.5 162.086C137.996 162.086 139.466 161.693 140.762 160.945C142.058 160.198 143.134 159.123 143.884 157.828H129.116Z" fill="black"/>
<path d="M170.625 153.562H166.359V145.031H170.625C171.756 145.031 172.841 144.581 173.641 143.782C174.441 142.982 174.891 141.897 174.891 140.765V136.5H166.359C140.659 136.5 127.785 132.661 121.383 128.531C119.793 130.992 117.609 133.011 115.032 134.404C112.456 135.797 109.57 136.517 106.641 136.5H98.1094V140.765C98.1094 141.897 98.5588 142.982 99.3587 143.782C100.159 144.581 101.244 145.031 102.375 145.031H106.641V153.562H102.375C98.9811 153.562 95.7261 152.214 93.3262 149.814C90.9264 147.414 89.5781 144.159 89.5781 140.765V132.234C89.5781 131.103 90.0275 130.018 90.8275 129.218C91.6275 128.418 92.7124 127.968 93.8438 127.968H106.641C107.78 128.041 108.921 127.87 109.989 127.467C111.057 127.064 112.027 126.438 112.834 125.631C113.641 124.824 114.267 123.854 114.67 122.786C115.074 121.718 115.244 120.576 115.172 119.437C115.167 118.345 115.581 117.292 116.329 116.495C117.078 115.699 118.103 115.221 119.194 115.158C120.285 115.096 121.358 115.455 122.192 116.16C123.026 116.866 123.558 117.865 123.678 118.951C124.027 119.672 128.971 127.968 166.359 127.968H179.156C180.288 127.968 181.373 128.418 182.173 129.218C182.972 130.018 183.422 131.103 183.422 132.234V140.765C183.422 144.159 182.074 147.414 179.674 149.814C177.274 152.214 174.019 153.562 170.625 153.562Z" fill="black"/>
<path d="M179.156 132.234H170.625V119.438C170.625 110.387 167.03 101.707 160.63 95.3075C154.23 88.9078 145.551 85.3125 136.5 85.3125C127.449 85.3125 118.77 88.9078 112.37 95.3075C105.97 101.707 102.375 110.387 102.375 119.438V132.234H93.8438V119.438C93.8438 108.124 98.3379 97.2746 106.337 89.275C114.337 81.2754 125.187 76.7813 136.5 76.7812C147.813 76.7812 158.663 81.2754 166.663 89.275C174.662 97.2746 179.156 108.124 179.156 119.438V132.234Z" fill="black"/>
<path d="M200.484 273H72.5156C71.3843 273 70.2993 272.551 69.4994 271.751C68.6994 270.951 68.25 269.866 68.25 268.734C68.4126 246.738 71.3346 224.85 76.9476 203.581C77.1626 202.828 77.5808 202.149 78.1565 201.617C78.7321 201.086 79.4428 200.724 80.2108 200.57L119.438 192.725V179.156H127.969V196.219C127.969 197.202 127.629 198.155 127.008 198.917C126.386 199.679 125.52 200.202 124.556 200.399L84.5106 208.41C79.9494 226.767 77.3738 245.561 76.8282 264.469H196.172C195.628 245.561 193.053 226.767 188.494 208.41L148.444 200.399C147.48 200.202 146.614 199.679 145.992 198.917C145.371 198.155 145.031 197.202 145.031 196.219V179.156H153.562V192.725L192.806 200.57C193.574 200.724 194.285 201.086 194.861 201.617C195.436 202.149 195.854 202.828 196.069 203.581C201.677 224.85 204.593 246.739 204.75 268.734C204.75 269.866 204.301 270.951 203.501 271.751C202.701 272.551 201.616 273 200.484 273Z" fill="black"/>
<path d="M136.5 213.281C135.369 213.281 134.284 212.831 133.484 212.031L120.687 199.234L126.719 193.203L136.5 202.984L146.281 193.203L152.313 199.234L139.516 212.031C138.716 212.831 137.631 213.281 136.5 213.281Z" fill="black"/>
<path d="M145.031 221.812C143.9 221.812 142.815 221.363 142.015 220.563L136.5 215.047L130.985 220.563C130.185 221.362 129.1 221.812 127.969 221.812C126.838 221.812 125.753 221.362 124.953 220.563L112.156 207.766C111.356 206.966 110.906 205.881 110.906 204.75V196.219H119.438V202.984L127.969 211.515L133.484 206C134.284 205.2 135.369 204.751 136.5 204.751C137.631 204.751 138.716 205.2 139.516 206L145.031 211.515L153.562 202.984V196.219H162.094V204.75C162.094 205.881 161.644 206.966 160.844 207.766L148.047 220.563C147.247 221.363 146.162 221.812 145.031 221.812Z" fill="black"/>
<path d="M136.5 260.203C136.151 260.203 135.802 260.16 135.463 260.075L101.338 251.544C100.675 251.378 100.062 251.055 99.5497 250.602C99.0375 250.15 98.6416 249.581 98.3954 248.943C98.1491 248.305 98.0597 247.618 98.1346 246.938C98.2095 246.259 98.4467 245.607 98.826 245.039L104.678 236.264L100.468 234.161C99.7592 233.807 99.1629 233.262 98.7462 232.588C98.3295 231.914 98.109 231.136 98.1094 230.344V200.484H106.641V227.708L112.813 230.792C113.355 231.062 113.832 231.445 114.215 231.914C114.597 232.383 114.875 232.928 115.03 233.513C115.186 234.098 115.215 234.71 115.116 235.307C115.017 235.904 114.791 236.473 114.455 236.977L109.281 244.736L125.58 248.81C118.011 235.354 113.045 220.594 110.94 205.3L119.403 204.242C119.446 204.567 123.707 237.135 139.516 252.943C140.105 253.541 140.505 254.299 140.665 255.122C140.825 255.946 140.739 256.799 140.417 257.574C140.095 258.349 139.552 259.012 138.855 259.479C138.158 259.947 137.339 260.199 136.5 260.203Z" fill="black"/>
<path d="M136.5 260.203C135.656 260.203 134.832 259.953 134.131 259.484C133.429 259.015 132.883 258.349 132.56 257.57C132.237 256.79 132.153 255.933 132.317 255.106C132.482 254.278 132.888 253.518 133.484 252.922C149.297 237.113 153.563 204.545 153.597 204.221L162.06 205.279C159.955 220.573 154.989 235.333 147.42 248.788L163.719 244.715L158.545 236.955C158.209 236.452 157.983 235.883 157.884 235.286C157.785 234.689 157.814 234.077 157.97 233.492C158.125 232.907 158.403 232.362 158.785 231.893C159.168 231.423 159.645 231.041 160.187 230.77L166.359 227.708V200.484H174.891V230.344C174.895 231.14 174.676 231.922 174.259 232.6C173.843 233.279 173.244 233.827 172.532 234.183L168.322 236.286L174.174 245.06C174.553 245.629 174.79 246.28 174.865 246.96C174.94 247.639 174.851 248.327 174.605 248.964C174.358 249.602 173.962 250.171 173.45 250.624C172.938 251.076 172.325 251.399 171.662 251.565L137.537 260.096C137.197 260.174 136.849 260.209 136.5 260.203Z" fill="black"/>
<path d="M132.234 209.016H140.766V268.734H132.234V209.016Z" fill="black"/>
<path d="M217.547 93.8436H200.484C199.353 93.8436 198.268 93.3942 197.468 92.5942C196.668 91.7942 196.219 90.7093 196.219 89.578V76.7811C196.219 76.2052 196.219 74.6781 193.429 73.4411C185.389 69.869 178.819 63.6435 174.82 55.8066C170.821 47.9697 169.635 38.997 171.461 30.3902C173.287 21.7835 178.013 14.065 184.85 8.52668C191.686 2.98837 200.217 -0.0336914 209.016 -0.0336914C217.814 -0.0336914 226.345 2.98837 233.182 8.52668C240.018 14.065 244.745 21.7835 246.571 30.3902C248.396 38.997 247.21 47.9697 243.211 55.8066C239.212 63.6435 232.643 69.869 224.602 73.4411C221.813 74.6824 221.813 76.2052 221.813 76.7811V89.578C221.813 90.7093 221.363 91.7942 220.563 92.5942C219.763 93.3942 218.678 93.8436 217.547 93.8436ZM204.75 85.3123H213.281V76.7811C213.319 74.3498 214.089 71.9863 215.491 69.9994C216.892 68.0124 218.861 66.4944 221.139 65.6435C227.393 62.8656 232.503 58.0238 235.614 51.9284C238.725 45.833 239.647 38.8541 238.227 32.1597C236.808 25.4653 233.131 19.4618 227.814 15.154C222.497 10.8462 215.861 8.49553 209.018 8.49553C202.175 8.49553 195.539 10.8462 190.222 15.154C184.904 19.4618 181.228 25.4653 179.808 32.1597C178.388 38.8541 179.311 45.833 182.422 51.9284C185.533 58.0238 190.643 62.8656 196.897 65.6435C199.174 66.4951 201.142 68.0134 202.542 70.0003C203.943 71.9871 204.713 74.3503 204.75 76.7811V85.3123Z" fill="black"/>
<path d="M200.484 72.5156H217.547V81.0469H200.484V72.5156Z" fill="black"/>
<path d="M213.281 76.7812H204.75V42.6562C204.75 41.5249 205.199 40.44 205.999 39.64C206.799 38.84 207.884 38.3906 209.016 38.3906H217.547V29.8594H226.078V42.6562C226.078 43.7876 225.629 44.8725 224.829 45.6725C224.029 46.4725 222.944 46.9219 221.812 46.9219H213.281V76.7812Z" fill="black"/>
<path d="M209.016 46.9219H196.219C195.087 46.9219 194.002 46.4725 193.202 45.6725C192.403 44.8725 191.953 43.7876 191.953 42.6562V29.8594H200.484V38.3906H209.016V46.9219Z" fill="black"/>
<path d="M251.672 34.125H268.734V42.6562H251.672V34.125Z" fill="black"/>
<path d="M248.628 26.8672L261.426 14.0692L267.459 20.1017L254.661 32.8997L248.628 26.8672Z" fill="black"/>
<path d="M248.624 49.9609L254.656 43.9284L267.454 56.7264L261.422 62.7589L248.624 49.9609Z" fill="black"/>
<path d="M149.297 34.125H166.359V42.6562H149.297V34.125Z" fill="black"/>
<path d="M150.527 20.0928L156.56 14.0603L169.358 26.8582L163.325 32.8907L150.527 20.0928Z" fill="black"/>
<path d="M150.527 56.7139L163.325 43.9159L169.358 49.9484L156.56 62.7464L150.527 56.7139Z" fill="black"/>
<path d="M106.641 187.688H4.26562C3.13431 187.688 2.04933 187.238 1.24937 186.438C0.449413 185.638 0 184.553 0 183.422V93.8438H8.53125V179.156H106.641V187.688Z" fill="black"/>
<path d="M38.3906 187.688H21.3281C20.1968 187.688 19.1118 187.238 18.3119 186.438C17.5119 185.638 17.0625 184.553 17.0625 183.422V123.703C17.0625 122.572 17.5119 121.487 18.3119 120.687C19.1118 119.887 20.1968 119.438 21.3281 119.438H38.3906C39.5219 119.438 40.6069 119.887 41.4069 120.687C42.2068 121.487 42.6562 122.572 42.6562 123.703V183.422C42.6562 184.553 42.2068 185.638 41.4069 186.438C40.6069 187.238 39.5219 187.688 38.3906 187.688ZM25.5938 179.156H34.125V127.969H25.5938V179.156Z" fill="black"/>
<path d="M72.5156 187.688H55.4531C54.3218 187.688 53.2368 187.238 52.4369 186.438C51.6369 185.638 51.1875 184.553 51.1875 183.422V98.1094C51.1875 96.9781 51.6369 95.8931 52.4369 95.0931C53.2368 94.2932 54.3218 93.8438 55.4531 93.8438H72.5156C73.6469 93.8438 74.7319 94.2932 75.5319 95.0931C76.3318 95.8931 76.7812 96.9781 76.7812 98.1094V183.422C76.7812 184.553 76.3318 185.638 75.5319 186.438C74.7319 187.238 73.6469 187.688 72.5156 187.688ZM59.7188 179.156H68.25V102.375H59.7188V179.156Z" fill="black"/>
<path d="M90.828 92.594L63.9844 65.7504L45.672 84.0627C44.8721 84.8624 43.7873 85.3117 42.6562 85.3117C41.5252 85.3117 40.4404 84.8624 39.6405 84.0627L8.53125 52.9535V68.2501H0V42.6563C0.000180113 41.8128 0.250452 40.9883 0.719177 40.2869C1.1879 39.5856 1.85404 39.039 2.63336 38.7163C3.41269 38.3935 4.27023 38.309 5.09756 38.4735C5.92489 38.638 6.68487 39.0441 7.28142 39.6405L42.6562 75.0154L60.9686 56.703C61.7685 55.9033 62.8533 55.4541 63.9844 55.4541C65.1155 55.4541 66.2002 55.9033 67.0002 56.703L96.8595 86.5624L90.828 92.594Z" fill="black"/>
<path d="M4.26562 38.3906H29.8594V46.9219H4.26562V38.3906Z" fill="black"/>
<path d="M0 76.7812H8.53125V85.3125H0V76.7812Z" fill="black"/>
<path d="M221.812 238.875C212.162 238.879 202.708 236.152 194.542 231.009L199.09 223.788C207.095 228.827 216.549 231.062 225.964 230.141C235.379 229.22 244.221 225.196 251.099 218.701C257.977 212.206 262.501 203.61 263.959 194.263C265.417 184.916 263.727 175.35 259.154 167.068C254.582 158.787 247.386 152.261 238.699 148.516C230.012 144.771 220.326 144.02 211.166 146.381C202.006 148.742 193.89 154.081 188.095 161.559C182.301 169.036 179.156 178.228 179.156 187.688C179.161 192.035 179.816 196.357 181.101 200.51L172.945 203.018C171.412 198.052 170.63 192.885 170.625 187.688C170.625 177.564 173.627 167.667 179.252 159.249C184.876 150.832 192.871 144.271 202.224 140.396C211.577 136.522 221.869 135.508 231.799 137.484C241.728 139.459 250.849 144.334 258.008 151.492C265.166 158.651 270.041 167.772 272.016 177.701C273.992 187.631 272.978 197.923 269.104 207.276C265.229 216.629 258.668 224.624 250.251 230.248C241.833 235.873 231.936 238.875 221.812 238.875Z" fill="black"/>
<path d="M252.922 224.828L218.797 190.703C217.997 189.904 217.547 188.819 217.547 187.688V140.766H226.078V185.922L258.953 218.797L252.922 224.828Z" fill="black"/>
<path d="M221.812 183.422H268.734V191.953H221.812V183.422Z" fill="black"/>
<path d="M34.125 213.281H42.6562V238.875H34.125V213.281Z" fill="black"/>
<path d="M25.5938 221.812H51.1875V230.344H25.5938V221.812Z" fill="black"/>
<path d="M238.875 98.1094H247.406V123.703H238.875V98.1094Z" fill="black"/>
<path d="M230.344 106.641H255.938V115.172H230.344V106.641Z" fill="black"/>
<path d="M93.8438 21.3281H102.375V46.9219H93.8438V21.3281Z" fill="black"/>
<path d="M85.3125 29.8594H110.906V38.3906H85.3125V29.8594Z" fill="black"/>
</g>
<defs>
<clipPath id="clip0_11_173">
<rect width="273" height="273" fill="white"/>
</clipPath>
</defs>
</svg>
