<svg fill="none" height="294" viewBox="0 0 294 294" width="294" xmlns="http://www.w3.org/2000/svg"><path d="m153.11 206.138h-136.2113c-6.95438 0-12.59206-5.637-12.59206-12.592v-15.848c0-6.954 5.63768-12.592 12.59206-12.592h136.2113c6.955 0 12.592 5.638 12.592 12.592v15.848c0 6.955-5.637 12.592-12.592 12.592z" fill="#f1e64c"/><path d="m43.1049 206.14h-26.2016c-6.9584 0-12.59666-5.638-12.59666-12.59v-15.852c0-6.952 5.63883-12.59 12.59666-12.59h26.2016c-6.9521 0-12.5903 5.639-12.5903 12.59v15.852c0 6.952 5.6388 12.59 12.5903 12.59z" fill="#ffc250"/><path d="m165.703 183.538v10.014c0 6.954-5.639 12.587-12.593 12.587h-136.2102c-6.95378 0-12.59261-5.633-12.59261-12.587v-10.014c0 6.953 5.63883 12.592 12.59261 12.592h136.2102c6.954 0 12.593-5.639 12.593-12.592z" fill="#ffc250"/><path d="m176.446 165.107h-136.2122c-6.9544 0-12.5921-5.637-12.5921-12.592v-15.848c0-6.955 5.6377-12.592 12.5921-12.592h136.2122c6.954 0 12.592 5.637 12.592 12.592v15.848c0 6.955-5.638 12.592-12.592 12.592z" fill="#f1e64c"/><path d="m66.4406 165.109h-26.2016c-6.9584 0-12.5967-5.639-12.5967-12.59v-15.852c0-6.952 5.6389-12.59 12.5967-12.59h26.2016c-6.9521 0-12.5903 5.638-12.5903 12.59v15.852c0 6.952 5.6382 12.59 12.5903 12.59z" fill="#ffc250"/><path d="m189.039 142.506v10.014c0 6.954-5.639 12.587-12.593 12.587h-136.2105c-6.9538 0-12.5926-5.633-12.5926-12.587v-10.014c0 6.954 5.6388 12.592 12.5926 12.592h136.2105c6.954 0 12.593-5.638 12.593-12.592z" fill="#ffc250"/><path d="m160.036 124.075h-136.2111c-6.9544 0-12.5921-5.638-12.5921-12.592v-15.8485c0-6.9543 5.6377-12.592 12.5921-12.592h136.2111c6.955 0 12.592 5.6377 12.592 12.592v15.8485c0 6.954-5.637 12.592-12.592 12.592z" fill="#f1e64c"/><path d="m50.0317 124.077h-26.2016c-6.9584 0-12.5966-5.639-12.5966-12.59v-15.8522c0-6.9521 5.6388-12.5904 12.5966-12.5904h26.2016c-6.9521 0-12.5903 5.6389-12.5903 12.5904v15.8522c-.0006 6.951 5.6382 12.59 12.5903 12.59z" fill="#ffc250"/><path d="m172.629 101.474v10.014c0 6.954-5.639 12.587-12.592 12.587h-136.2109c-6.9538 0-12.5926-5.633-12.5926-12.587v-10.014c0 6.953 5.6388 12.592 12.5926 12.592h136.2109c6.953 0 12.592-5.639 12.592-12.592z" fill="#ffc250"/><path d="m164.595 247.171h-136.2119c-6.9544 0-12.5921-5.637-12.5921-12.592v-15.848c0-6.955 5.6377-12.592 12.5921-12.592h136.2119c6.954 0 12.592 5.637 12.592 12.592v15.848c0 6.955-5.638 12.592-12.592 12.592z" fill="#f1e64c"/><path d="m177.187 224.57v10.014c0 6.954-5.639 12.587-12.592 12.587h-136.2108c-6.9538 0-12.5926-5.633-12.5926-12.587v-10.014c0 6.954 5.6388 12.592 12.5926 12.592h136.2108c6.953 0 12.592-5.638 12.592-12.592z" fill="#ffc250"/><path d="m54.5893 247.173h-26.2016c-6.9584 0-12.5967-5.639-12.5967-12.59v-15.852c0-6.952 5.6388-12.59 12.5967-12.59h26.2016c-6.9521 0-12.5904 5.638-12.5904 12.59v15.852c0 6.951 5.6389 12.59 12.5904 12.59z" fill="#ffc250"/><path d="m155.981 288.204h-136.2112c-6.9544 0-12.59207-5.638-12.59207-12.592v-15.849c0-6.954 5.63767-12.592 12.59207-12.592h136.2112c6.955 0 12.592 5.638 12.592 12.592v15.849c0 6.954-5.637 12.592-12.592 12.592z" fill="#f1e64c"/><path d="m168.574 265.603v10.014c0 6.954-5.639 12.587-12.593 12.587h-136.2101c-6.9538 0-12.59262-5.633-12.59262-12.587v-10.014c0 6.953 5.63882 12.592 12.59262 12.592h136.2101c6.954 0 12.593-5.639 12.593-12.592z" fill="#ffc250"/><path d="m45.976 288.205h-26.2016c-6.9584 0-12.59667-5.638-12.59667-12.59v-15.852c0-6.952 5.63887-12.59 12.59667-12.59h26.2016c-6.9521 0-12.5903 5.639-12.5903 12.59v15.852c0 6.952 5.6388 12.59 12.5903 12.59z" fill="#ffc250"/><path d="m208.996 288.205c44.568 0 80.697-36.129 80.697-80.698 0-44.568-36.129-80.697-80.697-80.697-44.569 0-80.698 36.129-80.698 80.697 0 44.569 36.129 80.698 80.698 80.698z" fill="#f1e64c"/><path d="m215.82 287.917c-2.247.194-4.525.287-6.826.287-44.569 0-80.696-36.127-80.696-80.696 0-44.57 36.127-80.697 80.696-80.697 2.302 0 4.579.093 6.826.288-41.382 3.459-73.879 38.132-73.879 80.409 0 42.276 32.497 76.949 73.879 80.409z" fill="#ffc250"/><path d="m208.995 261.999c30.095 0 54.492-24.397 54.492-54.492s-24.397-54.491-54.492-54.491c-30.094 0-54.491 24.396-54.491 54.491s24.397 54.492 54.491 54.492z" fill="#ffc250"/><path d="m113.332 178.016v-66.434h11.356c13.787 0 22.404-14.9256 15.51-26.8647l-36.398-63.0355c-6.8931-11.93799-24.1243-11.93856-31.0184-.0006l-36.4014 63.0349c-6.8947 11.9398 1.7215 26.8659 15.509 26.8659h11.3615v66.434c0 6.225 5.0457 11.271 11.2702 11.271h27.5411c6.225 0 11.27-5.047 11.27-11.271z" fill="#95d6a4"/><path d="m84.8896 189.288h-10.3698c-6.2223 0-11.2662-5.044-11.2662-11.266v-66.442h-11.3655c-13.7876 0-22.4049-14.9227-15.5051-26.8647l36.3958-63.0338c3.447-5.9678 9.4786-8.9486 15.5107-8.9486-4.0407 0-8.0815 2.9808-10.387 8.9486l-24.3842 63.0338c-4.623 11.942 1.153 26.8647 10.387 26.8647h4.669c4.8395 0 8.7632 3.924 8.7632 8.763v57.672c0 6.225 3.3833 11.273 7.5521 11.273z" fill="#78c2a4"/><path d="m214.37 94.6788-.33-1.2294c-1.162-4.3354 1.232-8.8304 5.477-10.286l13.061-4.4778c4.677-1.6038 9.735 1.0899 11.015 5.8662l.818 3.0543c1.28 4.7764-1.754 9.6383-6.606 10.588l-13.549 2.6519c-4.404.863-8.725-1.8319-9.886-6.1672z" fill="#f7f493"/><path d="m193.507 57.8847-.9-.8998c-3.174-3.1737-3.349-8.263-.399-11.6463l9.071-10.4077c3.25-3.7278 8.976-3.9242 12.473-.4272l2.236 2.236c3.497 3.497 3.3 9.2237-.427 12.4726l-10.408 9.0715c-3.383 2.9492-8.472 2.7746-11.646-.3991z" fill="#f7f493"/><path d="m157.042 36.4513-1.229-.3296c-4.336-1.1616-7.032-5.4821-6.169-9.8869l2.652-13.5487c.95-4.85328 5.812-7.8863 10.588-6.60637l3.054.81826c4.777 1.27993 7.47 6.33761 5.867 11.01521l-4.478 13.0601c-1.455 4.2463-5.949 6.6397-10.285 5.478z" fill="#f7f493"/><g fill="#000"><path d="m270.881 149.234c-1.63-1.732-4.356-1.812-6.087-.182-1.732 1.631-1.813 4.357-.182 6.088 13.397 14.222 20.775 32.82 20.775 52.367 0 42.124-34.271 76.394-76.394 76.394-42.121 0-76.389-34.27-76.389-76.394 0-42.121 34.268-76.388 76.389-76.388 15.551 0 30.512 4.644 43.264 13.429 1.959 1.348 4.641.855 5.99-1.104 1.35-1.958.855-4.64-1.103-5.989-14.196-9.78-30.847-14.949-48.151-14.949-7.01 0-13.823.859-20.344 2.466-3.156-3.302-7.53-5.204-12.202-5.204h-1.692c1.384-2.451 2.179-5.277 2.179-8.286v-15.8487c0-9.3185-7.581-16.8993-16.899-16.8993h-18.321l-34.183-59.2043c-4.019-6.9566-11.2127-11.1088-19.2454-11.1088-.0012 0-.0035 0-.0046 0-8.0276.00172-15.2163 4.1527-19.2283 11.1037l-34.189 59.2094h-11.0394c-9.3184 0-16.89922 7.5808-16.89922 16.8993v15.8487c0 9.318 7.58082 16.899 16.89922 16.899h1.6911c-1.3844 2.45-2.1792 5.276-2.1792 8.286v15.848c0 3.01.7948 5.836 2.1792 8.286h-8.6161c-9.31846 0-16.8993 7.579-16.8993 16.894v15.848c0 8.27 5.9713 15.165 13.8278 16.615-1.4867 2.515-2.3434 5.444-2.3434 8.571v15.849c0 3.401 1.0135 6.568 2.7493 9.222-6.60635 2.298-11.36261 8.584-11.36261 15.963v15.848c0 9.319 7.58081 16.899 16.89931 16.899h136.2106c6.397 0 12.081-3.623 14.94-9.014 11.46 5.766 24.393 9.018 38.072 9.018 46.873 0 85.007-38.133 85.007-85.007 0-21.752-8.21-42.447-23.119-58.273zm-250.7833 85.344v-15.849c0-4.569 3.7169-8.286 8.2859-8.286h95.6634c.394 11.532 3.093 22.488 7.654 32.421h-103.3174c-4.569 0-8.2859-3.717-8.2859-8.286zm157.5933-106.099c-16.302 6.479-30.137 17.865-39.682 32.323h-20.369v-32.42h42.395 16.411c.421 0 .837.035 1.245.097zm-9.37-32.8452v15.8482c0 4.569-3.717 8.286-8.286 8.286h-42.395v-3.877h7.046c8.033 0 15.225-4.154 19.241-11.113 3.128-5.4181 3.807-11.6524 2.062-17.4307h14.046c4.569.0006 8.286 3.7175 8.286 8.2865zm-152.7826 15.8482v-15.8482c0-4.569 3.7169-8.2859 8.2859-8.2859h6.7609c-1.0824 3.6078-1.2323 7.4338-.3962 11.1432.5225 2.3209 2.828 3.7779 5.1478 3.2549 2.3205-.523 3.7778-2.8282 3.2547-5.1481-.5242-2.3273-.6862-5.9041 1.5206-9.7278l36.4003-63.0383c2.4559-4.255 6.8561-6.7959 11.7709-6.797h.0023c4.9193 0 9.3258 2.5432 11.7864 6.8033l36.395 63.0326c2.459 4.2572 2.459 9.3425.001 13.6023-2.46 4.26-6.864 6.804-11.782 6.804h-11.352c-2.379 0-4.307 1.928-4.307 4.307v66.431c0 3.841-3.124 6.966-6.965 6.966h-27.5399c-3.8404 0-6.9653-3.125-6.9653-6.966v-66.431c0-2.379-1.9282-4.307-4.3066-4.307h-11.358c-1.636 0-3.214-.272-4.6897-.808-2.2366-.814-4.7063.34-5.5188 2.575-.8131 2.236.3399 4.706 2.5754 5.519 2.422.881 4.9899 1.328 7.6331 1.328h7.0514v3.877h-18.7081-16.4112c-4.569 0-8.2859-3.717-8.2859-8.286zm16.4111 41.034v-15.848c0-4.57 3.7169-8.286 8.286-8.286h18.7081v32.42h-18.7081c-4.5691 0-8.286-3.717-8.286-8.286zm-23.33622 41.028v-15.849c0-4.565 3.71692-8.28 8.28602-8.28h23.3362 18.7081v8.6c0 8.59 6.9882 15.579 15.5785 15.579h27.5399c8.589 0 15.578-6.988 15.578-15.579v-8.6h15.379c-4.966 9.867-8.066 20.827-8.834 32.415h-95.8014-11.4843c-4.5691 0-8.28602-3.717-8.28602-8.286zm147.36772 90.353h-136.2106c-4.5691 0-8.286-3.717-8.286-8.286v-15.848c0-4.569 3.7169-8.286 8.286-8.286h8.6132 107.8854c6.799 11.205 16.114 20.72 27.154 27.76-1.355 2.773-4.21 4.66-7.442 4.66z"/><path d="m217.496 203.038c-1.524-.444-3.085-.91-4.641-1.397v-19.083c4.624.683 7.386 2.63 7.594 2.782 1.893 1.414 4.576 1.039 6.007-.845 1.439-1.895 1.07-4.596-.824-6.035-.278-.21-5.037-3.737-12.777-4.569v-3.72c0-2.379-1.927-4.307-4.306-4.307s-4.307 1.928-4.307 4.307v3.996c-.831.141-1.679.316-2.547.531-7.261 1.801-12.681 7.341-13.81 14.113-.952 5.712 1.378 11.148 6.082 14.186 2.586 1.671 5.822 3.203 10.275 4.829v24.172c-4.471-.189-7.426-.942-12.29-3.562-2.095-1.129-4.707-.345-5.834 1.749-1.128 2.093-.346 4.706 1.749 5.834 6.429 3.464 10.592 4.393 16.376 4.597v4.229c0 2.379 1.927 4.307 4.306 4.307s4.307-1.928 4.307-4.307v-4.509c11.345-1.694 18.259-9.749 19.37-17.692 1.249-8.942-4.533-16.637-14.73-19.606zm-18.856-7.277c-2.593-1.674-2.443-4.428-2.259-5.535.449-2.691 2.625-5.987 7.387-7.168.16-.04.316-.073.474-.109v15.636c-2.136-.888-4.061-1.828-5.602-2.824zm25.054 25.691c-.605 4.326-4.443 8.706-10.839 10.121v-20.925c.723.217 1.463.437 2.233.661 6.122 1.781 9.258 5.478 8.606 10.143z"/><path d="m208.996 148.709c-32.422 0-58.798 26.377-58.798 58.799 0 32.421 26.376 58.797 58.798 58.797 32.421 0 58.797-26.376 58.797-58.798 0-32.421-26.376-58.798-58.797-58.798zm0 108.983c-27.672 0-50.185-22.513-50.185-50.185s22.513-50.185 50.185-50.185c27.671 0 50.184 22.513 50.184 50.185s-22.513 50.185-50.184 50.185z"/><path d="m209.88 94.5637.329 1.2294v.0006c1.524 5.6873 6.721 9.5193 12.42 9.5193.81 0 1.632-.078 2.454-.239l13.549-2.653c3.48-.681 6.553-2.7973 8.43-5.8056s2.427-6.6983 1.509-10.1229l-.818-3.0554c-.918-3.4253-3.24-6.3457-6.369-8.0121-3.131-1.667-6.849-1.9627-10.204-.8131l-13.059 4.4772c-6.362 2.182-9.982 8.979-8.241 15.4746zm11.035-7.3259 13.06-4.4772c1.12-.3847 2.314-.2894 3.361.2676 1.046.557 1.791 1.4947 2.098 2.6391l.818 3.0554c.307 1.1445.13 2.3285-.497 3.3345-.628 1.0061-1.614 1.6848-2.777 1.9128l-13.549 2.6523c-2.181.4255-4.326-.9171-4.899-3.0566l-.33-1.23c-.573-2.1407.619-4.3795 2.715-5.0979z"/><path d="m190.461 60.9303c2.49 2.4898 5.785 3.7479 9.088 3.7479 3.006 0 6.018-1.0428 8.434-3.1479l10.407-9.0715c2.673-2.3296 4.276-5.6985 4.398-9.2426.121-3.5441-1.247-7.0147-3.755-9.5217l-2.236-2.2366c-2.507-2.507-5.976-3.8794-9.522-3.7542-3.544.1211-6.913 1.7244-9.242 4.3973l-9.073 10.4078c-4.418 5.0697-4.154 12.766.601 17.5217zm4.993-12.762 9.072-10.4078c.778-.8934 1.86-1.4079 3.045-1.4481.05-.0018.1-.0029.15-.0029 1.129 0 2.184.437 2.986 1.2392l2.237 2.2365c.838.8378 1.277 1.9518 1.236 3.1364-.04 1.1846-.555 2.2659-1.448 3.0445l-10.408 9.0715c-1.669 1.4551-4.205 1.3684-5.772-.1981l-.899-.8992c-1.567-1.567-1.654-4.1022-.199-5.772z"/><path d="m154.699 40.2827 1.228.329c1.101.2946 2.209.4359 3.303.4359 5.363 0 10.36-3.3925 12.171-8.6771l4.478-13.0594c1.15-3.3546.853-7.0732-.813-10.20331-1.667-3.12949-4.588-5.45106-8.013-6.36866l-3.054-.81826c-3.426-.91818-7.115-.36807-10.124 1.50962-3.008 1.87712-5.124 4.94977-5.805 8.42951l-2.653 13.5493c-1.291 6.5989 2.786 13.1324 9.282 14.8734zm-.828-13.2197 2.652-13.5487c.227-1.1627.907-2.1493 1.912-2.7763.683-.4261 1.448-.6443 2.229-.6443.368 0 .739.0488 1.106.147l3.054.8183c1.145.3066 2.082 1.052 2.639 2.0976.558 1.0462.653 2.24.269 3.3615l-4.478 13.0594c-.718 2.0954-2.956 3.2869-5.097 2.7149l-1.229-.329c-2.14-.5742-3.483-2.7264-3.057-4.9004z"/></g></svg>