<svg fill="none" height="290" viewBox="0 0 290 290" width="290" xmlns="http://www.w3.org/2000/svg" xmlns:xlink="http://www.w3.org/1999/xlink"><clipPath id="a"><path d="m0 0h290v290h-290z"/></clipPath><g clip-path="url(#a)"><path d="m74.8387 65.4837c0 5.1662-4.1887 9.3549-9.3548 9.3549-5.1662 0-9.3549-4.1887-9.3549-9.3549 0-5.1661 4.1887-9.3548 9.3549-9.3548 5.1661 0 9.3548 4.1887 9.3548 9.3548z" fill="#ff826e"/><path d="m23.3871 65.4837c0 5.1662-4.1887 9.3549-9.3548 9.3549-5.16621 0-9.35487-4.1887-9.35487-9.3549 0-5.1661 4.18866-9.3548 9.35487-9.3548 5.1661 0 9.3548 4.1887 9.3548 9.3548z" fill="#ff826e"/><path d="m135.645 28.0643c0 5.1662-4.189 9.3549-9.355 9.3549s-9.355-4.1887-9.355-9.3549 4.189-9.3548 9.355-9.3548 9.355 4.1886 9.355 9.3548z" fill="#ff826e"/><path d="m160.576 95.9807c1.919 1.6832 3.134 4.1633 3.134 6.9223 0 5.146-4.21 9.355-9.355 9.355-5.146 0-9.355-4.209-9.355-9.355 0-5.1454 4.209-9.3547 9.355-9.3547 2.384 0 4.584.8885 6.221 2.4324z" fill="#ff826e"/><path d="m203.048 49.5329c1.728 1.6855 2.758 4.0242 2.758 6.5959 0 5.1456-4.209 9.3548-9.354 9.3548-2.385 0-4.584-.8884-6.222-2.4323-1.918-1.6833-3.133-4.1636-3.133-6.9225 0-5.1457 4.209-9.3549 9.355-9.3549 2.571 0 4.91 1.0301 6.596 2.759z" fill="#ff826e"/><path d="m210.484 112.258v53.884c-5.847-4.115-12.395-7.249-19.411-9.261l.701-2.526v-42.097z" fill="#ffeaa7"/><path d="m173.065 135.645v18.71c-6.503 0-12.77.936-18.71 2.713v-21.423z" fill="#ffeaa7"/><path d="m247.903 88.8711v130.9679h-9.355c0-12.349-3.414-23.855-9.354-33.724v-97.2439z" fill="#ffeaa7"/><path d="m266.613 51.4517h18.71v168.3873h-18.71z" fill="#ffeaa7"/><path d="m134.008 167.264c-6.875 5.145-12.676 11.554-17.072 18.897l-.14-.094c.094-1.215.14-2.432.14-3.647 0-23.248-18.8495-42.097-42.0973-42.097s-42.0968 18.849-42.0968 42.097c0 23.247 18.849 42.096 42.0968 42.096 13.9386 0 26.2393-6.783 33.9113-17.165-.749 4.07-1.169 8.231-1.169 12.488 0 6.689.982 13.144 2.852 19.224l-5.424-3.883c-4.399 2.526-9.1676 4.492-14.2195 5.847l-1.9185 11.554h-28.0645l-1.9185-11.554c-5.052-1.355-9.8208-3.321-14.2195-5.847l-9.5422 6.783-19.831-19.831 6.7831-9.542c-2.526-4.399-4.4924-9.168-5.8467-14.22l-11.55427-1.918v-28.065l11.55427-1.918c1.3543-5.052 3.3207-9.821 5.8467-14.22l-6.7831-9.542 19.831-19.831 9.5422 6.783c4.3987-2.526 9.1675-4.492 14.2195-5.846l1.9185-11.555h28.0645l1.9185 11.555c5.0519 1.354 9.8205 3.32 14.2195 5.846l9.542-6.783 19.831 19.831-6.783 9.542c2.526 4.399 4.492 9.168 5.847 14.22z" fill="#ffc729"/><path d="m116.935 182.42c0 1.215-.045 2.432-.139 3.647l.139.094c-3.882 6.408-6.689 13.566-8.139 21.142l-.046.048c-7.672 10.382-19.9727 17.165-33.9113 17.165-23.2478 0-42.0968-18.849-42.0968-42.096 0-23.248 18.849-42.097 42.0968-42.097s42.0963 18.849 42.0963 42.097zm-18.7092 0c0-12.909-10.4785-23.388-23.3871-23.388s-23.3871 10.479-23.3871 23.388c0 12.908 10.4785 23.387 23.3871 23.387s23.3871-10.479 23.3871-23.387z" fill="#fcd770"/><path d="m229.194 186.115c5.94 9.869 9.354 21.375 9.354 33.724 0 36.156-29.327 65.484-65.483 65.484-29.467 0-54.398-19.459-62.632-46.261-1.87-6.079-2.852-12.534-2.852-19.223 0-4.257.42-8.419 1.169-12.488l.046-.048c1.45-7.576 4.257-14.734 8.139-21.142 4.397-7.343 10.198-13.752 17.073-18.897 6.034-4.491 12.91-7.951 20.347-10.196 5.94-1.777 12.207-2.713 18.71-2.713 6.267 0 12.301.888 18.008 2.526 7.016 2.012 13.564 5.146 19.411 9.261 7.578 5.239 13.938 12.068 18.71 19.973z" fill="#b4dd7f"/><path d="m219.839 219.839c0 25.833-20.941 46.774-46.774 46.774-25.834 0-46.775-20.941-46.775-46.774 0-25.834 20.941-46.775 46.775-46.775 25.833 0 46.774 20.941 46.774 46.775z" fill="#e6e9ed"/><g fill="#000"><path d="m90.4332 172.119c2.0395 3.079 3.1152 6.637 3.1152 10.301 0 10.318-8.391 18.709-18.7097 18.709-3.6634 0-7.2262-1.076-10.2958-3.11l-5.1684 7.797c4.6089 3.053 9.9532 4.668 15.4642 4.668 15.478 0 28.0643-12.587 28.0643-28.064 0-5.505-1.614-10.851-4.6681-15.469z"/><path d="m74.8387 163.71c3.6634 0 7.2263 1.076 10.2958 3.11l5.1685-7.797c-4.6089-3.053-9.9532-4.668-15.4643-4.668-15.4779 0-28.0645 12.587-28.0645 28.064 0 5.505 1.6147 10.851 4.6683 15.469l7.8018-5.164c-2.0395-3.083-3.1153-6.641-3.1153-10.305 0-10.318 8.3911-18.709 18.7097-18.709z"/><path d="m168.387 196.452v28.064h18.71v-9.355h-9.355v-18.709z"/><path d="m173.065 168.387c-11.838 0-23.401 4.125-32.56 11.618l5.932 7.243c6.271-5.137 13.938-8.309 21.95-9.211v9.06h9.355v-9.079c19.482 2.166 34.978 17.666 37.143 37.143h-9.079v9.355h9.061c-.902 8.017-4.075 15.679-9.211 21.955l7.237 5.927c7.494-9.158 11.623-20.722 11.623-32.559 0-28.368-23.083-51.452-51.451-51.452z"/><path d="m177.742 261.641v-9.061h-9.355v9.079c-19.482-2.165-34.978-17.666-37.143-37.143h9.079v-9.355h-9.061c.903-8.016 4.075-15.679 9.211-21.955l-7.237-5.927c-7.494 9.159-11.623 20.722-11.623 32.56 0 28.368 23.083 51.451 51.452 51.451 11.837 0 23.4-4.125 32.559-11.618l-5.932-7.242c-6.271 5.136-13.934 8.309-21.95 9.211z"/><path d="m261.936 215.162h-9.355v-130.9682h-28.065v88.1032c-2.857-3.092-5.986-5.917-9.355-8.457v-56.259h-28.064v43.508c-3.045-.621-6.183-.966-9.355-1.178v-18.943h-28.065v22.802c-4.704 1.67-9.176 3.826-13.363 6.414-.941-2.606-1.978-5.164-3.231-7.606l7.395-10.357-25.44-25.45-10.362 7.4c-3.12-1.594-6.3794-2.942-9.7481-4.022l-2.0898-12.568h-35.9942l-2.0898 12.568c-3.3687 1.08-6.6278 2.428-9.7476 4.022l-10.3598-7.4-25.4426 25.45 7.3953 10.357c-1.5988 3.115-2.9463 6.375-4.0266 9.748l-12.5728 2.099v35.989l12.5683 2.095c1.0803 3.373 2.4323 6.632 4.0265 9.747l-7.39527 10.356 25.44037 25.451 10.362-7.399c3.1198 1.594 6.3789 2.941 9.7477 4.021l2.0897 12.573h35.9942l2.0898-12.568c3.3687-1.08 6.6277-2.428 9.7477-4.022l1.87 1.336c9.314 27.845 35.588 47.996 66.524 47.996 37.111 0 67.5-28.976 69.923-65.484h47.012v-177.7416h-28.064zm-28.065-121.6134h9.355v121.6134h-.238c-.726-10.931-3.939-21.174-9.117-30.175zm-37.419 23.3874h9.354v40.9c-2.989-1.588-6.127-2.915-9.354-4.061zm-37.42 23.387h9.355v9.592c-3.172.213-6.31.557-9.355 1.181zm-56.339 90.78c-4.0881 2.343-8.4983 4.166-13.1254 5.42l-2.896.785-1.7678 10.595h-20.1348l-1.7677-10.595-2.896-.785c-4.6226-1.254-9.0374-3.077-13.1256-5.42l-2.6059-1.494-8.7222 6.235-14.2424-14.237 6.2351-8.732-1.4937-2.606c-2.3387-4.074-4.1612-8.484-5.4197-13.121l-.7811-2.896-10.59496-1.763v-20.139l10.59496-1.763.7857-2.896c1.263-4.637 3.081-9.051 5.4197-13.121l1.4936-2.606-6.235-8.732 14.2424-14.237 8.7222 6.235 2.6059-1.494c4.0882-2.343 8.4984-4.166 13.1256-5.42l2.8959-.785 1.7678-10.595h20.1348l1.7677 10.595 2.896.785c4.6226 1.254 9.0374 3.077 13.1259 5.42l2.606 1.494 8.722-6.235 14.242 14.237-6.235 8.732 1.494 2.606c2.019 3.517 3.572 7.329 4.794 11.278-2.736 2.272-5.249 4.794-7.61 7.445-4.262-21.437-23.2046-37.648-45.8723-37.648-25.792 0-46.7742 20.983-46.7742 46.775s20.9822 46.774 46.7742 46.774c10.2159 0 20.0435-3.456 28.0693-9.481 0 .041-.005.085-.005.126 0 3.624.361 7.155.893 10.631zm9.449-45.929c-3.522 6.171-6.16 12.897-7.686 20.048-7.0638 9.154-18.0494 14.617-29.6173 14.617-20.6327 0-37.4193-16.787-37.4193-37.419 0-20.633 16.7866-37.42 37.4193-37.42s37.4193 16.787 37.4193 37.42c0 .931-.052 1.843-.116 2.754zm60.923 95.471c-33.528 0-60.807-27.278-60.807-60.806s27.279-60.807 60.807-60.807c33.527 0 60.806 27.279 60.806 60.807s-27.279 60.806-60.806 60.806zm98.225-224.5157h9.355v159.0327h-9.355z"/><path d="m261.936 0v9.35484h10.051l-33.091 26.47496-14.38-14.3794-22.053 22.0533c-1.83-.8793-3.851-1.4069-6.011-1.4069-7.736 0-14.033 6.2967-14.033 14.0322 0 2.4187.674 4.6638 1.754 6.6507l-24.449 27.167c-1.656-.6875-3.464-1.0757-5.369-1.0757-.089 0-.169.0228-.258.0274l-18.808-50.159c3.051-2.5739 5.034-6.3766 5.034-10.6749 0-7.7355-6.297-14.0322-14.033-14.0322-7.735 0-14.032 6.2967-14.032 14.0322 0 1.0095.117 1.9916.322 2.9462l-38.3442 23.5927c-2.405-1.9413-5.4266-3.1518-8.7519-3.1518-6.0889 0-11.2345 3.9238-13.1713 9.3549h-25.1091c-1.9368-5.4311-7.0824-9.3549-13.1712-9.3549-7.7356 0-14.0323 6.2967-14.0323 14.0323 0 7.7355 6.2967 14.0322 14.0323 14.0322 6.0888 0 11.2344-3.9237 13.1712-9.3548h25.1137c1.9368 5.4311 7.0824 9.3548 13.1712 9.3548 7.7356 0 14.0323-6.2967 14.0323-14.0322 0-1.0095-.1165-1.9916-.322-2.9463l38.3443-23.5926c2.4 1.9413 5.422 3.1518 8.747 3.1518.089 0 .169-.0229.258-.0274l18.808 50.1543c-3.051 2.5786-5.033 6.3812-5.033 10.6793 0 7.736 6.296 14.032 14.032 14.032 7.735 0 14.032-6.296 14.032-14.032 0-2.418-.669-4.6635-1.754-6.6505l24.449-27.1669c1.656.6874 3.465 1.0757 5.37 1.0757 7.735 0 14.032-6.2967 14.032-14.0323 0-2.1605-.528-4.1818-1.407-6.0112l15.439-15.4391 13.685 13.6851 42.444-33.9524v13.6531h9.355v-28.0645zm-247.9037 70.1613c-2.5808 0-4.67746-2.1012-4.67746-4.6774 0-2.5763 2.09666-4.6774 4.67746-4.6774s4.6774 2.1011 4.6774 4.6774c0 2.5762-2.0966 4.6774-4.6774 4.6774zm51.4516 0c-2.5808 0-4.6774-2.1012-4.6774-4.6774 0-2.5763 2.0966-4.6774 4.6774-4.6774s4.6774 2.1011 4.6774 4.6774c0 2.5762-2.0966 4.6774-4.6774 4.6774zm56.1291-42.0968c0-2.5762 2.097-4.6774 4.677-4.6774 2.581 0 4.678 2.1012 4.678 4.6774 0 2.5763-2.097 4.6774-4.678 4.6774-2.58 0-4.677-2.1011-4.677-4.6774zm32.742 79.5165c-2.581 0-4.678-2.102-4.678-4.678s2.097-4.6772 4.678-4.6772 4.677 2.1012 4.677 4.6772-2.096 4.678-4.677 4.678zm42.097-46.7745c-2.581 0-4.678-2.1012-4.678-4.6775 0-2.5762 2.097-4.6774 4.678-4.6774 2.58 0 4.677 2.1012 4.677 4.6774 0 2.5763-2.097 4.6775-4.677 4.6775z"/></g></g></svg>