<svg fill="none" height="289" viewBox="0 0 289 289" width="289" xmlns="http://www.w3.org/2000/svg"><path d="m72.7016 65.7735v61.8275c0 15.479 12.5478 28.026 28.0254 28.026h49.159c15.478 0 28.026-12.548 28.026-28.026v-61.8275c0-11.8303-9.591-21.421-21.421-21.421h-62.3679c-11.8309-.0005-21.4215 9.5901-21.4215 21.421z" fill="#fa9801"/><path d="m156.491 44.3521h-.578c1.207 4.2238 1.867 8.6784 1.867 13.29v69.9599c0 15.477-12.547 28.025-28.025 28.025h20.132c15.478 0 28.025-12.548 28.025-28.025v-61.8284c0-11.8309-9.59-21.4215-21.421-21.4215z" fill="#f88604"/><path d="m191.074 200.081h-134.3803l-15.0179 14.301v41.477h167.2622v-41.477z" fill="#fff0dc"/><path d="m191.074 200.081h-2.268v55.778h20.132v-41.477z" fill="#ffddce"/><path d="m184.512 144.463-38.902-9.138v-27.634h-40.605v27.634l-38.9025 9.138c-13.548 2.815-24.4261 14.685-24.4261 30.081v39.838h25.3648c5.6728 0 10.2714 4.598 10.2714 10.271v31.206h95.9894v-31.206c0-5.673 4.599-10.271 10.272-10.271h25.365v-39.838c-.001-15.38-10.863-27.262-24.427-30.081z" fill="#fff0dc"/><path d="m184.512 144.463-38.902-9.138v-27.634h-20.132v29.908c0 5.586 3.844 10.438 9.283 11.716l29.62 6.958c13.563 2.819 24.426 14.702 24.426 30.081v28.028h20.132v-39.838c-.001-15.379-10.863-27.262-24.427-30.081z" fill="#ffddce"/><path d="m184.512 144.463-20.018-4.702c-6.783 12.729-21.772 21.582-39.187 21.582-17.414 0-32.4037-8.853-39.1861-21.582l-20.0184 4.702c-13.548 2.815-24.4261 14.684-24.4261 30.08v39.838h25.3648c5.6728 0 10.2714 4.599 10.2714 10.272v31.206h95.9894v-31.206c0-5.673 4.599-10.272 10.272-10.272h25.365v-39.838c-.001-15.379-10.863-27.261-24.427-30.08z" fill="#fc90d2"/><path d="m184.512 144.463-20.018-4.702c-2.848 5.345-7.148 10.002-12.461 13.612l12.347 2.9c13.564 2.819 24.426 14.701 24.426 30.081v28.027h20.133v-39.838c-.001-15.379-10.863-27.261-24.427-30.08z" fill="#fb74c4"/><path d="m87.8464 87.5883c.2123 9.8921 4.3689 19.4127 11.8789 25.8787 6.0457 5.206 14.5447 14.937 25.7697 15.063 11.226-.126 19.725-9.857 25.771-15.063 7.509-6.466 11.666-15.9866 11.878-25.8787l.054-49.8017h-75.7721z" fill="#fff0dc"/><path d="m143.054 37.7866-.042 59.7694c-.212 9.892-4.369 19.413-11.879 25.879-1.682 1.449-3.556 3.248-5.625 5.094 11.22-.132 19.714-9.858 25.758-15.062 7.509-6.466 11.666-15.9866 11.878-25.8787l.054-49.8017z" fill="#ffddce"/><path d="m177.912 66.5608s-13.977-1.1092-21.656-12.6359c-1.838-2.7596-5.526-3.5493-8.276-1.6962-12.893 8.6881-46.433 38.2316-75.2784 24.7553v-19.3422c0-26.6687 21.6191-48.2878 48.2874-48.2878h8.635c26.669 0 48.288 21.6191 48.288 48.2878z" fill="#fba615"/><path d="m129.624 9.354h-8.635c-1.946 0-3.862.1287-5.749.35222 23.4 2.77768 41.66 22.27898 42.496 46.22248 7.862 9.6533 20.176 10.6315 20.176 10.6315v-8.9184c0-26.6687-21.619-48.2878-48.288-48.2878z" fill="#fa9801"/><path d="m245.302 119.5c21.736 0 39.356-17.62 39.356-39.3551 0-21.7354-17.62-39.3553-39.356-39.3553-21.735 0-39.355 17.6199-39.355 39.3553 0 21.7351 17.62 39.3551 39.355 39.3551z" fill="#fbd307"/><path d="m245.302 40.7896c-3.48 0-6.852.4566-10.066 1.3044 16.857 4.4479 29.289 19.7954 29.289 38.0509 0 18.2556-12.432 33.6021-29.289 38.0511 3.213.848 6.586 1.304 10.066 1.304 21.736 0 39.356-17.62 39.356-39.3551 0-21.7354-17.62-39.3553-39.356-39.3553z" fill="#f9c301"/><path d="m144.45 244.741h-127.2212v-81.106c0-4.401 3.5679-7.969 7.9695-7.969h111.2827c4.401 0 7.97 3.567 7.97 7.969z" fill="#eff3f5"/><path d="m136.481 155.666h-20.028c4.401 0 7.969 3.567 7.969 7.969v81.106h20.029v-81.106c-.001-4.402-3.569-7.969-7.97-7.969z" fill="#e5ecf1"/><path d="m151.01 238.05h-140.3413c-3.55433 0-6.4353 2.881-6.4353 6.436 0 6.281 5.09193 11.373 11.3732 11.373h130.4664c6.281 0 11.373-5.092 11.373-11.373 0-3.555-2.881-6.436-6.436-6.436z" fill="#e5ecf1"/><path d="m280.163 279.646h-271.32649c-2.54229 0-4.60311-2.061-4.60311-4.603v-17.173c0-2.543 2.06082-4.603 4.60311-4.603h271.32649c2.543 0 4.604 2.06 4.604 4.603v17.173c0 2.541-2.061 4.603-4.604 4.603z" fill="#e7b467"/><path d="m280.163 253.267h-15.529v21.776c0 2.542-2.061 4.603-4.603 4.603h20.132c2.543 0 4.604-2.061 4.604-4.603v-17.173c0-2.543-2.061-4.603-4.604-4.603z" fill="#d7a85f"/><path d="m83.5266 206.268c6.1538 0 11.1423-4.989 11.1423-11.143s-4.9885-11.142-11.1423-11.142c-6.1537 0-11.1423 4.988-11.1423 11.142s4.9886 11.143 11.1423 11.143z" fill="#557981"/><g fill="#000"><path d="m252.544 93.3745c.827.8269 1.91 1.2401 2.994 1.2401 1.083 0 2.167-.4132 2.993-1.2401 1.654-1.6533 1.654-4.3334.001-5.9866l-8.996-8.9963v-17.4619c0-2.338-1.895-4.2334-4.234-4.2334-2.338 0-4.233 1.8954-4.233 4.2334v19.2151c0 1.1227.446 2.1991 1.239 2.9933z"/><path d="m280.163 249.033h-66.992c0-7.255 0-65.143 0-74.49 0-16.731-11.406-30.792-27.742-34.213l-5.389-1.266c1.384-3.643 2.106-7.527 2.106-11.463 0-9.795 0-62.9391 0-69.9592 0-28.9604-23.561-52.52119-52.521-52.52119h-8.635c-13.177 0-25.7786 4.90119-35.4849 13.80029-1.7233 1.5799-1.839 4.2577-.2591 5.9815 1.5799 1.7233 4.2576 1.8396 5.9815.2591 8.14-7.4632 18.7095-11.5735 29.7625-11.5735h8.635c24.292 0 44.054 19.7626 44.054 44.0544v3.7378c-2.274-.6807-5.12-1.8254-7.873-3.7259-.109-.0864-.221-.1677-.339-.2433-2.057-1.4721-4.047-3.3709-5.687-5.8325-3.129-4.698-9.449-6.0374-14.165-2.8601-12.249 8.2534-42.84 35.004-68.6795 25.4506v-16.5272c0-6.0362 1.1978-11.8834 3.5595-17.3783.9228-2.1484-.07-4.6376-2.2178-5.561-2.1472-.9229-4.6375.07-5.561 2.2177-2.8183 6.5573-4.2469 13.5294-4.2469 20.7216v69.9592c0 3.936.7214 7.82 2.106 11.463-3.4161 1.18-14.8643 1.513-24.4499 12.368h-20.9271c-6.7283 0-12.2029 5.474-12.2029 12.202v70.182h-2.3267c-5.8827.001-10.6687 4.787-10.6687 10.669 0 2.756.723064 5.407 2.05179 7.732-1.279618 1.533-2.05179 3.504-2.05179 5.653v17.173c0 4.872 3.96415 8.836 8.83651 8.836h271.32649c4.873 0 8.836-3.964 8.836-8.836v-17.173c.001-4.873-3.963-8.837-8.836-8.837zm-102.628 0v-24.38c0-3.329 2.709-6.038 6.038-6.038h21.132v30.418zm-27.691-117.063v-11.501c1.568-1.432 2.939-2.721 4.184-3.793 8.24-7.095 13.105-17.6643 13.348-28.9968.001-.0288.001-.0576.001-.0858l.021-19.4979c2.369.9934 4.547 1.6262 6.281 2.0264v57.4801c0 3.286-.683 6.519-1.983 9.502-26.875-6.314-19.091-4.485-21.852-5.134zm-6.674 21.466c-1.922-1.265-4.22-2.003-6.689-2.003h-33.016c-4.1805-2.4-7.7321-5.43-10.4996-8.931l13.0076-3.056c1.913-.45 3.265-2.156 3.265-4.121v-8.248c4.597 3.147 9.973 5.616 16.211 5.686h.047.047c6.069-.068 11.321-2.409 15.834-5.434v7.996c0 1.965 1.353 3.671 3.266 4.121l13.005 3.055c-3.636 4.606-8.602 8.368-14.478 10.935zm7.176-97.6964c.807-.5424 1.853-.2703 2.387.5329 1.836 2.7551 3.972 4.9852 6.204 6.7983l-.027 24.4684c-.202 8.919-3.994 17.1978-10.407 22.7198-5.919 5.098-13.636 13.903-23.008 14.037-9.366-.134-17.06-8.914-23.008-14.037-6.4233-5.53-10.217-13.8268-10.4078-22.7068l-.0248-2.9718c24.5136-1.7284 47.6816-21.6891 58.2916-28.8408zm-73.411 71.8614v-44.5226c2.2109.6372 4.4304 1.0747 6.6515 1.3338l.0276 3.2664c.2433 11.3326 5.1089 21.9004 13.3488 28.9964 1.1379.979 2.4215 2.178 3.8081 3.45v11.845c-5.0398 1.183-16.7313 3.93-21.8531 5.133-1.2999-2.982-1.9829-6.216-1.9829-9.502zm-9.9717 21.007c1.4422-.302-4.9271 1.158 17.0922-4.014 1.5794 2.448 3.4404 4.734 5.5447 6.838h-30.1893c2.3431-1.311 4.8877-2.27 7.5524-2.824zm-45.5011 15.026c0-2.059 1.6759-3.735 3.7361-3.735h111.2827c2.012 0 3.736 1.638 3.736 3.735v23.412c0 2.338 1.896 4.233 4.234 4.233s4.233-1.895 4.233-4.233v-23.412c0-1.113-.153-2.191-.433-3.216 7.674-3.697 14.01-9.16 18.308-15.824 22.822 5.361 15.668 3.718 17.093 4.014 12.396 2.576 21.053 13.24 21.053 25.935v35.605h-21.131c-7.999 0-14.505 6.507-14.505 14.505v24.38h-8.068c.442-1.456.679-2.985.679-4.548 0-5.882-4.786-10.668-10.668-10.668h-2.327v-26.945c0-2.338-1.895-4.233-4.234-4.233-2.338 0-4.233 1.895-4.233 4.233v26.945h-118.7558zm-10.7935 78.649h140.3413c1.214 0 2.202.988 2.202 2.202 0 1.682-.593 3.278-1.647 4.548h-141.45c-1.05496-1.27-1.6482-2.866-1.6482-4.548 0-1.214.98779-2.202 2.2019-2.202zm269.8643 32.759c0 .204-.166.37-.37.37h-271.32649c-.20376 0-.36971-.166-.36971-.37v-17.173c0-.204.16595-.37.36971-.37h271.32649c.204 0 .37.166.37.37z"/><path d="m83.5266 179.75c-8.4781 0-15.3751 6.898-15.3751 15.375 0 8.478 6.8976 15.376 15.3751 15.376 8.4781 0 15.3757-6.898 15.3757-15.376s-6.8976-15.375-15.3757-15.375zm0 22.284c-3.8095 0-6.9083-3.099-6.9083-6.909 0-3.809 3.0994-6.908 6.9083-6.908 3.8095 0 6.9089 3.099 6.9089 6.908 0 3.81-3.0994 6.909-6.9089 6.909z"/><path d="m245.302 123.734c24.035 0 43.589-19.554 43.589-43.5891 0-24.035-19.554-43.5887-43.589-43.5887s-43.588 19.5537-43.588 43.5887c0 24.0351 19.553 43.5891 43.588 43.5891zm0-78.7105c19.367 0 35.122 15.7556 35.122 35.122s-15.755 35.1215-35.122 35.1215c-19.366 0-35.122-15.7551-35.122-35.1215s15.756-35.122 35.122-35.122z"/></g></svg>