<svg fill="none" height="136" viewBox="0 0 152 136" width="152" xmlns="http://www.w3.org/2000/svg"><path d="m97.2803 12.1861 50.9277 84.3283c7.319 12.1116 3.724 28.0466-8.033 35.5866-3.946 2.54-8.546 3.894-13.247 3.899h-101.8631c-13.8397 0-25.0649-11.56-25.0649-25.833 0-4.828 1.3148-9.55 3.78481-13.6526l50.93539-84.3283c7.3112-12.111614 22.7696-15.82142 34.5269-8.28092 3.2528 2.08535 6.004 4.91871 8.0332 8.28092zm-21.2801 93.5919c2.0157 0 3.9488-.797 5.374-2.213 1.4253-1.417 2.226-3.339 2.226-5.3431 0-2.0039-.8007-3.9257-2.226-5.3426-1.4252-1.417-3.3583-2.213-5.374-2.213-2.0156 0-3.9487.796-5.374 2.213-1.4253 1.4169-2.226 3.3387-2.226 5.3426 0 2.0041.8007 3.9261 2.226 5.3431 1.4253 1.416 3.3584 2.213 5.374 2.213zm0-68.001c-2.0156 0-3.9487.796-5.374 2.213-1.4253 1.4169-2.226 3.3387-2.226 5.3426v30.2225c0 2.0039.8007 3.9257 2.226 5.3426 1.4253 1.417 3.3584 2.213 5.374 2.213 2.0157 0 3.9488-.796 5.374-2.213 1.4253-1.4169 2.226-3.3387 2.226-5.3426v-30.2225c0-2.0039-.8007-3.9257-2.226-5.3426-1.4252-1.417-3.3583-2.213-5.374-2.213z" fill="#e97000"/></svg>