<svg fill="none" height="130" viewBox="0 0 117 130" width="117" xmlns="http://www.w3.org/2000/svg"><circle cx="57.8343" cy="45.4964" r="44.3397" stroke="#000" stroke-width="2.31337"/><g fill="#000"><path d="m30.5984 124.873-1.4218-3.29h-7.109l-1.4015 3.29h-2.7218l6.3982-14.218h2.5999l6.4184 14.218zm-7.6371-5.362h5.3419l-2.6811-6.216zm11.964 5.362v-15.071h2.5389v15.071zm14.0569-10.846h2.417v14.786h-2.5389v-5.26c-.8734.995-2.0921 1.462-3.4733 1.462-3.1686 0-5.4841-2.193-5.4841-5.565 0-3.352 2.3155-5.545 5.4841-5.545 1.4828 0 2.7421.508 3.5952 1.543zm-3.3108 8.815c1.8483 0 3.2295-1.32 3.2295-3.392s-1.3812-3.392-3.2295-3.392c-1.8281 0-3.2092 1.32-3.2092 3.392s1.3811 3.392 3.2092 3.392zm17.0119-8.815h2.5389v10.846h-2.417v-1.381c-.8125.995-2.0921 1.523-3.4936 1.523-2.7827 0-4.6717-1.523-4.6717-4.793v-6.195h2.5389v5.849c0 1.971.9344 2.905 2.539 2.905 1.7671 0 2.9655-1.097 2.9655-3.27zm7.1428-1.788c-.9343 0-1.6249-.67-1.6249-1.523s.6906-1.524 1.6249-1.524c.9344 0 1.625.63 1.625 1.463 0 .894-.6703 1.584-1.625 1.584zm-1.2796 12.634v-10.846h2.539v10.846zm5.8713 0v-15.071h2.539v15.071zm16.0678-5.362c0 .203-.0204.508-.0407.751h-8.5105c.3047 1.585 1.6249 2.6 3.5139 2.6 1.2187 0 2.1733-.386 2.9452-1.178l1.3608 1.564c-.9749 1.158-2.4983 1.767-4.3669 1.767-3.6358 0-5.992-2.336-5.992-5.565 0-3.23 2.3765-5.545 5.606-5.545 3.1686 0 5.4842 2.214 5.4842 5.606zm-5.4842-3.575c-1.6452 0-2.8436 1.056-3.0873 2.64h6.1544c-.2031-1.564-1.4015-2.64-3.0671-2.64zm10.3401-.325c.7312-1.138 2.0514-1.706 3.8592-1.706v2.417c-.2235-.041-.4063-.061-.5891-.061-1.9296 0-3.1483 1.137-3.1483 3.351v5.261h-2.5389v-10.846h2.4171z"/><path clip-rule="evenodd" d="m41.3206 30.0221h-.0491-.0007c-.6549.0003-1.309.4532-1.46 1.1075-.1008.4033-.0501.8061.151 1.1587.2017.3522.5543.604.9064.7048.8061.2518 1.6623-.2518 1.9142-1.0574.1003-.4028.0501-.8061-.1515-1.1582-.2012-.3526-.5538-.6045-.9064-.7053-.1786-.0445-.2782-.0495-.4039-.0501zm3.0729-.2518c-.4639-.7427-1.1416-1.3141-1.9542-1.5964.1138-.6131.3024-1.1999.5557-1.7512 4.5799 1.4205 7.2525 6.1114 6.1926 10.7685-1.4332-.1269-2.7772-.6261-3.9378-1.5289-.453-.302-1.0574-.2518-1.4101.2016-.3019.4535-.2518 1.0574.2017 1.41 1.3277 1.0157 2.8372 1.6676 4.4581 1.9091-1.3728 2.9612-4.0453 5.1566-6.9762 5.5442-.3526.0507-.7052.3025-.8061.7053l-5.7915 20.2454-3.7771 2.2156-1.8129-3.3236 1.712-1.0073c.4535-.2518.6551-.8056.4033-1.3092l-.957-1.9643 1.8128-1.1582c.4033-.2518.5543-.8061.3526-1.259l-.9566-1.9643 1.863-1.2084c.4033-.3025.5543-.8061.3526-1.259l-1.1582-2.5688 1.9643-7.5542c.1004-.4028-.0506-.8056-.3526-1.0574-2.7699-2.2663-3.9281-6.0434-2.9209-9.6193.6546-2.3165 2.2156-4.2808 4.3309-5.4891 1.6004-.8763 3.4023-1.2627 5.2098-1.1155-.2659.6556-.4618 1.3475-.5779 2.0668-1.1866.3105-2.195 1.2214-2.5673 2.4731-.2518.9065-.151 1.8635.3025 2.6691.5036.8061 1.259 1.41 2.1654 1.6618.302.1009.6546.1515.9571.1515 1.561 0 2.971-1.0072 3.4245-2.6189.2518-.9064.151-1.8635-.3025-2.669zm6.8918 7.336c1.0079-5.3285-2.0119-10.639-7.1111-12.5054 1.4089-1.6168 3.4854-2.6366 5.7591-2.6366 3.1789 0 5.9995 1.9899 7.1173 4.9437-.8549.1416-1.6245.5427-2.3329 1.2507-.9065.9565-1.3092 1.9638-1.3092 3.3236v.1009l.4336 4.5649c-.0103.0057-.0206.0116-.0309.0178-.7722.4702-1.6341.7837-2.5259.9404zm2.7637 1.2188c-1.0552.5391-2.2087.8453-3.3792.9352-1.4216 3.692-4.6186 6.5474-8.1899 7.2802l-5.7409 20.0438c-.0507.2518-.2518.4535-.4535.6045l-5.0361 2.9208c-.151.151-.3526.2017-.5036.2017-.1009 0-.2017 0-.2518-.0507-.2518-.0502-.5037-.2518-.6045-.5036l-2.7699-5.137c-.2518-.5036-.1008-1.1075.4028-1.3593l1.6624-.9069-.9069-1.9137c-.2012-.4529-.0502-1.0072.3526-1.259l1.8133-1.1582-.9571-2.0145c-.2016-.4534-.0501-1.0072.3527-1.259l1.8634-1.2591-.957-2.1153c-.1009-.2011-.1009-.4529-.0502-.6546l1.9136-7.3024c-3.0216-2.7699-4.2305-7.1514-3.0723-11.3313.8061-2.8707 2.6695-5.288 5.288-6.7487 2.2446-1.2514 4.7482-1.6893 7.257-1.2818 1.7597-2.4608 4.6419-4.0562 7.8514-4.0562 4.2561 0 8.0582 2.8605 9.2501 6.9432l10.0889.913c1.2378 0 2.2057.8555 2.6484 1.2469.0256.0225.0494.0436.0713.0628l17.123 17.1229c.4027.4028.4027 1.0072 0 1.41l-14.8065 14.8567c-.151.2016-.4028.302-.7053.302-.2518 0-.5036-.1004-.7048-.302l-17.1229-17.1229c-.4028-.4028-1.3097-1.4607-1.3097-2.7197zm2.4313 4.2368-1.0574-11.1297c0-.8061.2017-1.3097.7554-1.8635.5036-.5036 1.0073-.7554 1.6117-.7554l11.3313 1.0574h.1009c.3521 0 .9064.3024 1.3593.7554l16.4182 16.4181-13.3458 13.396-16.4182-16.4177c-.4529-.4534-.7554-.957-.7554-1.3598zm9.5185 2.6189c-.2518 0-.5036-.1008-.7053-.302-.4027-.4033-.4027-1.0072 0-1.4105l4.8852-4.8847c.4028-.4032 1.0072-.4032 1.41 0 .4033.4028.4033 1.0073 0 1.4101l-4.8846 4.8851c-.2017.2012-.4535.302-.7053.302zm4.986 5.3887c.2012.2012.453.302.7048.302s.5036-.1008.7052-.302l4.8852-4.8851c.4028-.4028.4028-1.0073 0-1.4101-.4033-.4028-1.0072-.4028-1.4105 0l-4.8847 4.8852c-.4033.4028-.4033 1.0072 0 1.41z" fill-rule="evenodd"/></g></svg>