<svg fill="none" height="130" viewBox="0 0 117 130" width="117" xmlns="http://www.w3.org/2000/svg"><circle cx="57.8345" cy="45.4964" r="44.3397" stroke="#000" stroke-width="2.31337"/><g fill="#000"><path d="m33.1439 117.48c1.5234.487 2.5593 1.685 2.5593 3.534 0 2.437-1.9093 3.859-5.5654 3.859h-7.0685v-14.218h6.6622c3.4124 0 5.2404 1.442 5.2404 3.697 0 1.462-.7312 2.539-1.828 3.128zm-3.6967-4.753h-3.7373v3.92h3.7373c1.828 0 2.8639-.65 2.8639-1.95 0-1.32-1.0359-1.97-2.8639-1.97zm.5281 10.074c1.9905 0 3.067-.629 3.067-2.051s-1.0765-2.052-3.067-2.052h-4.2654v4.103zm18.4986-3.29c0 .203-.0203.508-.0406.751h-8.5106c.3047 1.585 1.625 2.6 3.5139 2.6 1.2187 0 2.1734-.386 2.9452-1.178l1.3609 1.564c-.975 1.158-2.4983 1.767-4.367 1.767-3.6358 0-5.9919-2.336-5.9919-5.565 0-3.23 2.3764-5.545 5.606-5.545 3.1686 0 5.4841 2.214 5.4841 5.606zm-5.4841-3.575c-1.6453 0-2.8436 1.056-3.0874 2.64h6.1544c-.2031-1.564-1.4015-2.64-3.067-2.64zm7.9229 8.937v-15.071h2.539v15.071zm5.8713 0v-15.071h2.539v15.071zm16.0678-5.362c0 .203-.0203.508-.0407.751h-8.5105c.3047 1.585 1.6249 2.6 3.5139 2.6 1.2187 0 2.1733-.386 2.9452-1.178l1.3609 1.564c-.975 1.158-2.4984 1.767-4.367 1.767-3.6358 0-5.992-2.336-5.992-5.565 0-3.23 2.3765-5.545 5.606-5.545 3.1687 0 5.4842 2.214 5.4842 5.606zm-5.4842-3.575c-1.6452 0-2.8436 1.056-3.0873 2.64h6.1544c-.2031-1.564-1.4015-2.64-3.0671-2.64zm10.1596 6.906h6.1341v2.031h-9.3636v-1.605l5.9513-7.21h-5.8294v-2.031h9.0793v1.604zm12.6181-8.937c3.128 0 4.9358 1.482 4.9358 4.61v6.358h-2.3968v-1.32c-.6094.934-1.7874 1.462-3.4124 1.462-2.478 0-4.042-1.361-4.042-3.25 0-1.807 1.2187-3.229 4.5092-3.229h2.803v-.163c0-1.482-.8937-2.356-2.7014-2.356-1.2187 0-2.478.406-3.2905 1.077l-.9953-1.849c1.1578-.893 2.8436-1.34 4.5904-1.34zm-.3453 9.262c1.2391 0 2.3156-.569 2.7421-1.686v-1.259h-2.6202c-1.7265 0-2.1936.65-2.1936 1.442 0 .914.7718 1.503 2.0717 1.503z"/><path d="m74.0128 58.3999c-.4373-.2341-.9821-.0697-1.2165.3677-.3806.7104-.8209 1.3867-1.3124 2.0227-1.127-1.4247-2.7152-2.4794-4.5812-2.9403l-4.4522-1.1002v-3.7068c1.3914-.8173 2.7148-1.8857 3.8867-3.1644.3353-.3659.3105-.9343-.0554-1.2697-.3658-.3352-.9341-.3105-1.2697.0554-2.5017 2.7296-5.8734 4.4254-8.7995 4.4254-1.6508 0-3.2401-.4481-4.7069-1.2149-.1172-.1164-.2664-.2-.433-.2379-3.2792-1.8848-5.8937-5.3511-7.1254-8.8776 5.0666-1.0026 9.2074-3.8788 11.8524-6.1932 2.2703-1.9864 4.2821-4.3182 5.6755-6.5248.7951 4.7634 3.0151 9.3136 7.4638 11.1379-.3948 1.6527-1.0132 3.2115-1.8425 4.6431-.2489.4294-.1024.9792.3269 1.228.4296.2488.9793.1023 1.228-.327.8976-1.5492 1.5701-3.2308 2.0065-5.0102.4296.0964.8711.1705 1.3256.2194.4944.054.9365-.304.9896-.7974.053-.4934-.304-.9365-.7974-.9896-.8239-.0885-1.5961-.2675-2.3159-.5363-.0006-.0002-.0012-.0005-.0018-.0006-.1022-.0382-.2032-.0781-.3033-.1199-.0007-.0003-.0013-.0006-.002-.0008-2.8707-1.1996-4.5839-3.7708-5.5676-6.7354-.0051-.0151-.0101-.0302-.0151-.0454-.9789-2.9773-.9959-5.7314-.9959-5.7599 0-.4318-.3076-.8032-.7322-.8835-.4255-.0804-.8459.1528-1.0036.555-2.0914 5.333-9.9882 13.3144-18.5821 14.5383-.0067.001-.0132.0028-.0198.004-.7461.1043-1.5099.1629-2.2905.1629-.4963 0-.8986.4022-.8986.8986s.4023.8986.8986.8986c.6027 0 1.2008-.0317 1.7936-.0915 1.3638 4.2671 3.8376 6.9835 5.7247 8.5342.6754.555 1.3835 1.0471 2.1101 1.4721v3.7013l-4.5078 1.1135c-.5452.1349-1.0694.3212-1.5696.5568v-5.5357c0-1.5557-1.8954-3.2019-3.5183-4.1388-1.1261-.6503-2.3003-1.0886-3.3062-1.2343-1.732-.2504-2.413.4413-2.666.8789-.1465.2552-.2208.5414-.2208.8506v11.5388c-.6997.3343-1.1856 1.047-1.1856 1.8727v4.2056c0 .4964.4023.8986.8986.8986s.8986-.4022.8986-.8986v-.9317h8.4878v7.3562c0 .154-.1252.2792-.2792.2792h-7.9294c-.154 0-.2792-.1252-.2792-.2792v-2.8301c0-.4964-.4023-.8986-.8986-.8986s-.8986.4022-.8986.8986v2.8301c0 1.1449.9314 2.0764 2.0764 2.0764h7.9294c1.145 0 2.0764-.9315 2.0764-2.0764v-2.4244h27.5756c.2482 0 .4853-.1025.6552-.2834.1699-.181.2572-.4241.2418-.6716l-.278-4.408c-.0688-1.0925-.3444-2.13-.7892-3.0733.7243-.8615 1.3604-1.7977 1.8934-2.7926.2339-.4375.0693-.9822-.3682-1.2166zm-31.9202-5.5852c-.3577.1305-1.7055.0283-3.4918-1.0032-1.7347-1.0014-2.5351-2.1032-2.6119-2.5255 1.5442-.5632 5.8898 2.2731 6.1037 3.5287zm-6.11-.665c.5439.4708 1.1484.8886 1.7195 1.2182 1.2313.711 2.9977 1.4198 4.3973 1.2657v5.9292h-6.1169zm7.3021 11.966h-8.4878v-1.4764c0-.154.1252-.2792.2791-.2792 7.3216.0002 7.8867.0002 7.9204.0002h.0016c.0016 0 .0031-.0002.0047-.0002h.0029c.1539 0 .2791.1252.2791.2792zm1.7972 4.9324v-4.0291c0-.0015.0002-.003.0002-.0046 0-.0017-.0002-.003-.0002-.0047v-2.3704c0-.8258-.4856-1.5382-1.1854-1.8726v-.3062c.6129-.3964 1.2837-.6882 2.0011-.8658l4.7879-1.1825c.6392-.158 1.0857-.7282 1.0857-1.3864v-3.0928c1.4901.6206 3.008.9538 4.4413.9538 1.4542 0 2.9646-.3309 4.4405-.9453v3.0974c0 .6572.4458 1.2272 1.0858 1.3864l4.7327 1.1694c1.7771.439 3.2342 1.5623 4.1134 3.0587.0231.0513.0513.1006.0843.1475.464.8385.7498 1.787.8134 2.7943l.2177 3.4529z"/><path d="m77.3442 22.1081c-2.1046-.5712-2.7581-1.2245-3.3291-3.3294-.1685-.6203-.7137-1.0369-1.3567-1.0369-.6429 0-1.1882.4167-1.3567 1.0371-.1636.6034-.3363 1.0767-.5357 1.459-.1125-.1181-.2259-.2353-.3412-.3506-3.7967-3.7966-8.8439-5.8874-14.2119-5.8874-11.0828 0-20.0991 9.0164-20.0991 20.0991v10.8194c0 .4963.4023.8986.8986.8986s.8986-.4022.8986-.8986v-10.8194c0-10.0917 8.2101-18.3018 18.3019-18.3018 4.888 0 9.4837 1.904 12.9408 5.361.1217.1216.2412.2458.3594.3708-.3949.2174-.8922.403-1.5409.5791-.6203.1685-1.0369.7138-1.0369 1.3567s.4167 1.1882 1.0371 1.3567c2.1046.571 2.7581 1.2244 3.3293 3.33.1686.6193.7138 1.0354 1.3565 1.0354.4175 0 .793-.1763 1.0518-.4695.5338 1.7326.8047 3.5346.8047 5.3816v8.0037c0 .4964.4023.8986.8986.8986.4964 0 .8987-.4022.8987-.8986v-8.0037c0-2.6929-.5229-5.2999-1.5534-7.7571.4948-.7321 1.2249-1.151 2.5857-1.5204l.0005-.0003c.6194-.1686 1.0355-.7137 1.0355-1.3564s-.4161-1.1879-1.0361-1.3567zm-4.3889 3.7562c-.0019.0039-.0038.0078-.0058.0117-.001.0018-.002.0036-.0028.0055-.102.1975-.1983.4106-.2896.6418-.6144-1.5456-1.5129-2.4437-3.0584-3.0579.7923-.3133 1.3913-.6904 1.8729-1.1701.0033-.0032.0062-.0066.0093-.0099.0042-.0044.0082-.0087.0124-.0131.4776-.4822.8537-1.0796 1.1654-1.8672.6137 1.5447 1.5111 2.443 3.0541 3.0573-1.1712.4594-2.1 1.1384-2.7575 2.4019z"/><path d="m85.492 64.8214-3.4784-9.5568c-.0999-.2746-.2623-.5146-.4721-.7062l.9669-7.5947c.1371-1.0751-.2867-2.121-1.1334-2.7976-.8466-.6766-1.9602-.8594-2.9789-.4886l-2.2315.8122c-.0023.0009-.0047.0012-.0069.0021l-3.2488 1.1824c-.0021.0007-.0041.0019-.0062.0026l-2.2319.8124c-1.0185.3708-1.7541 1.2264-1.9679 2.289-.2136 1.0626.134 2.1362.93 2.8718l5.6225 5.1962c-.0376.2816-.0077.5698.0922.8445l1.0575 2.9053c.0002.0004.0003.0008.0004.0013.0001.0002.0002.0004.0004.0007l2.4201 6.6493c1.0714 2.9445 5.2094 3.1562 6.5476.286.4004-.8584.4425-1.8216.1184-2.7119zm-9.1272-9.3967-5.5122-5.0942c-.337-.3114-.4781-.7478-.3877-1.1976.0905-.4498.3895-.7976.8206-.9545l.6656-.2423c.0864.7683.3755 1.6173.8273 2.3335l1.0136 1.6071c.1708.271.4626.4194.7609.4194.1638 0 .3297-.0448.4786-.1387.4197-.2647.5455-.8196.2807-1.2395l-1.0135-1.6072c-.4968-.7874-.6143-1.6719-.5713-2.0211l2.8419-1.0344c.2575.2399.736.993.8616 1.9156l.2566 1.8826c.0672.4917.5223.8362 1.0118.7691.4917-.0671.836-.5202.7691-1.0118l-.2567-1.8825c-.1144-.8392-.4386-1.6754-.8663-2.3194.3408-.0461 1.1106-.6758 1.9077-.0386.3584.2864.5307.7115.4726 1.1665l-.948 7.4458c-.017.0056-.0341.0097-.051.0158l-3.3126 1.2057c-.017.0061-.0328.0141-.0493.0207zm.823 2.0674 3.2883-1.1968.5991 1.6461-3.2883 1.1969zm4.2316 10.1282c-.4235-.1975-.7449-.5482-.9047-.9874l-2.1131-5.8057 3.2884-1.1968 2.1132 5.8057c.5361 1.4728-.9859 2.8358-2.3838 2.1842z"/></g></svg>