<svg fill="none" height="130" viewBox="0 0 117 130" width="117" xmlns="http://www.w3.org/2000/svg"><circle cx="57.8345" cy="45.4964" r="44.3397" stroke="#000" stroke-width="2.31337"/><g fill="#000"><path d="m13.0268 124.873v-14.218h6.2153c4.6107 0 7.759 2.843 7.759 7.109 0 4.265-3.1483 7.109-7.759 7.109zm2.6405-2.234h3.4529c3.1686 0 5.2201-1.93 5.2201-4.875s-2.0515-4.875-5.2201-4.875h-3.4529zm24.093-3.128c0 .203-.0203.508-.0406.751h-8.5106c.3047 1.585 1.6249 2.6 3.5139 2.6 1.2187 0 2.1734-.386 2.9452-1.178l1.3609 1.564c-.975 1.158-2.4983 1.767-4.367 1.767-3.6358 0-5.9919-2.336-5.9919-5.565 0-3.23 2.3764-5.545 5.606-5.545 3.1686 0 5.4841 2.214 5.4841 5.606zm-5.4841-3.575c-1.6453 0-2.8437 1.056-3.0874 2.64h6.1544c-.2031-1.564-1.4015-2.64-3.067-2.64zm13.9351-2.031c3.1687 0 5.5045 2.193 5.5045 5.545 0 3.372-2.3358 5.565-5.5045 5.565-1.3811 0-2.5998-.467-3.4732-1.462v5.26h-2.539v-14.786h2.4171v1.421c.8531-1.035 2.1124-1.543 3.5951-1.543zm-.2843 8.937c1.828 0 3.2092-1.32 3.2092-3.392s-1.3812-3.392-3.2092-3.392c-1.8281 0-3.2296 1.32-3.2296 3.392s1.4015 3.392 3.2296 3.392zm13.0714 2.173c-3.3311 0-5.7684-2.315-5.7684-5.565s2.4373-5.545 5.7684-5.545c3.3718 0 5.7888 2.295 5.7888 5.545s-2.417 5.565-5.7888 5.565zm0-2.173c1.8484 0 3.2296-1.32 3.2296-3.392s-1.3812-3.392-3.2296-3.392c-1.828 0-3.2092 1.32-3.2092 3.392s1.3812 3.392 3.2092 3.392zm10.6338-7.231c.7312-1.138 2.0515-1.706 3.8592-1.706v2.417c-.2234-.041-.4062-.061-.589-.061-1.9296 0-3.1483 1.137-3.1483 3.351v5.261h-2.539v-10.846h2.4171zm12.2188 6.865.7109 1.808c-.6093.487-1.5233.731-2.4373.731-2.3765 0-3.7374-1.259-3.7374-3.656v-5.22h-1.7874v-2.031h1.7874v-2.478h2.539v2.478h2.9045v2.031h-2.9045v5.159c0 1.056.5281 1.625 1.503 1.625.5281 0 1.0359-.142 1.4218-.447zm12.6389-2.965c0 .203-.0203.508-.0406.751h-8.5106c.3047 1.585 1.625 2.6 3.514 2.6 1.2186 0 2.1733-.386 2.9451-1.178l1.3609 1.564c-.9749 1.158-2.4983 1.767-4.367 1.767-3.6358 0-5.9919-2.336-5.9919-5.565 0-3.23 2.3765-5.545 5.606-5.545 3.1686 0 5.4841 2.214 5.4841 5.606zm-5.4841-3.575c-1.6452 0-2.8436 1.056-3.0874 2.64h6.1544c-.2031-1.564-1.4015-2.64-3.067-2.64zm11.2742 9.079c-1.808 0-3.6153-.528-4.5903-1.219l.975-1.929c.9546.63 2.4173 1.076 3.7783 1.076 1.604 0 2.275-.446 2.275-1.198 0-2.072-6.7033-.122-6.7033-4.448 0-2.052 1.8484-3.392 4.7733-3.392 1.442 0 3.087.345 4.062.934l-.975 1.93c-1.036-.61-2.071-.813-3.107-.813-1.544 0-2.275.508-2.275 1.219 0 2.194 6.703.244 6.703 4.489 0 2.031-1.869 3.351-4.916 3.351z"/><path d="m58.3597 19c-14.5579 0-26.3597 11.8018-26.3597 26.3597s11.8018 26.3597 26.3597 26.3597 26.3597-11.8018 26.3597-26.3597c-.0163-14.551-11.8087-26.3434-26.3597-26.3597zm20.4137 12.644-1.8268 7.7654-9.6245 3.2079-8.0838-6.4659v-9.5275l9.2259-3.6901c4.1771 1.8924 7.7458 4.9077 10.3092 8.7102zm.1467 27.1988-8.7136 1.3759-4.7446-6.2677 2.4171-9.6652 9.5177-3.1718 5.4521 6.5423c-.3716 3.9947-1.7209 7.8367-3.9287 11.1865zm-32.3686 1.382-8.7523-1.382c-2.2078-3.3507-3.5567-7.1935-3.9278-11.1891l5.4479-6.5423 9.5176 3.1718 2.4172 9.6704zm-12.7865-15.1929c.0468-3.9196 1.0357-7.771 2.8831-11.2282l1.4253 6.0627zm19.1301 8.2357-2.3309-9.3332 7.7955-6.2359 7.7972 6.2385-2.3327 9.3306zm25.7509-13.4047 1.4252-6.0626c1.8474 3.4571 2.8364 7.3081 2.8831 11.2282zm-12.5779-17.8623-7.7084 3.0831-7.7496-3.0689c5.0162-1.6719 10.4387-1.6767 15.458-.0142zm-17.855.9534 9.2679 3.6729v9.5245l-8.0838 6.4659-9.6244-3.2079-1.8269-7.7654c2.5549-3.7888 6.1082-6.7963 10.2672-8.69zm-8.9457 37.8997 7.1425 1.1284 4.3195 6.7658c-4.4989-1.4776-8.4777-4.2178-11.462-7.8942zm13.9812 8.5708-5.2432-8.2087 4.643-6.1909h11.4225l4.7095 6.2209-4.5687 8.0071c-3.594.885-7.3416.9451-10.9622.1759zm13.4038-.9044 3.745-6.5539 7.058-1.1133c-2.8354 3.4918-6.571 6.1428-10.803 7.6672z"/></g></svg>