<svg fill="none" height="130" viewBox="0 0 117 130" width="117" xmlns="http://www.w3.org/2000/svg"><circle cx="57.8343" cy="45.4964" r="44.3397" stroke="#000" stroke-width="2.31337"/><g fill="#000"><path d="m4.966 122.659h8.0231v2.214h-10.66361v-14.218h10.37921v2.214h-7.7387v3.697h6.8653v2.173h-6.8653zm10.7229 2.214v-15.071h2.539v15.071zm16.0678-5.362c0 .203-.0204.508-.0407.751h-8.5105c.3047 1.585 1.6249 2.6 3.5139 2.6 1.2187 0 2.1733-.386 2.9452-1.178l1.3608 1.564c-.9749 1.158-2.4983 1.767-4.3669 1.767-3.6358 0-5.992-2.336-5.992-5.565 0-3.23 2.3765-5.545 5.606-5.545 3.1686 0 5.4842 2.214 5.4842 5.606zm-5.4842-3.575c-1.6452 0-2.8436 1.056-3.0873 2.64h6.1544c-.2031-1.564-1.4015-2.64-3.0671-2.64zm12.8993 9.079c-3.4326 0-5.87-2.315-5.87-5.565s2.4374-5.545 5.87-5.545c2.1124 0 3.7983.873 4.6311 2.518l-1.95 1.138c-.6499-1.036-1.6249-1.503-2.7014-1.503-1.8687 0-3.2905 1.3-3.2905 3.392 0 2.112 1.4218 3.392 3.2905 3.392 1.0765 0 2.0515-.467 2.7014-1.503l1.95 1.137c-.8328 1.625-2.5187 2.539-4.6311 2.539zm12.7738-2.539.7109 1.808c-.6094.487-1.5234.731-2.4374.731-2.3765 0-3.7373-1.259-3.7373-3.656v-5.22h-1.7875v-2.031h1.7875v-2.478h2.5389v2.478h2.9046v2.031h-2.9046v5.159c0 1.056.5281 1.625 1.5031 1.625.5281 0 1.0359-.142 1.4218-.447zm5.2166-6.865c.7312-1.138 2.0514-1.706 3.8592-1.706v2.417c-.2235-.041-.4063-.061-.5891-.061-1.9296 0-3.1483 1.137-3.1483 3.351v5.261h-2.5389v-10.846h2.4171zm9.0621-3.067 2.7421-2.783h2.9858l-3.5342 2.783zm1.7265 12.471c-3.3311 0-5.7685-2.315-5.7685-5.565s2.4374-5.545 5.7685-5.545c3.3717 0 5.7888 2.295 5.7888 5.545s-2.4171 5.565-5.7888 5.565zm0-2.173c1.8483 0 3.2295-1.32 3.2295-3.392s-1.3812-3.392-3.2295-3.392c-1.8281 0-3.2092 1.32-3.2092 3.392s1.3811 3.392 3.2092 3.392zm14.3711-8.937c2.5999 0 4.5295 1.482 4.5295 4.753v6.215h-2.539v-5.89c0-1.93-.9546-2.864-2.5796-2.864-1.8077 0-3.0264 1.097-3.0264 3.27v5.484h-2.5389v-10.846h2.417v1.401c.8328-.995 2.1531-1.523 3.7374-1.523zm9.0299-1.666c-.9343 0-1.6249-.67-1.6249-1.523s.6906-1.524 1.6249-1.524 1.6249.63 1.6249 1.463c0 .894-.6703 1.584-1.6249 1.584zm-1.2796 12.634v-10.846h2.5389v10.846zm10.8478.142c-3.4328 0-5.8702-2.315-5.8702-5.565s2.4374-5.545 5.8702-5.545c2.112 0 3.798.873 4.631 2.518l-1.95 1.138c-.65-1.036-1.625-1.503-2.701-1.503-1.8692 0-3.291 1.3-3.291 3.392 0 2.112 1.4218 3.392 3.291 3.392 1.076 0 2.051-.467 2.701-1.503l1.95 1.137c-.833 1.625-2.519 2.539-4.631 2.539zm10.969-11.11c3.128 0 4.936 1.482 4.936 4.61v6.358h-2.397v-1.32c-.609.934-1.787 1.462-3.412 1.462-2.478 0-4.042-1.361-4.042-3.25 0-1.807 1.218-3.229 4.509-3.229h2.803v-.163c0-1.482-.894-2.356-2.701-2.356-1.219 0-2.478.406-3.291 1.077l-.995-1.849c1.158-.893 2.843-1.34 4.59-1.34zm-.345 9.262c1.239 0 2.315-.569 2.742-1.686v-1.259h-2.62c-1.727 0-2.194.65-2.194 1.442 0 .914.772 1.503 2.072 1.503z"/><path d="m57.5357 60.2241c7.088 0 12.8546-5.7665 12.8546-12.8546 0-7.088-5.7665-12.8545-12.8546-12.8545s-12.8545 5.7666-12.8545 12.8547c0 7.0879 5.7665 12.8544 12.8545 12.8544zm0-24.166c6.2372 0 11.3115 5.0743 11.3115 11.3114 0 6.2372-5.0743 11.3115-11.3115 11.3115-6.2371 0-11.3115-5.0743-11.3115-11.3115 0-6.2371 5.0744-11.3114 11.3115-11.3114z"/><path d="m57.5357 56.4225c4.9918 0 9.053-4.0612 9.053-9.053 0-4.9919-4.0612-9.053-9.053-9.053-4.9919 0-9.053 4.0611-9.053 9.053 0 4.9918 4.0611 9.053 9.053 9.053zm0-16.563c4.141 0 7.5099 3.369 7.5099 7.5101 0 4.141-3.3689 7.5098-7.5099 7.5098-4.1411 0-7.51-3.3689-7.51-7.5099 0-4.1411 3.3689-7.51 7.51-7.51z"/><path d="m73.8725 60.4385h-7.4721c-1.0895 0-1.9758.8863-1.9758 1.9758v4.0756c0 1.0895.8863 1.9758 1.9758 1.9758h1.911c.4261 0 .7715-.3454.7715-.7715s-.3454-.7715-.7715-.7715h-1.911c-.2387 0-.4328-.1941-.4328-.4328v-4.0756c0-.2387.1941-.4328.4328-.4328h7.4721c.2387 0 .4328.1941.4328.4328v4.0756c0 .2387-.1941.4328-.4328.4328h-1.9349c-.4261 0-.7716.3454-.7716.7715s.3455.7715.7716.7715h1.9349c1.0895 0 1.9759-.8863 1.9759-1.9758v-4.0756c-.0001-1.0895-.8865-1.9758-1.9759-1.9758z"/><path d="m76.5313 19h-37.9911c-1.4007 0-2.5402 1.1395-2.5402 2.5402v2.474c0 .4261.3455.7715.7715.7715.4261 0 .7716-.3454.7716-.7715v-2.474c0-.5498.4473-.9971.9971-.9971h37.991c.5498 0 .9971.4474.9971.9971v7.7031h-39.9852v-1.7315c0-.4261-.3455-.7715-.7716-.7715-.426 0-.7715.3454-.7715.7715v41.6673c0 1.4007 1.1395 2.5403 2.5402 2.5403h37.991c1.4007 0 2.5402-1.1396 2.5402-2.5403v-47.6389c.0001-1.4007-1.1395-2.5402-2.5401-2.5402zm.9971 50.1791c0 .5499-.4473.9972-.9971.9972h-37.9911c-.5498 0-.9971-.4474-.9971-.9972v-38.3927h39.9853z"/><path d="m53.6932 27.6831c.9142 0 1.6578-.7437 1.6578-1.6578v-2.2643c0-.9142-.7437-1.6578-1.6578-1.6578h-11.2544c-.9141 0-1.6578.7437-1.6578 1.6578v2.2644c0 .9141.7437 1.6578 1.6578 1.6578zm-11.3691-1.6578v-2.2643c0-.0634.0515-.1149.1147-.1149h11.2544c.0634 0 .1148.0515.1148.1149v2.2644c0 .0632-.0514.1147-.1148.1147h-11.2544c-.0632 0-.1147-.0515-.1147-.1148z"/><path d="m62.206 24.8933c0-1.3561-1.1031-2.4593-2.4592-2.4593s-2.4592 1.1032-2.4592 2.4593c0 1.356 1.1032 2.4592 2.4592 2.4592 1.3561-.0001 2.4592-1.1033 2.4592-2.4592zm-3.3753 0c0-.5052.4109-.9162.9162-.9162.5051 0 .9162.4109.9162.9162 0 .5052-.411.9162-.9162.9162-.5053-.0001-.9162-.4111-.9162-.9162z"/><path d="m68.2483 24.8933c0-1.3561-1.1032-2.4593-2.4593-2.4593s-2.4592 1.1032-2.4592 2.4593c0 1.356 1.1032 2.4592 2.4592 2.4592 1.3561-.0001 2.4593-1.1033 2.4593-2.4592zm-3.3754 0c0-.5052.4109-.9162.9162-.9162.5052 0 .9162.4109.9162.9162 0 .5052-.4109.9162-.9162.9162-.5053-.0001-.9162-.4111-.9162-.9162z"/><path d="m74.2905 24.8933c0-1.3561-1.1032-2.4593-2.4593-2.4593-1.356 0-2.4591 1.1032-2.4591 2.4593 0 1.356 1.1032 2.4592 2.4591 2.4592 1.3561-.0001 2.4593-1.1033 2.4593-2.4592zm-3.3755 0c0-.5052.411-.9162.9162-.9162s.9162.4109.9162.9162c0 .5052-.4109.9162-.9162.9162-.5051-.0001-.9162-.4111-.9162-.9162z"/><path d="m44.3833 68.4487c.5651 0 1.0232-.4581 1.0232-1.0232s-.4581-1.0232-1.0232-1.0232-1.0232.4581-1.0232 1.0232.4581 1.0232 1.0232 1.0232z"/><path d="m43.2096 64.7598c-.274 0-.5394-.1461-.6793-.4038-.2036-.3748-.0648-.8436.3099-1.0471.4804-.261 1.0246-.3989 1.5739-.3989.5177 0 1.034.1232 1.4931.3563.3803.1932.532.658.3389 1.0383-.1931.3802-.6578.532-1.0382.3388-.2468-.1254-.5139-.1889-.7937-.1889-.2967 0-.5782.0711-.8366.2115-.1172.0635-.2435.0938-.368.0938z"/><path d="m48.138 62.2977c-.1362 0-.2742-.036-.3992-.1117-.996-.6031-2.1415-.9219-3.3129-.9219-1.1712 0-2.3167.3187-3.3126.9218-.365.221-.8397.1042-1.0606-.2606-.221-.3648-.1042-.8397.2606-1.0606 1.2374-.7491 2.6595-1.1452 4.1128-1.1452s2.8755.3961 4.1128 1.1454c.3648.2209.4815.6957.2606 1.0605-.1453.2397-.4001.3723-.6615.3723z"/></g></svg>