<svg width="44" height="44" viewBox="0 0 44 44" fill="none" xmlns="http://www.w3.org/2000/svg">
<g filter="url(#filter0_d_11_17804)">
<rect x="7" y="7" width="30" height="30" rx="15" fill="#003778"/>
</g>
<path d="M17.9407 29.8321C17.4698 29.8321 17.0665 29.658 16.7309 29.31C16.3952 28.9619 16.2277 28.544 16.2283 28.0562V16.5134H15.3721V14.7375H19.6531V13.8496H24.7903V14.7375H29.0713V16.5134H28.2151V28.0562C28.2151 28.5446 28.0473 28.9628 27.7117 29.3109C27.376 29.6589 26.9731 29.8327 26.5027 29.8321H17.9407ZM19.6531 26.2804H21.3655V18.2892H19.6531V26.2804ZM23.0779 26.2804H24.7903V18.2892H23.0779V26.2804Z" fill="white"/>
<defs>
<filter id="filter0_d_11_17804" x="0.166666" y="0.166666" width="43.6667" height="43.6667" filterUnits="userSpaceOnUse" color-interpolation-filters="sRGB">
<feFlood flood-opacity="0" result="BackgroundImageFix"/>
<feColorMatrix in="SourceAlpha" type="matrix" values="0 0 0 0 0 0 0 0 0 0 0 0 0 0 0 0 0 0 127 0" result="hardAlpha"/>
<feMorphology radius="1.13889" operator="dilate" in="SourceAlpha" result="effect1_dropShadow_11_17804"/>
<feOffset/>
<feGaussianBlur stdDeviation="2.84722"/>
<feComposite in2="hardAlpha" operator="out"/>
<feColorMatrix type="matrix" values="0 0 0 0 0 0 0 0 0 0 0 0 0 0 0 0 0 0 0.15 0"/>
<feBlend mode="normal" in2="BackgroundImageFix" result="effect1_dropShadow_11_17804"/>
<feBlend mode="normal" in="SourceGraphic" in2="effect1_dropShadow_11_17804" result="shape"/>
</filter>
</defs>
</svg>
