<svg fill="none" height="130" viewBox="0 0 117 130" width="117" xmlns="http://www.w3.org/2000/svg"><circle cx="57.8345" cy="45.4964" r="44.3397" stroke="#000" stroke-width="2.31337"/><g fill="#000"><path d="m18.4839 122.659h8.0231v2.214h-10.6636v-14.218h10.3792v2.214h-7.7387v3.697h6.8653v2.173h-6.8653zm24.4129-8.754c2.6202 0 4.4483 1.482 4.4483 4.753v6.215h-2.539v-5.89c0-1.93-.8937-2.864-2.4374-2.864-1.6655 0-2.8233 1.097-2.8233 3.25v5.504h-2.5389v-5.89c0-1.93-.8937-2.864-2.4374-2.864-1.6859 0-2.8233 1.097-2.8233 3.25v5.504h-2.539v-10.846h2.4171v1.381c.8125-.975 2.0718-1.503 3.5545-1.503 1.5844 0 2.9046.589 3.6561 1.807.8734-1.117 2.3359-1.807 4.0623-1.807zm13.705 0c3.1686 0 5.5044 2.193 5.5044 5.545 0 3.372-2.3358 5.565-5.5044 5.565-1.3812 0-2.5999-.467-3.4733-1.462v5.26h-2.539v-14.786h2.4171v1.421c.8531-1.035 2.1124-1.543 3.5952-1.543zm-.2844 8.937c1.8281 0 3.2092-1.32 3.2092-3.392s-1.3811-3.392-3.2092-3.392c-1.828 0-3.2295 1.32-3.2295 3.392s1.4015 3.392 3.2295 3.392zm8.1967 2.031v-15.071h2.5389v15.071zm16.0677-5.362c0 .203-.0203.508-.0406.751h-8.5106c.3047 1.585 1.625 2.6 3.5139 2.6 1.2187 0 2.1734-.386 2.9452-1.178l1.3609 1.564c-.975 1.158-2.4983 1.767-4.367 1.767-3.6358 0-5.9919-2.336-5.9919-5.565 0-3.23 2.3765-5.545 5.606-5.545 3.1686 0 5.4841 2.214 5.4841 5.606zm-5.4841-3.575c-1.6452 0-2.8436 1.056-3.0874 2.64h6.1544c-.2031-1.564-1.4015-2.64-3.067-2.64zm12.7977 9.079c-3.3311 0-5.7685-2.315-5.7685-5.565s2.4374-5.545 5.7685-5.545c3.3717 0 5.7888 2.295 5.7888 5.545s-2.4171 5.565-5.7888 5.565zm0-2.173c1.8484 0 3.2296-1.32 3.2296-3.392s-1.3812-3.392-3.2296-3.392c-1.828 0-3.2092 1.32-3.2092 3.392s1.3812 3.392 3.2092 3.392zm11.5681 2.173c-1.8077 0-3.6155-.528-4.5904-1.219l.9749-1.929c.9547.63 2.4171 1.076 3.778 1.076 1.605 0 2.275-.446 2.275-1.198 0-2.072-6.7029-.122-6.7029-4.448 0-2.052 1.8483-3.392 4.7732-3.392 1.4417 0 3.0877.345 4.0627.934l-.975 1.93c-1.036-.61-2.072-.813-3.108-.813-1.5437 0-2.2749.508-2.2749 1.219 0 2.194 6.7029.244 6.7029 4.489 0 2.031-1.869 3.351-4.9155 3.351z"/><path d="m84.6598 37.0828c-.1086-.1087-.2191-.2147-.3305-.3196v-3.4337c0-3.4145-2.7779-6.1924-6.1923-6.1924h-10.8619v-3.1119c0-3.3224-2.703-6.0252-6.0252-6.0252h-10.1702c-3.3224 0-6.0252 2.7028-6.0252 6.0252v3.1119h-10.8622c-3.4144 0-6.1923 2.7779-6.1923 6.1924v27.5633c0 3.4144 2.7779 6.1923 6.1923 6.1923h12.9287c.4935 0 .8936-.4001.8936-.8935 0-.4935-.4001-.8936-.8936-.8936h-12.9287c-2.4291 0-4.4053-1.9762-4.4053-4.4053v-18.026c1.7497 2.5953 4.6279 4.3697 7.9251 4.6141v3.2532c0 1.858 1.5117 3.3697 3.3697 3.3697 1.8581 0 3.3697-1.5117 3.3697-3.3697v-3.2241h14.9318c0 .0143-.0005.0285-.0005.0428 0 3.0427.9125 5.9449 2.6065 8.3955l-1.897 1.897c-.6624-.1875-1.4047-.022-1.9249.4986l-7.2866 7.2865c-1.4423 1.4423-1.4423 3.7891 0 5.2314 1.4457 1.4457 3.7857 1.4459 5.2315 0l7.2865-7.2865c.5204-.5204.686-1.2625.4986-1.9249l1.8987-1.8987c5.0209 3.4581 11.7137 3.4691 16.7464.028v1.1132c0 2.4291-1.9762 4.4053-4.4054 4.4053h-14.1139c-.4934 0-.8935.4001-.8935.8936s.4001.8935.8935.8935h14.1138c3.4144 0 6.1923-2.7779 6.1923-6.1923v-2.5505c.1113-.1046.2218-.2106.3305-.3194 5.7866-5.7865 5.7873-15.153 0-20.9402zm-37.8184-13.0576c0-2.337 1.9012-4.2382 4.2382-4.2382h10.1702c2.3369 0 4.2382 1.9012 4.2382 4.2382v3.1119h-1.9062v-3.1119c0-1.2859-1.0462-2.3321-2.332-2.3321h-10.1702c-1.2859 0-2.3321 1.0462-2.3321 2.3321v3.1119h-1.9061zm3.6931 3.1119v-3.1119c0-.3005.2445-.545.5451-.545h10.1702c.3006 0 .545.2445.545.545v3.1119zm-7.87 20.8505h-3.1653v-3.0081c0-.8727.71-1.5826 1.5827-1.5826s1.5826.7099 1.5826 1.5826zm-1.5826 4.3292c-.8727 0-1.5827-.71-1.5827-1.5827v-.9595h3.1653v.9595c0 .8727-.7099 1.5827-1.5826 1.5827zm3.3696-6.5937v-.7436c0-1.858-1.5116-3.3696-3.3697-3.3696-1.858 0-3.3697 1.5116-3.3697 3.3696v.7066c-4.436-.3974-7.9251-4.1337-7.9251-8.6713v-3.6853c0-2.4292 1.9762-4.4054 4.4053-4.4054h43.9447c2.4292 0 4.4053 1.9762 4.4053 4.4054v1.9933c-5.6502-3.8765-13.6093-3.4536-18.8226 1.7598-2.3608 2.3607-3.8261 5.3782-4.2256 8.6404h-15.0426zm10.3971 23.8752c-.7473.7472-1.9569.7473-2.7043 0-.3612-.3613-.5601-.8414-.5601-1.3522 0-.5107.1989-.991.5601-1.3521l5.0479-5.0479 2.7042 2.7043zm7.2865-7.2866-.975.9751-2.7043-2.7043.975-.975c.0344-.0342.0793-.0514.1242-.0514s.0898.0172.124.0513c.0003.0001.0004.0003.0006.0004l2.4555 2.4555c.0684.0685.0684.1799 0 .2484zm.6746-2.101-1.2779-1.2779 1.5687-1.5687c.1992.2245.4051.4447.6192.6587.2145.2146.4347.4202.6589.6188zm2.1736-3.4514c-2.4592-2.4591-3.8135-5.7287-3.8135-9.2065 0-3.4777 1.3543-6.7474 3.8135-9.2064 5.088-5.0882 13.3242-5.0889 18.4129 0 5.0882 5.088 5.0889 13.3242 0 18.4129-5.0882 5.0883-13.3242 5.0889-18.4129 0z"/><path d="m83.9925 48.7798c-.4822-.1049-.9583.2008-1.063.6832-.3636 1.672-1.1986 3.1987-2.4148 4.4148-3.4957 3.4956-9.1538 3.4959-12.6498 0-3.4876-3.4876-3.4876-9.1623 0-12.6499 3.4957-3.4957 9.1538-3.4961 12.6498 0 1.2149 1.2149 2.0496 2.7399 2.4138 4.4101.1051.4822.5813.7883 1.0634.6827.4821-.1051.7877-.5812.6826-1.0633-.4372-2.0054-1.4387-3.8357-2.896-5.2931-4.1941-4.1941-10.9825-4.1946-15.1771 0-4.1843 4.1843-4.1843 10.9927 0 15.1771 4.1842 4.1842 10.9925 4.1844 15.1771 0 1.4588-1.4589 2.4607-3.2912 2.8972-5.2987.1048-.4821-.2011-.958-.6832-1.0629z"/></g></svg>