<?xml version="1.0" encoding="UTF-8"?>
<!DOCTYPE svg PUBLIC "-//W3C//DTD SVG 1.1//EN" "http://www.w3.org/Graphics/SVG/1.1/DTD/svg11.dtd">
<!-- Creator: CorelDRAW -->
<svg xmlns="http://www.w3.org/2000/svg" xml:space="preserve" width="2.83333in" height="2.83333in" style="shape-rendering:geometricPrecision; text-rendering:geometricPrecision; image-rendering:optimizeQuality; fill-rule:evenodd; clip-rule:evenodd"
viewBox="0 0 2.83333 2.83333"
 xmlns:xlink="http://www.w3.org/1999/xlink">
 <defs>
  <style type="text/css">
   <![CDATA[
    .fil1 {fill:#FEFEFE}
    .fil0 {fill:url(#id0)}
   ]]>
  </style>
  <linearGradient id="id0" gradientUnits="userSpaceOnUse" x1="1.41666" y1="2.83333" x2="1.41666" y2="-3.93701e-006">
   <stop offset="0" style="stop-color:#262261"/>
   <stop offset="0.0117647" style="stop-color:#262261"/>
   <stop offset="0.0196078" style="stop-color:#262261"/>
   <stop offset="0.0313725" style="stop-color:#262261"/>
   <stop offset="0.0392157" style="stop-color:#262261"/>
   <stop offset="0.0509804" style="stop-color:#262261"/>
   <stop offset="0.0588235" style="stop-color:#292363"/>
   <stop offset="0.0705882" style="stop-color:#2C2365"/>
   <stop offset="0.0784314" style="stop-color:#2F2468"/>
   <stop offset="0.0901961" style="stop-color:#32246A"/>
   <stop offset="0.101961" style="stop-color:#35256C"/>
   <stop offset="0.109804" style="stop-color:#37256E"/>
   <stop offset="0.121569" style="stop-color:#3A2670"/>
   <stop offset="0.129412" style="stop-color:#3D2672"/>
   <stop offset="0.141176" style="stop-color:#3F2774"/>
   <stop offset="0.14902" style="stop-color:#422776"/>
   <stop offset="0.160784" style="stop-color:#442777"/>
   <stop offset="0.168627" style="stop-color:#462879"/>
   <stop offset="0.180392" style="stop-color:#48287A"/>
   <stop offset="0.188235" style="stop-color:#4A287C"/>
   <stop offset="0.2" style="stop-color:#4C297D"/>
   <stop offset="0.211765" style="stop-color:#4E297F"/>
   <stop offset="0.219608" style="stop-color:#502980"/>
   <stop offset="0.231373" style="stop-color:#512981"/>
   <stop offset="0.239216" style="stop-color:#532A83"/>
   <stop offset="0.25098" style="stop-color:#552A84"/>
   <stop offset="0.258824" style="stop-color:#562A85"/>
   <stop offset="0.270588" style="stop-color:#582A86"/>
   <stop offset="0.278431" style="stop-color:#592B87"/>
   <stop offset="0.290196" style="stop-color:#5A2B88"/>
   <stop offset="0.301961" style="stop-color:#5B2B89"/>
   <stop offset="0.309804" style="stop-color:#5C2B8A"/>
   <stop offset="0.321569" style="stop-color:#5E2B8A"/>
   <stop offset="0.329412" style="stop-color:#5F2C8B"/>
   <stop offset="0.341176" style="stop-color:#602C8C"/>
   <stop offset="0.34902" style="stop-color:#612C8D"/>
   <stop offset="0.360784" style="stop-color:#612C8D"/>
   <stop offset="0.368627" style="stop-color:#622C8E"/>
   <stop offset="0.380392" style="stop-color:#622C8E"/>
   <stop offset="0.388235" style="stop-color:#632C8E"/>
   <stop offset="0.4" style="stop-color:#632D8F"/>
   <stop offset="0.411765" style="stop-color:#632D8F"/>
   <stop offset="0.419608" style="stop-color:#642D8F"/>
   <stop offset="0.431373" style="stop-color:#642D8F"/>
   <stop offset="0.439216" style="stop-color:#652D90"/>
   <stop offset="0.45098" style="stop-color:#652D90"/>
   <stop offset="0.458824" style="stop-color:#672D90"/>
   <stop offset="0.470588" style="stop-color:#682D90"/>
   <stop offset="0.478431" style="stop-color:#6A2C90"/>
   <stop offset="0.490196" style="stop-color:#6B2C90"/>
   <stop offset="0.501961" style="stop-color:#6D2C90"/>
   <stop offset="0.509804" style="stop-color:#6E2C90"/>
   <stop offset="0.521569" style="stop-color:#702C90"/>
   <stop offset="0.529412" style="stop-color:#712B90"/>
   <stop offset="0.541176" style="stop-color:#722B90"/>
   <stop offset="0.54902" style="stop-color:#732B90"/>
   <stop offset="0.560784" style="stop-color:#752B90"/>
   <stop offset="0.568627" style="stop-color:#762B90"/>
   <stop offset="0.580392" style="stop-color:#772A8F"/>
   <stop offset="0.588235" style="stop-color:#782A8F"/>
   <stop offset="0.6" style="stop-color:#792A8F"/>
   <stop offset="0.611765" style="stop-color:#7A2A8F"/>
   <stop offset="0.619608" style="stop-color:#7C2A8F"/>
   <stop offset="0.631373" style="stop-color:#7D2A8F"/>
   <stop offset="0.639216" style="stop-color:#7E298F"/>
   <stop offset="0.65098" style="stop-color:#7F298F"/>
   <stop offset="0.658824" style="stop-color:#80298F"/>
   <stop offset="0.670588" style="stop-color:#81298F"/>
   <stop offset="0.678431" style="stop-color:#82298F"/>
   <stop offset="0.690196" style="stop-color:#82298F"/>
   <stop offset="0.701961" style="stop-color:#83298F"/>
   <stop offset="0.709804" style="stop-color:#84298F"/>
   <stop offset="0.721569" style="stop-color:#85298F"/>
   <stop offset="0.729412" style="stop-color:#85298F"/>
   <stop offset="0.741176" style="stop-color:#86288E"/>
   <stop offset="0.74902" style="stop-color:#87288E"/>
   <stop offset="0.760784" style="stop-color:#87288E"/>
   <stop offset="0.768627" style="stop-color:#88288E"/>
   <stop offset="0.780392" style="stop-color:#89288E"/>
   <stop offset="0.788235" style="stop-color:#89288E"/>
   <stop offset="0.8" style="stop-color:#8A288E"/>
   <stop offset="0.811765" style="stop-color:#8B288E"/>
   <stop offset="0.819608" style="stop-color:#8B288E"/>
   <stop offset="0.831373" style="stop-color:#8C288E"/>
   <stop offset="0.839216" style="stop-color:#8C288E"/>
   <stop offset="0.85098" style="stop-color:#8D288E"/>
   <stop offset="0.858824" style="stop-color:#8D288E"/>
   <stop offset="0.870588" style="stop-color:#8D288E"/>
   <stop offset="0.878431" style="stop-color:#8D288E"/>
   <stop offset="0.890196" style="stop-color:#8E288E"/>
   <stop offset="0.901961" style="stop-color:#8E288E"/>
   <stop offset="0.909804" style="stop-color:#8E278E"/>
   <stop offset="0.921569" style="stop-color:#8E278E"/>
   <stop offset="0.929412" style="stop-color:#8E278E"/>
   <stop offset="0.941176" style="stop-color:#8F278E"/>
   <stop offset="0.94902" style="stop-color:#8F278E"/>
   <stop offset="0.960784" style="stop-color:#8F278E"/>
   <stop offset="0.968627" style="stop-color:#8F278E"/>
   <stop offset="0.980392" style="stop-color:#90278E"/>
   <stop offset="0.988235" style="stop-color:#90278E"/>
   <stop offset="1" style="stop-color:#90278E"/>
  </linearGradient>
 </defs>
 <g id="Layer_x0020_1">
  <metadata id="CorelCorpID_0Corel-Layer"/>
  <path class="fil0" d="M2.83333 1.41667c0,-0.782406 -0.63426,-1.41667 -1.41667,-1.41667 -0.782406,0 -1.41667,0.63426 -1.41667,1.41667 0,0.782406 0.63426,1.41667 1.41667,1.41667 0.782406,0 1.41667,-0.63426 1.41667,-1.41667z"/>
  <g id="_76314184">
   <g>
    <g id="_76313632">
     <path id="_443985976" class="fil1" d="M1.55215 1.09376l-0.270972 0c-0.0367913,0 -0.0667244,-0.029937 -0.0667244,-0.0667283 0,-0.0367953 0.0299331,-0.0667283 0.0667244,-0.0667283l0.270972 0c0.0367913,0 0.0667244,0.0299331 0.0667244,0.0667244 0,0.0367953 -0.0299331,0.0667323 -0.0667244,0.0667323zm-0.270972 -0.0868307c-0.0110866,0 -0.0200984,0.00901575 -0.0200984,0.0200984 0,0.0110906 0.00901575,0.0201102 0.0200984,0.0201102l0.270972 0c0.0110827,0 0.0201024,-0.00901969 0.0201024,-0.0201063 0,-0.0110866 -0.00901575,-0.0201063 -0.0201024,-0.0201063l-0.270972 3.93701e-006z"/>
    </g>
    <g id="_76313680">
     <path id="_443985424" class="fil1" d="M1.90989 2.26921l-0.986437 0c-0.0319961,0 -0.0591575,-0.0170827 -0.0745197,-0.0468661 -0.0187992,-0.0364528 -0.015752,-0.0846457 0.00740945,-0.117201l0.410181 -0.576512 0 -0.458181c0,-0.012878 0.010437,-0.023311 0.023311,-0.023311 0.012874,0 0.023311,0.0104331 0.023311,0.023311l0 0.465622c0,0.00484252 -0.00150787,0.00956693 -0.00431496,0.0135157l-0.4145 0.582579c-0.013252,0.018626 -0.0149173,0.0475591 -0.00396063,0.0688031 0.00508268,0.0098622 0.0149567,0.0216181 0.0330827,0.0216181l0.986437 0c0.018122,0 0.0279921,-0.011748 0.0330748,-0.0216063 0.0109606,-0.0212402 0.00929528,-0.0501811 -0.00395669,-0.0688189l-0.41424 -0.582213c-0.00287402,-0.00387402 -0.0045748,-0.00867323 -0.0045748,-0.013874l0 -0.465626c0,-0.012878 0.010437,-0.023311 0.023311,-0.023311 0.012874,0 0.023311,0.0104331 0.023311,0.023311l0 0.458173 0.410185 0.576516c0.0231614,0.0325669 0.0262008,0.0807677 0.00739764,0.117213 -0.0153583,0.0297835 -0.0425197,0.0468583 -0.0745079,0.0468583z"/>
    </g>
    <g id="_76313872">
     <path id="_443985808" class="fil1" d="M1.2877 1.89715c-0.0120118,0 -0.0245551,-0.00188583 -0.0375118,-0.00568504 -0.0404488,-0.0118543 -0.074063,-0.0392126 -0.0905,-0.0544685 -0.0263071,-0.0244055 -0.0327362,-0.0292638 -0.0473465,-0.0301299 -0.0128504,-0.00076378 -0.0226535,-0.0117992 -0.0218937,-0.0246457 0.00076378,-0.0128504 0.0117638,-0.022685 0.0246457,-0.0218937 0.0325787,0.0019252 0.0499724,0.0180669 0.0763031,0.0424961 0.0141772,0.0131575 0.0873504,0.0765276 0.135772,0.0321575 0.112256,-0.102807 0.223291,-0.0592283 0.304362,-0.0274055 0.0613425,0.0240787 0.0879724,0.0317795 0.104583,0.0106063 0.00793307,-0.010126 0.0225906,-0.0119055 0.0327244,-0.00395276 0.0101339,0.00794094 0.0119016,0.0225945 0.00395669,0.0327244 -0.0396732,0.0505906 -0.0999882,0.0269134 -0.158303,0.00402362 -0.0773583,-0.0303622 -0.165031,-0.0647756 -0.255835,0.0183819 -0.0201063,0.0184331 -0.0442126,0.0277874 -0.0709567,0.0277913z"/>
    </g>
    <g id="_76313968">
     <path id="_443985880" class="fil1" d="M1.66402 2.17679c-0.0442953,0 -0.0803307,-0.0360354 -0.0803307,-0.0803346 0,-0.0442953 0.0360354,-0.0803268 0.0803307,-0.0803268 0.0442992,0 0.0803346,0.0360315 0.0803346,0.0803268 0,0.0442992 -0.0360354,0.0803346 -0.0803346,0.0803346zm0 -0.114039c-0.0185866,0 -0.0337047,0.0151181 -0.0337047,0.0337047 0,0.0185866 0.0151181,0.0337126 0.0337047,0.0337126 0.0185906,0 0.0337126,-0.015126 0.0337126,-0.0337126 -3.93701e-006,-0.0185866 -0.015122,-0.0337047 -0.0337126,-0.0337047z"/>
    </g>
    <g id="_76314016">
     <path id="_443985688" class="fil1" d="M1.48554 2.03384c-0.0442953,0 -0.0803346,-0.0360394 -0.0803346,-0.0803346 0,-0.0442953 0.0360394,-0.0803307 0.0803346,-0.0803307 0.0442953,0 0.0803307,0.0360354 0.0803307,0.0803307 0,0.0442953 -0.0360354,0.0803346 -0.0803307,0.0803346zm0 -0.114043c-0.0185906,0 -0.0337126,0.015126 -0.0337126,0.0337087 0,0.0185866 0.015122,0.0337087 0.0337126,0.0337087 0.0185827,0 0.0337087,-0.015122 0.0337087,-0.0337087 0,-0.0185827 -0.015126,-0.0337087 -0.0337087,-0.0337087z"/>
    </g>
    <g id="_76314328">
     <path id="_443984560" class="fil1" d="M1.13104 2.05945c-0.0442953,0 -0.0803346,-0.0360315 -0.0803346,-0.0803268 0,-0.0442992 0.0360354,-0.0803346 0.0803346,-0.0803346 0.0442913,0 0.0803268,0.0360354 0.0803268,0.0803346 0,0.0442913 -0.0360354,0.0803268 -0.0803268,0.0803268zm0 -0.114039c-0.0185906,0 -0.0337126,0.015122 -0.0337126,0.0337126 0,0.0185866 0.015122,0.0337047 0.0337126,0.0337047 0.0185866,0 0.0337047,-0.0151181 0.0337047,-0.0337047 0,-0.0185906 -0.0151181,-0.0337126 -0.0337047,-0.0337126z"/>
    </g>
    <g id="_76314400">
     <path id="_443985112" class="fil1" d="M1.30953 2.18092c-0.0442953,0 -0.0803346,-0.0360315 -0.0803346,-0.0803268 0,-0.0442953 0.0360394,-0.0803346 0.0803346,-0.0803346 0.0442953,0 0.0803346,0.0360394 0.0803346,0.0803346 0,0.0442953 -0.0360394,0.0803268 -0.0803346,0.0803268zm0 -0.114035c-0.0185866,0 -0.0337087,0.015122 -0.0337087,0.0337087 0,0.0185827 0.015122,0.0337047 0.0337087,0.0337047 0.0185866,0 0.0337087,-0.015122 0.0337087,-0.0337047 0,-0.0185866 -0.0151181,-0.0337087 -0.0337087,-0.0337087z"/>
    </g>
    <g id="_76314472">
     <path id="_443985232" class="fil1" d="M1.42439 1.72478c-0.0442913,0 -0.0803268,-0.0360394 -0.0803268,-0.0803346 0,-0.0442953 0.0360354,-0.0803307 0.0803268,-0.0803307 0.0442953,0 0.0803346,0.0360354 0.0803346,0.0803307 0,0.0442953 -0.0360394,0.0803346 -0.0803346,0.0803346zm0 -0.114047c-0.0185866,0 -0.0337008,0.015122 -0.0337008,0.0337087 0,0.0185866 0.0151181,0.0337087 0.0337008,0.0337087 0.0185906,0 0.0337126,-0.015122 0.0337126,-0.0337087 0,-0.0185866 -0.015122,-0.0337087 -0.0337126,-0.0337087z"/>
    </g>
    <g id="_76314544">
     <path id="_443984632" class="fil1" d="M1.41943 1.44093c-0.0372244,0 -0.0675079,-0.0302874 -0.0675079,-0.0675157 0,-0.0372244 0.0302835,-0.0675118 0.0675079,-0.0675118 0.0372283,0 0.0675157,0.0302874 0.0675157,0.0675118 0,0.0372283 -0.0302874,0.0675157 -0.0675157,0.0675157zm0 -0.0884094c-0.0115157,0 -0.0208858,0.00937402 -0.0208858,0.0208898 0,0.0115197 0.00936614,0.0208937 0.0208858,0.0208937 0.0115197,0 0.0208898,-0.00937402 0.0208898,-0.0208937 0,-0.0115157 -0.00937008,-0.0208898 -0.0208898,-0.0208898z"/>
    </g>
    <g id="_76314616">
     <path id="_443984824" class="fil1" d="M1.42439 0.90135c-0.0442913,0 -0.0803268,-0.0360354 -0.0803268,-0.0803346 0,-0.0442913 0.0360354,-0.0803268 0.0803268,-0.0803268 0.0442953,0 0.0803346,0.0360354 0.0803346,0.0803268 0,0.0442992 -0.0360394,0.0803346 -0.0803346,0.0803346zm0 -0.114035c-0.0185866,0 -0.0337008,0.0151181 -0.0337008,0.0337047 0,0.0185866 0.0151181,0.0337126 0.0337008,0.0337126 0.0185906,0 0.0337126,-0.015126 0.0337126,-0.0337126 0,-0.0185866 -0.015122,-0.0337047 -0.0337126,-0.0337047z"/>
    </g>
    <g id="_76314688">
     <path id="_443984800" class="fil1" d="M1.26191 0.699154c-0.0372283,0 -0.0675118,-0.0302913 -0.0675118,-0.0675157 0,-0.0372244 0.0302874,-0.0675118 0.0675118,-0.0675118 0.0372244,0 0.0675157,0.0302874 0.0675157,0.0675118 0,0.0372244 -0.0302874,0.0675157 -0.0675157,0.0675157zm0 -0.0884055c-0.0115197,0 -0.0208898,0.00937008 -0.0208898,0.0208898 0,0.0115197 0.00937008,0.0208898 0.0208898,0.0208898 0.0115197,0 0.0208898,-0.00937008 0.0208898,-0.0208898 0,-0.0115197 -0.00936614,-0.0208898 -0.0208898,-0.0208898z"/>
    </g>
   </g>
  </g>
 </g>
</svg>
