<svg fill="none" height="24" viewBox="0 0 24 24" width="24" xmlns="http://www.w3.org/2000/svg"><path d="m20.6163 6.97122-3.5583-3.56326c-2.4342-2.437956-3.6507-3.654533-4.9585-3.3663016-1.3066.2882316-1.8987 1.9059316-3.08397 5.1401316l-.80221 2.18935c-.31584.8623-.47436 1.29344-.75897 1.62731-.12754.14983-.2727.2837-.43233.39872-.35547.25581-.7974.3771-1.68127.62093-1.99351.55-2.99147.825-3.36735 1.4772-.1626.2822-.24716.6026-.24499.9283.00481.753.73616 1.4844 2.19767 2.9484l1.69928 1.7005-5.375268 5.3804c-.1637968.1736-.25347395.4042-.2499944.6429.00347954.2387.0998418.4667.2686304.6355.168789.1688.396715.2651.635393.2686.238679.0035.469319-.0862.642949-.25l5.37407-5.3803 1.76054 1.763c1.47232 1.4724 2.20852 2.2098 2.96622 2.2098.3183 0 .6317-.0817.9091-.2402.6581-.3759.9343-1.3799 1.4879-3.3891.2426-.8828.3639-1.3235.6185-1.6802.1117-.1549.2414-.2966.3867-.4227.3303-.2859.759-.4468 1.6152-.7687l2.2145-.8322c3.1992-1.201 4.7988-1.8027 5.0798-3.1057.2823-1.3043-.9259-2.51364-3.3433-4.93238z" fill="#fd4755"/></svg>