<svg fill="none" height="67" viewBox="0 0 195 67" width="195" xmlns="http://www.w3.org/2000/svg" xmlns:xlink="http://www.w3.org/1999/xlink"><filter id="a" color-interpolation-filters="sRGB" filterUnits="userSpaceOnUse" height="66.6196" width="194.62" x=".255126" y=".190184"><feFlood flood-opacity="0" result="BackgroundImageFix"/><feColorMatrix in="SourceAlpha" result="hardAlpha" type="matrix" values="0 0 0 0 0 0 0 0 0 0 0 0 0 0 0 0 0 0 127 0"/><feMorphology in="SourceAlpha" operator="dilate" radius="1.4683" result="effect1_dropShadow_22_6224"/><feOffset/><feGaussianBlur stdDeviation="3.67076"/><feComposite in2="hardAlpha" operator="out"/><feColorMatrix type="matrix" values="0 0 0 0 0 0 0 0 0 0 0 0 0 0 0 0 0 0 0.25 0"/><feBlend in2="BackgroundImageFix" mode="normal" result="effect1_dropShadow_22_6224"/><feBlend in="SourceGraphic" in2="effect1_dropShadow_22_6224" mode="normal" result="shape"/></filter><g filter="url(#a)"><rect fill="#0ead74" height="49" rx="13.2147" width="177" x="9.06494" y="9"/></g><path d="m38.976 41.9812h-3.5974l-3.6744-5.2675c-.2313.0257-.4625.0257-.6938.0257h-4.0598v5.2418h-3.3404v-17.9867h7.4002c4.728 0 7.6572 2.4154 7.6572 6.3981 0 2.7237-1.3875 4.728-3.8286 5.6787zm-3.6745-11.5886c0-2.2612-1.516-3.5716-4.4452-3.5716h-3.9057v7.169h3.9057c2.9292 0 4.4452-1.3362 4.4452-3.5974zm19.6941 4.805c0 .257-.0257.6424-.0514.9508h-10.7663c.3854 2.0042 2.0556 3.289 4.4452 3.289 1.5418 0 2.7494-.4882 3.7259-1.4904l1.7215 1.9786c-1.2333 1.4646-3.1605 2.2355-5.5244 2.2355-4.5995 0-7.5802-2.955-7.5802-7.0405 0-4.0856 3.0064-7.0149 7.0919-7.0149 4.0085 0 6.9378 2.8008 6.9378 7.0919zm-6.9378-4.5223c-2.0813 0-3.5973 1.3361-3.9056 3.3404h7.7856c-.2569-1.9786-1.7729-3.3404-3.88-3.3404zm20.5838-2.4154h3.0577v11.64c0 4.9849-2.5952 7.2461-7.4002 7.2461-2.5695 0-5.1134-.6681-6.6808-1.9529l1.4389-2.4153c1.2077 1.0021 3.1606 1.6445 5.062 1.6445 3.0321 0 4.3682-1.3876 4.3682-4.1627v-.7195c-1.1306 1.2334-2.7494 1.8244-4.5994 1.8244-3.9314 0-6.9378-2.6723-6.9378-6.6551 0-3.9827 3.0064-6.6037 6.9378-6.6037 1.9271 0 3.623.6167 4.7536 1.9786zm-4.2654 10.3809c2.4153 0 4.1626-1.5931 4.1626-3.9314 0-2.3125-1.7473-3.88-4.1626-3.88-2.4411 0-4.1884 1.5675-4.1884 3.88 0 2.3383 1.7473 3.9314 4.1884 3.9314zm13.1646-12.6421c-1.182 0-2.0556-.8479-2.0556-1.9271s.8736-1.9272 2.0556-1.9272 2.0556.7966 2.0556 1.8501c0 1.1306-.8479 2.0042-2.0556 2.0042zm-1.6188 15.9825v-13.7213h3.2119v13.7213zm11.6673.1799c-2.2869 0-4.5738-.6681-5.8072-1.5417l1.2334-2.4411c1.2077.7966 3.0577 1.3618 4.7793 1.3618 2.03 0 2.8779-.5652 2.8779-1.516 0-2.6209-8.4795-.1541-8.4795-5.6272 0-2.5953 2.3383-4.2912 6.0384-4.2912 1.8244 0 3.9057.4369 5.1391 1.182l-1.2334 2.4411c-1.3104-.7709-2.6209-1.0278-3.9314-1.0278-1.9528 0-2.8778.6423-2.8778 1.5417 0 2.7751 8.4794.3083 8.4794 5.6786 0 2.5696-2.3639 4.2398-6.2182 4.2398zm16.3327-3.2119.9 2.2868c-.771.6167-1.927.9251-3.084.9251-3.006 0-4.7276-1.5931-4.7276-4.6252v-6.6037h-2.2612v-2.5695h2.2612v-3.1348h3.2116v3.1348h3.675v2.5695h-3.675v6.5266c0 1.3362.668 2.0557 1.902 2.0557.668 0 1.31-.1799 1.798-.5653zm6.6-8.6851c.925-1.4389 2.595-2.1584 4.882-2.1584v3.0578c-.283-.0514-.514-.0771-.745-.0771-2.441 0-3.983 1.4389-3.983 4.2397v6.6551h-3.212v-13.7213h3.058zm12.773-2.1584c3.957 0 6.244 1.8758 6.244 5.8329v8.0426h-3.032v-1.6702c-.771 1.182-2.261 1.8501-4.317 1.8501-3.135 0-5.113-1.7216-5.113-4.1113 0-2.2869 1.542-4.0855 5.704-4.0855h3.546v-.2056c0-1.8758-1.13-2.9806-3.417-2.9806-1.542 0-3.135.5139-4.163 1.3618l-1.259-2.3383c1.465-1.1306 3.597-1.6959 5.807-1.6959zm-.437 11.7171c1.568 0 2.93-.7195 3.469-2.1327v-1.5931h-3.315c-2.184 0-2.775.8222-2.775 1.8243 0 1.1563.977 1.9015 2.621 1.9015zm13.861-9.5587c.925-1.4389 2.595-2.1584 4.882-2.1584v3.0578c-.283-.0514-.514-.0771-.745-.0771-2.441 0-3.983 1.4389-3.983 4.2397v6.6551h-3.212v-13.7213h3.058zm11.897 11.897c-2.287 0-4.574-.6681-5.808-1.5417l1.234-2.4411c1.207.7966 3.058 1.3618 4.779 1.3618 2.03 0 2.878-.5652 2.878-1.516 0-2.6209-8.479-.1541-8.479-5.6272 0-2.5953 2.338-4.2912 6.038-4.2912 1.824 0 3.906.4369 5.139 1.182l-1.233 2.4411c-1.311-.7709-2.621-1.0278-3.932-1.0278-1.953 0-2.878.6423-2.878 1.5417 0 2.7751 8.48.3083 8.48 5.6786 0 2.5696-2.364 4.2398-6.218 4.2398zm21.883-6.9635c0 .257-.026.6424-.051.9508h-10.767c.386 2.0042 2.056 3.289 4.446 3.289 1.541 0 2.749-.4882 3.725-1.4904l1.722 1.9786c-1.233 1.4646-3.161 2.2355-5.525 2.2355-4.599 0-7.58-2.955-7.58-7.0405 0-4.0856 3.007-7.0149 7.092-7.0149 4.009 0 6.938 2.8008 6.938 7.0919zm-6.938-4.5223c-2.081 0-3.597 1.3361-3.905 3.3404h7.785c-.257-1.9786-1.773-3.3404-3.88-3.3404z" fill="#fff"/></svg>