<svg fill="none" height="130" viewBox="0 0 117 130" width="117" xmlns="http://www.w3.org/2000/svg"><circle cx="57.8343" cy="45.4964" r="44.3397" stroke="#000" stroke-width="2.31337"/><g fill="#000"><path d="m12.2193 124.873v-14.218h2.6405v14.218zm19.9325-10.968c2.6202 0 4.4482 1.482 4.4482 4.753v6.215h-2.5389v-5.89c0-1.93-.8937-2.864-2.4374-2.864-1.6656 0-2.8233 1.097-2.8233 3.25v5.504h-2.539v-5.89c0-1.93-.8937-2.864-2.4374-2.864-1.6858 0-2.8233 1.097-2.8233 3.25v5.504h-2.5389v-10.846h2.4171v1.381c.8124-.975 2.0717-1.503 3.5545-1.503 1.5843 0 2.9046.589 3.6561 1.807.8734-1.117 2.3358-1.807 4.0623-1.807zm15.6548.122h2.539v10.846h-2.4171v-1.381c-.8125.995-2.0921 1.523-3.4936 1.523-2.7827 0-4.6717-1.523-4.6717-4.793v-6.195h2.539v5.849c0 1.971.9343 2.905 2.5389 2.905 1.7672 0 2.9655-1.097 2.9655-3.27zm16.0597 5.484c0 .203-.0203.508-.0406.751h-8.5106c.3047 1.585 1.6249 2.6 3.5139 2.6 1.2187 0 2.1733-.386 2.9452-1.178l1.3609 1.564c-.975 1.158-2.4984 1.767-4.367 1.767-3.6358 0-5.9919-2.336-5.9919-5.565 0-3.23 2.3764-5.545 5.6059-5.545 3.1687 0 5.4842 2.214 5.4842 5.606zm-5.4842-3.575c-1.6452 0-2.8436 1.056-3.0873 2.64h6.1544c-.2031-1.564-1.4015-2.64-3.0671-2.64zm13.9352-2.031c3.1686 0 5.5045 2.173 5.5045 5.545s-2.3359 5.565-5.5045 5.565c-1.4827 0-2.742-.508-3.5951-1.544v1.402h-2.4171v-15.071h2.5389v5.545c.8734-.975 2.0921-1.442 3.4733-1.442zm-.2843 8.937c1.828 0 3.2092-1.32 3.2092-3.392s-1.3812-3.392-3.2092-3.392c-1.8281 0-3.2296 1.32-3.2296 3.392s1.4015 3.392 3.2296 3.392zm8.1966 2.031v-15.071h2.539v15.071zm16.0678-5.362c0 .203-.0203.508-.0407.751h-8.5105c.3047 1.585 1.6249 2.6 3.5139 2.6 1.2187 0 2.1733-.386 2.9452-1.178l1.3609 1.564c-.975 1.158-2.4984 1.767-4.367 1.767-3.6358 0-5.992-2.336-5.992-5.565 0-3.23 2.3765-5.545 5.606-5.545 3.1686 0 5.4842 2.214 5.4842 5.606zm-5.4842-3.575c-1.6452 0-2.8436 1.056-3.0873 2.64h6.1544c-.2031-1.564-1.4015-2.64-3.0671-2.64zm11.2748 9.079c-1.808 0-3.6159-.528-4.5908-1.219l.9749-1.929c.9547.63 2.4169 1.076 3.7779 1.076 1.605 0 2.275-.446 2.275-1.198 0-2.072-6.7028-.122-6.7028-4.448 0-2.052 1.8483-3.392 4.7728-3.392 1.443 0 3.088.345 4.063.934l-.975 1.93c-1.036-.61-2.072-.813-3.108-.813-1.544 0-2.275.508-2.275 1.219 0 2.194 6.703.244 6.703 4.489 0 2.031-1.869 3.351-4.915 3.351z"/><path d="m52.9142 59.7822h-2.0492c-.4716 0-.8538.3824-.8538.8538 0 .4715.3822.8538.8538.8538h2.0492c.4716 0 .8538-.3823.8538-.8538 0-.4714-.3822-.8538-.8538-.8538z"/><path d="m85.6353 65.2462h-5.6347v-18.9557l1.5218 1.4529c.1644.157.3768.2363.5897.2363.1947 0 .3896-.0663.5489-.1999l3.3886-2.8445c.1143-.096.2095-.2153.2636-.3543.1308-.3353.0404-.6997-.205-.9337l-5.8799-5.5997v-8.0818c0-.4715-.3823-.8538-.8538-.8538-.4714 0-.8538.3823-.8538.8538v6.4556l-8.9933-8.5648v-4.2387h8.9933v2.3633c0 .4715.3824.8538.8538.8538.4715 0 .8538-.3823.8538-.8538v-3.2171c0-.4715-.3823-.8538-.8538-.8538h-10.7009c-.4715 0-.8538.3823-.8538.8538v3.4662l-7.7952-7.4238-1.699-1.5782c-.3277-.3044-.8347-.3043-1.1621 0l-1.7067 1.5855-26.0758 24.8334c-.2455.2339-.3359.5983-.2051.9337.0543.139.1494.2583.2637.3543l3.3886 2.8446c.3334.2798.8237.2641 1.1385-.0364l1.5226-1.4537v5.5885c0 .4714.3823.8538.8538.8538s.8538-.3824.8538-.8538v-7.2189l20.5477-19.6176 20.5484 19.6184v20.5862h-18.4989c-.4715 0-.8538.3823-.8538.8538v5.9829h-2.3906v-23.591c0-.4715-.3824-.8538-.8538-.8538h-14.1162c-.4715 0-.8538.3823-.8538.8538v23.591h-.9595v-5.9829c0-.4715-.3823-.8538-.8538-.8538h-1.7158v-9.3835c0-.4715-.3823-.8538-.8538-.8538s-.8538.3823-.8538.8538v9.3835h-5.6354c-.4715 0-.8538.3823-.8538.8538v6.8368c0 .4715.3823.8538.8538.8538h9.0588c.0008 0 .0015-.0001.0021-.0001h2.6648 14.1161 4.0961c.0007 0 .0015.0001.0022.0001h25.8414c.4715 0 .8539-.3823.8539-.8538v-6.8368c0-.4717-.3824-.8539-.8539-.8539zm-47.5765 6.8367h-1.7158v.0001h-5.6354v-5.1292h7.3512zm16.7832 0h-12.4085v-22.7372h12.4085zm3.4922-48.8392c-.1651-.1574-.3773-.2362-.5896-.2362-.2124 0-.4246.0788-.5896.2362l-23.8146 22.7367-2.0905-1.755 25.3768-24.1678 1.1179-1.0386 1.11 1.0313 25.3845 24.1751-2.0906 1.755zm26.4473 48.8393h-5.6347v-.0001h-18.4989v-5.1291h24.1338v5.1292z"/><path d="m75.8691 47.6383h-16.0749c-.4716 0-.8538.3823-.8538.8538v14.1161c0 .4715.3822.8539.8538.8539h16.0749c.4716 0 .8538-.3824.8538-.8539v-14.1161c0-.4716-.3822-.8538-.8538-.8538zm-.8538 14.116h-14.3673v-8.1191h14.3673zm0-9.8266h-14.3673v-2.5818h14.3673z"/><path d="m57.7449 32.8036c-2.6363 0-4.781 2.1447-4.781 4.7811 0 2.6363 2.1447 4.7811 4.781 4.7811s4.781-2.1448 4.781-4.7811-2.1447-4.7811-4.781-4.7811zm0 7.8546c-1.6947 0-3.0734-1.3788-3.0734-3.0735s1.3787-3.0735 3.0734-3.0735 3.0734 1.3787 3.0734 3.0735c0 1.6947-1.3787 3.0735-3.0734 3.0735z"/></g></svg>