<svg fill="none" height="130" viewBox="0 0 117 130" width="117" xmlns="http://www.w3.org/2000/svg"><circle cx="57.8345" cy="45.4964" r="44.3397" stroke="#000" stroke-width="2.31337"/><g fill="#000"><path d="m28.9109 124.873v-14.218h2.6405v11.984h7.4341v2.234zm13.1951-12.634c-.9344 0-1.6249-.67-1.6249-1.523s.6905-1.524 1.6249-1.524c.9343 0 1.6249.63 1.6249 1.463 0 .894-.6703 1.584-1.6249 1.584zm-1.2796 12.634v-10.846h2.5389v10.846zm11.8835-10.968c3.1686 0 5.5044 2.173 5.5044 5.545s-2.3358 5.565-5.5044 5.565c-1.4827 0-2.7421-.508-3.5952-1.544v1.402h-2.417v-15.071h2.5389v5.545c.8734-.975 2.0921-1.442 3.4733-1.442zm-.2844 8.937c1.8281 0 3.2093-1.32 3.2093-3.392s-1.3812-3.392-3.2093-3.392c-1.828 0-3.2295 1.32-3.2295 3.392s1.4015 3.392 3.2295 3.392zm10.6138-7.231c.7312-1.138 2.0515-1.706 3.8592-1.706v2.417c-.2234-.041-.4062-.061-.589-.061-1.9296 0-3.1483 1.137-3.1483 3.351v5.261h-2.539v-10.846h2.4171zm10.7886 9.404c-3.3311 0-5.7685-2.315-5.7685-5.565s2.4374-5.545 5.7685-5.545c3.3717 0 5.7888 2.295 5.7888 5.545s-2.4171 5.565-5.7888 5.565zm0-2.173c1.8484 0 3.2296-1.32 3.2296-3.392s-1.3812-3.392-3.2296-3.392c-1.828 0-3.2092 1.32-3.2092 3.392s1.3812 3.392 3.2092 3.392zm11.5681 2.173c-1.8077 0-3.6155-.528-4.5904-1.219l.9749-1.929c.9547.63 2.4171 1.076 3.778 1.076 1.6046 0 2.2749-.446 2.2749-1.198 0-2.072-6.7028-.122-6.7028-4.448 0-2.052 1.8483-3.392 4.7732-3.392 1.4421 0 3.0873.345 4.0623.934l-.975 1.93c-1.0358-.61-2.0717-.813-3.1076-.813-1.5437 0-2.2749.508-2.2749 1.219 0 2.194 6.7028.244 6.7028 4.489 0 2.031-1.8687 3.351-4.9154 3.351z"/><path d="m58.064 49.3101c-.473 0-.8565.3833-.8565.8565v10.278c0 .4731.3835.8565.8565.8565s.8565-.3834.8565-.8565v-10.278c0-.4732-.3835-.8565-.8565-.8565z"/><path d="m86.2715 51.023c.473 0 .8565-.3834.8565-.8565v-25.921c0-1.486-1.6741-2.4754-2.9784-1.7419l-.5819.3273-2.7479-2.7922c-.2087-.2118-.5123-.3003-.8018-.2341-.1118.0256-1.9541.4551-4.6228 1.473v-3.4212c0-.283-.1397-.5478-.3734-.7073-.2336-.1594-.5311-.1932-.7946-.0906-8.0065 3.1273-12.2014 8.0556-14.3105 11.6392-.8562 1.4548-1.4471 2.8049-1.8527 3.9342-.4057-1.1293-.9965-2.4794-1.8527-3.9342-2.1092-3.5836-6.3041-8.5119-14.3105-11.6392-.2635-.1026-.561-.0689-.7947.0906-.2336.1595-.3734.4244-.3734.7073v3.4207c-2.6628-1.0153-4.5044-1.4453-4.6228-1.4724-.29-.0662-.5933.0222-.8018.2341l-2.7479 2.7922-.582-.3274c-1.2951-.7282-2.9782.2455-2.9782 1.7419v35.9964c0 .721.3903 1.3882 1.0187 1.7419l22.0787 12.4193c.481.2154 1.0846.3267 1.5923.161.3573.545.9726.9063 1.6715.9063h5.4054c.6989 0 1.3143-.3613 1.6716-.9063.542.1723 1.0727.1187 1.5923-.161l22.0788-12.4194c.6282-.3536 1.0185-1.0208 1.0185-1.7418v-4.5939c0-1.1074-1.713-1.1074-1.713 0v4.5939c0 .103-.0558.1984-.1454.2489l-22.0789 12.4192c-.2369.0799-.3788-.0032-.4255-.2488v-35.5222c-.0315-.1709-.0377-.6198.1455-.7229l22.0787-12.4193c.2371-.0797.3789.0032.4256.2488v25.921c.0002.4729.3835.8564.8567.8564zm-12.5893-31.8873v2.8331c-.8091.3447-1.6659.7357-2.5527 1.1774-3.1277 1.5579-7.0396 3.9765-10.3053 7.4478.1739-.3346.3627-.6776.5687-1.0274 1.8677-3.1732 5.4968-7.4789 12.2893-10.4309zm-12.6301 23.795h-5.9764v-2.0936h5.9764zm-5.9764 1.713h5.9764v21.3233h-5.9764zm0 23.0363h5.9764v2.0938h-5.9764zm5.9764-28.5559h-5.9764v-1.9853c0-.1574.1281-.2855.2855-.2855h5.4054c.1574 0 .2855.1281.2855.2855zm-24.8679-17.5335c1.2455.3324 4.8771 1.4033 8.9341 3.5418.9453.4981 1.7762-1.0002.7988-1.5154-1.2142-.64-2.3855-1.1857-3.4715-1.6484v-2.8329c6.7539 2.935 10.3758 7.2077 12.2452 10.3563.2185.3679.4177.7287.6009 1.0808-1.3449-1.4309-2.885-2.7757-4.6166-4.0231-.8983-.6475-1.8998.7426-1.0013 1.3899 2.9574 2.1305 5.3225 4.5482 7.051 7.201-.9942-.0815-1.8445.2457-2.668-.2175l-19.9495-11.2219zm17.0371 51.3172c-.0947.0016-.1893.0024-.2841.0024l-22.0787-12.4193c-.0898-.0505-.1456-.1459-.1456-.249v-35.9964c0-.2282.2521-.3461.4255-.2488l22.0787 12.4191c.1833.1034.1771.552.1456.723v35.5224c0 .1425-.0886.2156-.1414.2466zm7.8308.5641c0 .1575-.1281.2855-.2855.2855h-5.4054c-.1574 0-.2855-.128-.2855-.2855v-1.9851h5.9764zm1.0187-38.549c-.8386.4718-1.6537.1475-2.6666.2174 3.354-5.1376 8.5438-8.4909 12.4506-10.4416 3.6991-1.8471 6.9289-2.7978 8.0889-3.108l2.0769 2.1104z"/><path d="m81.6596 31.9566-15.9888 9.136c-.2667.1525-.4315.4363-.4315.7437v5.5217c0 .6463.7203 1.0645 1.2814.7437l15.9886-9.1361c.2669-.1524.4316-.4362.4316-.7436v-5.5217c0-.5999-.6901-1.0818-1.2813-.7437zm-.4317 5.7683-14.2756 8.1571v-3.5487l14.2756-8.1572z"/></g></svg>