<svg fill="none" height="130" viewBox="0 0 117 130" width="117" xmlns="http://www.w3.org/2000/svg"><circle cx="57.8345" cy="45.4964" r="44.3397" stroke="#000" stroke-width="2.31337"/><g fill="#000"><path d="m27.7226 124.873h-2.4983l-.0203-9.425-4.6717 7.8h-1.1781l-4.6716-7.678v9.303h-2.5187v-14.218h2.1734l5.6466 9.424 5.545-9.424h2.1734zm7.7403-10.968c3.128 0 4.9357 1.482 4.9357 4.61v6.358h-2.3968v-1.32c-.6093.934-1.7874 1.462-3.4123 1.462-2.478 0-4.042-1.361-4.042-3.25 0-1.807 1.2187-3.229 4.5092-3.229h2.803v-.163c0-1.482-.8938-2.356-2.7015-2.356-1.2187 0-2.478.406-3.2905 1.077l-.9952-1.849c1.1577-.893 2.8436-1.34 4.5904-1.34zm-.3453 9.262c1.239 0 2.3155-.569 2.7421-1.686v-1.259h-2.6202c-1.7265 0-2.1937.65-2.1937 1.442 0 .914.7719 1.503 2.0718 1.503zm11.8908 1.848c-1.8077 0-3.6154-.528-4.5904-1.219l.975-1.929c.9546.63 2.4171 1.076 3.7779 1.076 1.6046 0 2.2749-.446 2.2749-1.198 0-2.072-6.7028-.122-6.7028-4.448 0-2.052 1.8484-3.392 4.7732-3.392 1.4422 0 3.0874.345 4.0623.934l-.9749 1.93c-1.0359-.61-2.0718-.813-3.1077-.813-1.5437 0-2.2749.508-2.2749 1.219 0 2.194 6.7028.244 6.7028 4.489 0 2.031-1.8686 3.351-4.9154 3.351zm12.0783 0c-3.4327 0-5.8701-2.315-5.8701-5.565s2.4374-5.545 5.8701-5.545c2.1124 0 3.7983.873 4.631 2.518l-1.9499 1.138c-.6499-1.036-1.6249-1.503-2.7014-1.503-1.8687 0-3.2905 1.3-3.2905 3.392 0 2.112 1.4218 3.392 3.2905 3.392 1.0765 0 2.0515-.467 2.7014-1.503l1.9499 1.137c-.8327 1.625-2.5186 2.539-4.631 2.539zm11.5419 0c-3.3311 0-5.7685-2.315-5.7685-5.565s2.4374-5.545 5.7685-5.545c3.3717 0 5.7888 2.295 5.7888 5.545s-2.4171 5.565-5.7888 5.565zm0-2.173c1.8483 0 3.2295-1.32 3.2295-3.392s-1.3812-3.392-3.2295-3.392c-1.8281 0-3.2092 1.32-3.2092 3.392s1.3811 3.392 3.2092 3.392zm14.0258-.366.7109 1.808c-.6094.487-1.5234.731-2.4374.731-2.3765 0-3.7373-1.259-3.7373-3.656v-5.22h-1.7875v-2.031h1.7875v-2.478h2.5389v2.478h2.9046v2.031h-2.9046v5.159c0 1.056.5281 1.625 1.5031 1.625.5281 0 1.0359-.142 1.4218-.447zm6.943-8.571c3.128 0 4.9358 1.482 4.9358 4.61v6.358h-2.3968v-1.32c-.6094.934-1.7874 1.462-3.4124 1.462-2.478 0-4.042-1.361-4.042-3.25 0-1.807 1.2187-3.229 4.5092-3.229h2.803v-.163c0-1.482-.8937-2.356-2.7014-2.356-1.2187 0-2.478.406-3.2905 1.077l-.9953-1.849c1.1578-.893 2.8436-1.34 4.5904-1.34zm-.3453 9.262c1.2391 0 2.3156-.569 2.7421-1.686v-1.259h-2.6202c-1.7265 0-2.1936.65-2.1936 1.442 0 .914.7718 1.503 2.0717 1.503zm11.8909 1.848c-1.808 0-3.6155-.528-4.5904-1.219l.9749-1.929c.9545.63 2.4175 1.076 3.7775 1.076 1.605 0 2.275-.446 2.275-1.198 0-2.072-6.7024-.122-6.7024-4.448 0-2.052 1.8484-3.392 4.7734-3.392 1.442 0 3.087.345 4.062.934l-.975 1.93c-1.036-.61-2.072-.813-3.108-.813-1.543 0-2.274.508-2.274 1.219 0 2.194 6.702.244 6.702 4.489 0 2.031-1.868 3.351-4.915 3.351z"/><path d="m62.6875 48.468c-.6469 0-1.1719.525-1.1719 1.1719s.525 1.1719 1.1719 1.1719 1.1719-.525 1.1719-1.1719-.525-1.1719-1.1719-1.1719z"/><path d="m73.1432 54.7776c-1.0985-1.0979-3.7625-4.0696-5.8642-8.8888-1.5628-3.7498-5.1969-6.1722-9.2611-6.1722-4.0633 0-7.6969 2.4228-9.26 6.1734-2.6368 6.0476-6.2389 9.248-6.2734 9.2782-.0043.0036-.0084.0074-.0125.011-2.1246 1.9023-3.3431 4.6274-3.3431 7.4765 0 3.4829 1.6586 6.5119 4.5358 8.431 2.6807 1.7886 6.0034 2.3248 9.1153 1.4716 1.5595-.4273 3.3646-.6532 5.2204-.6532 1.887 0 3.7188.2334 5.2972.675 3.0205.8455 6.3359.3819 9.0728-1.4264 2.9102-1.923 4.5975-4.9805 4.5975-8.498 0-3.0937-1.3929-5.9607-3.8247-7.8781zm-2.0652 14.4206c-2.112 1.3954-4.7177 1.8053-7.149 1.1248-1.7814-.4984-3.8315-.7617-5.929-.7617-2.062 0-4.0813.2548-5.8399.7367-2.457.6737-5.0794.2505-7.1951-1.1609-2.209-1.4736-3.4927-3.7774-3.4927-6.4815 0-2.1814.9324-4.2681 2.5581-5.7262.2501-.2192 4.0531-3.624 6.8796-10.1121.0026-.0061.0053-.0122.0078-.0183 1.1962-2.8786 3.9829-4.7386 7.0997-4.7386 3.1179-.0001 5.9052 1.8595 7.1011 4.7374.0024.0061.0051.0122.0077.0183 2.2952 5.2676 5.2505 8.5196 6.4144 9.6734.0335.033.0689.0642.1059.093 1.8921 1.4702 2.9772 3.6837 2.9772 6.0731.0002 2.7266-1.3043 5.0616-3.5458 6.5426z"/><path d="m65.8799 53.1332c-.3532-.5422-1.079-.6958-1.6215-.3425-.5425.3534-.6957 1.0794-.3425 1.6216 1.7832 2.7379 3.474 4.5613 4.3234 5.4046.4591.4559 1.2011.4534 1.6574-.0059.4559-.4593.4532-1.2013-.006-1.6574-.7833-.7777-2.3459-2.4639-4.0108-5.0204z"/><path d="m54.2021 34.0034c1.1261-1.9682 1.5955-4.5823 1.288-7.1713-.5948-5.0406-4.0712-9.2632-7.9551-8.7968-1.7539.2075-3.3132 1.3588-4.3914 3.2416-1.1254 1.9667-1.5948 4.5808-1.288 7.1717.9716 8.2318 8.6348 12.0384 12.3465 5.5548zm-9.0244-11.5622c.6415-1.1207 1.6422-2.0952 2.9321-2.0952 2.3063 0 4.6203 3.096 5.053 6.7616.2496 2.1015-.113 4.1906-.9947 5.7317-2.7008 4.7184-7.3469.7404-7.9851-4.6659-.249-2.1031.1137-4.1925.9947-5.7322z"/><path d="m42.9769 46.6075c.3393-2.0886-.073-4.3985-1.1607-6.5043-1.0882-2.1062-2.7338-3.7793-4.6337-4.7111-2.0179-.9898-4.0844-1.0409-5.8188-.1441-1.7344.8962-2.8877 2.611-3.2479 4.829-.3393 2.0888.073 4.3985 1.1607 6.5045 1.0883 2.1056 2.7339 3.7784 4.6338 4.7102 1.8856.9249 3.9746 1.0977 5.8184.1451 1.7346-.8961 2.8882-2.6113 3.2482-4.8293zm-4.3239 2.747c-1.0582.5471-2.3758.4876-3.7105-.167-1.4519-.7121-2.7246-2.0199-3.5837-3.682-.8586-1.6623-1.1889-3.4566-.9296-5.0528.2382-1.467.9523-2.5757 2.0107-3.1225l.0003-.0002c1.1703-.605 2.5256-.4147 3.7102.1663 1.4518.7121 2.7245 2.0201 3.5836 3.6827.8586 1.6623 1.1888 3.4568.9296 5.0529-.2381 1.467-.9522 2.5758-2.0106 3.1226z"/><path d="m66.7889 37.3015c3.5526 0 6.7955-3.8786 7.3827-8.8304.624-5.2751-2.0338-10.4465-6.2555-10.4465-3.5531 0-6.7957 3.8788-7.3815 8.8305-.6247 5.2847 2.0409 10.4464 6.2543 10.4464zm-3.9267-10.1712c.4338-3.6653 2.7483-6.762 5.0542-6.762.1085 0 .202.0052.2858.0161 1.2496.1389 2.2168 1.231 2.7866 2.346.7751 1.5165 1.0868 3.5085.8555 5.465-.4504 3.7973-2.9673 7.0543-5.3411 6.7462-.0043-.0005-.0087-.001-.013-.0016-1.0656-.1254-2.0763-.9797-2.7729-2.3438-.7748-1.5166-1.0864-3.5088-.8551-5.4659z"/><path d="m87.8844 40.0817c-.7411-4.564-4.8668-6.7458-9.0667-4.6849-3.9292 1.9275-6.4965 6.8927-5.7944 11.2155.7499 4.6181 4.9167 6.7201 9.0665 4.6843 3.9304-1.9279 6.4966-6.8925 5.7946-11.2149zm-6.8267 9.1105c-1.3346.6545-2.6522.7137-3.7106.167v.0001c-1.0583-.5469-1.7724-1.6559-2.0105-3.1227-.5358-3.2995 1.5044-7.2594 4.5133-8.7358 2.7574-1.3527 5.2281-.0791 5.7211 2.9565.5349 3.2934-1.4989 7.2565-4.5133 8.7349z"/></g></svg>