<svg fill="none" height="130" viewBox="0 0 117 130" width="117" xmlns="http://www.w3.org/2000/svg"><circle cx="57.8345" cy="45.4964" r="44.3397" stroke="#000" stroke-width="2.31337"/><g fill="#000"><path d="m32.5129 124.873h-2.4984l-.0203-9.425-4.6716 7.8h-1.1781l-4.6717-7.678v9.303h-2.5186v-14.218h2.1733l5.6467 9.424 5.545-9.424h2.1734zm11.5588-10.846h2.539v10.846h-2.4171v-1.381c-.8124.995-2.0921 1.523-3.4936 1.523-2.7827 0-4.6716-1.523-4.6716-4.793v-6.195h2.5389v5.849c0 1.971.9343 2.905 2.539 2.905 1.7671 0 2.9654-1.097 2.9654-3.27zm16.0597 5.484c0 .203-.0203.508-.0406.751h-8.5106c.3047 1.585 1.6249 2.6 3.5139 2.6 1.2187 0 2.1734-.386 2.9452-1.178l1.3609 1.564c-.975 1.158-2.4984 1.767-4.367 1.767-3.6358 0-5.9919-2.336-5.9919-5.565 0-3.23 2.3764-5.545 5.606-5.545 3.1686 0 5.4841 2.214 5.4841 5.606zm-5.4841-3.575c-1.6453 0-2.8437 1.056-3.0874 2.64h6.1544c-.2031-1.564-1.4015-2.64-3.067-2.64zm13.9351-2.031c3.1686 0 5.5045 2.173 5.5045 5.545s-2.3359 5.565-5.5045 5.565c-1.4827 0-2.742-.508-3.5951-1.544v1.402h-2.4171v-15.071h2.539v5.545c.8734-.975 2.092-1.442 3.4732-1.442zm-.2843 8.937c1.828 0 3.2092-1.32 3.2092-3.392s-1.3812-3.392-3.2092-3.392c-1.8281 0-3.2296 1.32-3.2296 3.392s1.4015 3.392 3.2296 3.392zm8.1967 2.031v-15.071h2.5389v15.071zm16.0677-5.362c0 .203-.0203.508-.0406.751h-8.5106c.3047 1.585 1.6249 2.6 3.5139 2.6 1.2187 0 2.1733-.386 2.9452-1.178l1.3609 1.564c-.975 1.158-2.4984 1.767-4.367 1.767-3.6358 0-5.9919-2.336-5.9919-5.565 0-3.23 2.3764-5.545 5.606-5.545 3.1686 0 5.4841 2.214 5.4841 5.606zm-5.4841-3.575c-1.6453 0-2.8437 1.056-3.0874 2.64h6.1544c-.2031-1.564-1.4015-2.64-3.067-2.64zm11.2743 9.079c-1.8077 0-3.6154-.528-4.5904-1.219l.975-1.929c.9546.63 2.417 1.076 3.7779 1.076 1.6048 0 2.2748-.446 2.2748-1.198 0-2.072-6.7027-.122-6.7027-4.448 0-2.052 1.8483-3.392 4.7732-3.392 1.4425 0 3.0875.345 4.0625.934l-.975 1.93c-1.036-.61-2.0719-.813-3.1078-.813-1.5437 0-2.2749.508-2.2749 1.219 0 2.194 6.7027.244 6.7027 4.489 0 2.031-1.869 3.351-4.9153 3.351z"/><path d="m87.772 36.2659h-1.3331v-4.9543c0-2.9289-2.3827-5.3116-5.3115-5.3116h-19.25c-1.7845 0-3.3651.8855-4.3287 2.2391-.9636-1.3537-2.5442-2.2391-4.3287-2.2391h-12.0935c-.5428 0-.9829.4401-.9829.9829s.4401.9828.9829.9828h12.0935c1.8449 0 3.3458 1.501 3.3458 3.3459v9.83c-.0206-.0198-.0423-.0383-.0632-.0578-1.165-1.0863-2.744-1.7124-4.3378-1.7124h-16.3718c-.0866-1.3197-.9863-2.4804-2.2277-2.9205-.3498-.1239-.7196-.185-1.0906-.185h-1.8505v-4.9543c0-1.8449 1.5009-3.3459 3.3458-3.3459h3.225c.5428 0 .9829-.44.9829-.9828s-.4401-.9829-.9829-.9829h-3.225c-2.9288 0-5.3116 2.3827-5.3116 5.3116v4.9543h-1.333c-1.8337 0-3.3254 1.492-3.3254 3.3254v10.2626c0 3.8185 3.1067 6.9252 6.9252 6.9252h.4939s-1.0762 2.8946-1.077 2.8968c-.6789 1.8261.7186 3.832 2.6636 3.832h1.5813c.8851 0 1.7323-.4214 2.2663-1.1274l4.237-5.6014h32.917l4.237 5.6016c.534.7058 1.3812 1.1272 2.2662 1.1272h1.5811c1.9474 0 3.3425-2.0063 2.6636-3.832l-1.0771-2.8968h.4941c3.8185 0 6.9252-3.1067 6.9252-6.9252v-10.2626c0-1.8334-1.4918-3.3254-3.3254-3.3254zm-29.2404-4.9541c0-1.845 1.5009-3.3459 3.3458-3.3459h19.25c1.8449 0 3.3458 1.5009 3.3458 3.3458v4.9543s-1.85 0-1.8507 0c-1.3068 0-2.5604.8387-3.0673 2.042-.142.337-.227.6989-.2509 1.0636 0 0-16.3712 0-16.3717 0-1.6185 0-3.2316.6512-4.401 1.7703zm-22.7314 10.0254h16.3646c2.4268.0002 4.401 1.9744 4.401 4.4012v1.3977h-20.7656zm-.5146 19.8575c-.1646.2176-.4259.3475-.6988.3475 0 0-1.5757 0-1.5812 0-.6018 0-1.0307-.6174-.821-1.1811l1.3317-3.582h5.1091zm46.806.3474h-1.5811c-.2728 0-.534-.1299-.6986-.3474l-3.3399-4.4156h5.1091s1.3271 3.5694 1.3317 3.5818c.2101.5651-.2219 1.1812-.8212 1.1812zm2.0806-6.7288h-53.247c-2.7346.0002-4.9595-2.2248-4.9595-4.9594v-10.2626c0-.7498.6099-1.3597 1.3597-1.3597h5.1493c.7497 0 1.3597.6099 1.3597 1.3597v8.5275c0 .5428.44.9829.9828.9829h36.1012c.5428 0 .9828-.4401.9828-.9829s-.44-.9829-.9828-.9829h-12.3868v-1.3976c0-2.4268 1.9742-4.4011 4.401-4.4011h16.3645v5.7989h-4.4473c-.5428 0-.9828.44-.9828.9828s.44.9829.9828.9829h5.4302c.5428 0 .9829-.4401.9829-.9829v-8.5275c0-.7497.6099-1.3596 1.3596-1.3596h5.1494c.7497 0 1.3596.6099 1.3596 1.3596v10.2625h.0001c0 2.7346-2.2248 4.9594-4.9594 4.9594z"/></g></svg>