<svg fill="none" height="130" viewBox="0 0 117 130" width="117" xmlns="http://www.w3.org/2000/svg"><circle cx="57.8345" cy="45.4964" r="44.3397" stroke="#000" stroke-width="2.31337"/><g fill="#000"><path d="m40.9081 110.655h2.6202v14.218h-2.1734l-7.8402-9.628v9.628h-2.6202v-14.218h2.1733l7.8403 9.628zm7.4659 1.584c-.9343 0-1.6249-.67-1.6249-1.523s.6906-1.524 1.6249-1.524 1.6249.63 1.6249 1.463c0 .894-.6702 1.584-1.6249 1.584zm-1.2796 12.634v-10.846h2.5389v10.846zm9.9133-13.67c-.5687 0-.9546.447-.9953 1.219h-1.3608c.0406-1.666.8937-2.722 2.1936-2.722 1.3406 0 2.0312 1.341 2.7624 1.341.5687 0 .9546-.427.9953-1.158h1.3608c-.0406 1.584-.8937 2.661-2.1936 2.661-1.3406 0-2.0312-1.341-2.7624-1.341zm2.1124 2.702c2.5999 0 4.5295 1.482 4.5295 4.753v6.215h-2.539v-5.89c0-1.93-.9546-2.864-2.5795-2.864-1.8078 0-3.0265 1.097-3.0265 3.27v5.484h-2.5389v-10.846h2.4171v1.401c.8328-.995 2.153-1.523 3.7373-1.523zm12.7243 11.11c-3.3311 0-5.7685-2.315-5.7685-5.565s2.4374-5.545 5.7685-5.545c3.3717 0 5.7888 2.295 5.7888 5.545s-2.4171 5.565-5.7888 5.565zm0-2.173c1.8483 0 3.2295-1.32 3.2295-3.392s-1.3812-3.392-3.2295-3.392c-1.8281 0-3.2093 1.32-3.2093 3.392s1.3812 3.392 3.2093 3.392zm11.568 2.173c-1.8077 0-3.6154-.528-4.5904-1.219l.975-1.929c.9546.63 2.4171 1.076 3.7779 1.076 1.6047 0 2.2749-.446 2.2749-1.198 0-2.072-6.7028-.122-6.7028-4.448 0-2.052 1.8484-3.392 4.7732-3.392 1.4422 0 3.0874.345 4.0624.934l-.975 1.93c-1.0359-.61-2.0718-.813-3.1077-.813-1.5437 0-2.2749.508-2.2749 1.219 0 2.194 6.7029.244 6.7029 4.489 0 2.031-1.8687 3.351-4.9155 3.351z"/><path d="m49.7157 42.9671c3.9336 0 7.1337-2.6001 7.1337-5.7961 0-.2365-.0939-.4633-.2611-.6306-.1673-.1672-.3941-.2611-.6306-.2611s-.4633.0939-.6305.2611c-.1672.1673-.2612.3941-.2612.6306 0 1.9847-1.9315 3.6365-4.4585 3.9558v-2.83c.0943-.0471.1848-.1015.2706-.1627l1.5133-1.0799c.2777-.2016.5034-.4664.6584-.7725.1549-.3062.2347-.6449.2327-.988 0-1.1773-.9212-2.1351-2.0534-2.1351h-3.0268c-1.1323 0-2.0534.9578-2.0534 2.1351-.002.3431.0777.6818.2327.988.1549.3061.3806.5709.6583.7725l1.5134 1.0799c.0858.0613.1763.1157.2707.1627v2.83c-2.527-.3193-4.4585-1.9711-4.4585-3.9558 0-.2365-.094-.4633-.2612-.6306-.1672-.1672-.3941-.2611-.6306-.2611s-.4633.0939-.6305.2611c-.1672.1673-.2612.3941-.2612.6306 0 3.196 3.2002 5.7961 7.1337 5.7961zm-1.6396-7.3649c-.0463-.0367-.0834-.0838-.1084-.1374-.0249-.0536-.0369-.1123-.0352-.1714 0-.1906.1238-.3517.27-.3517h3.0269c.1464 0 .27.1611.27.3517.0017.0591-.0103.1178-.0353.1714-.0249.0536-.062.1007-.1084.1374l-1.5133 1.0799c-.0363.0279-.0807.0431-.1265.0431-.0457 0-.0902-.0152-.1265-.0431z"/><path d="m55.066 33.1583c.4925 0 .8917-.3992.8917-.8917s-.3992-.8917-.8917-.8917c-.4924 0-.8917.3992-.8917.8917s.3993.8917.8917.8917z"/><path d="m44.3656 33.1583c.4925 0 .8917-.3992.8917-.8917s-.3992-.8917-.8917-.8917-.8917.3992-.8917.8917.3992.8917.8917.8917z"/><path d="m72.9104 50.9926c.7054 0 1.395-.2092 1.9816-.6011s1.0437-.949 1.3137-1.6007c.27-.6518.3406-1.369.203-2.0609s-.4774-1.3274-.9762-1.8263c-.4988-.4988-1.1344-.8385-1.8263-.9761-.6919-.1377-1.4091-.067-2.0608.2029-.6518.27-1.2088.7272-1.6008 1.3137-.3919.5866-.6011 1.2762-.6011 1.9817.0011.9456.3772 1.8523 1.0459 2.5209.6687.6687 1.5753 1.0449 2.521 1.0459zm0-5.3503c.3527 0 .6975.1046.9908.3006s.5218.4745.6568.8004.1703.6845.1015 1.0304c-.0688.346-.2386.6637-.4881.9131-.2494.2495-.5672.4193-.9131.4881-.346.0688-.7045.0335-1.0304-.1015-.3259-.1349-.6044-.3635-.8004-.6568s-.3006-.6381-.3006-.9908c.0006-.4728.1887-.9261.523-1.2605.3343-.3343.7876-.5224 1.2605-.523z"/><path d="m85.3944 52.776h-5.3502v-11.5923c.0001-.183-.0564-.3615-.1617-.5111l-6.242-8.9171c-.0822-.1175-.1915-.2134-.3187-.2796s-.2684-.1008-.4118-.1008-.2846.0346-.4118.1008-.2365.1621-.3187.2796l-6.242 8.9171c-.105.1497-.1612.3282-.1608.5111v5.5802c-1.2211-1.6416-2.8502-3.0037-4.8618-4.0544 1.9861-2.3345 3.0684-5.3679 3.0684-8.6595.0046-1.4545-.216-2.9009-.654-4.2878.8685-.4585 1.6166-1.1154 2.1835-1.9174s.9365-1.7264 1.0788-2.6982c.1423-.9717.0534-1.9633-.2597-2.8942-.313-.9309-.8413-1.7748-1.5418-2.463-.7006-.6883-1.5537-1.2016-2.49-1.4981-.9362-.2965-1.9293-.3679-2.8983-.2084-.9691.1595-1.8869.5454-2.6787 1.1263-.7918.581-1.4354 1.3406-1.8784 2.2171-1.6611-.5118-3.3908-.7654-5.1288-.752-1.738-.0134-3.4676.2403-5.1285.7521-.443-.8765-1.0866-1.6361-1.8784-2.2171-.7919-.5809-1.7096-.9669-2.6787-1.1264-.969-.1595-1.9621-.0881-2.8983.2084-.9363.2965-1.7894.8098-2.49 1.498-.7006.6883-1.2288 1.5322-1.5419 2.4631-.313.9308-.402 1.9224-.2597 2.8942.1423.9717.5119 1.8962 1.0788 2.6982.5668.802 1.3149 1.4589 2.1834 1.9174-.4381 1.3869-.6588 2.8333-.6542 4.2878 0 3.2916 1.0828 6.3251 3.0685 8.6595-4.3413 2.2674-6.9009 5.9862-7.426 10.8275-.0012.0112-.0023.0223-.0031.0335l-.0857 1.2241c-.0028.0402-.0028.0806 0 .1208.0713 1.0438.4465 2.0439 1.0792 2.8771s1.4954 1.463 2.4817 1.812c-.5884 1.2057-.8921 2.5304-.888 3.872 0 4.4251 3.2002 8.0254 7.1338 8.0254 2.1178 0 4.0219-1.0446 5.3296-2.6987 1.1004.6006 2.3339.9153 3.5875.9153s2.4871-.3147 3.5875-.9153c1.3077 1.6541 3.2118 2.6987 5.3296 2.6987 2.7951 0 5.2184-1.8186 6.3879-4.4585h20.3635c.2365 0 .4633-.094.6306-.2612.1672-.1672.2611-.394.2611-.6305v-12.484c0-.2365-.0939-.4633-.2611-.6306-.1673-.1672-.3941-.2611-.6306-.2611zm-12.484-18.9545 4.5294 6.4705h-9.0587zm-5.3502 8.2539h10.7005v10.7006h-10.0225c-.1405-.9113-.3676-1.807-.678-2.6752zm-2.6744 17.5228c.8403-.3016 1.5923-.8074 2.1885-1.472h1.3776v3.5669h-2.855c-.1458-.726-.3849-1.4301-.7111-2.0949zm1.6801-5.8853.0803 1.1429c-.0642.7548-.3665 1.4696-.8634 2.0414-.4968.5718-1.1625.971-1.901 1.1399-1.1178-1.3616-2.6483-2.2864-4.3659-2.5234-.1624-3.6269-1.3849-6.9735-3.3824-9.3165 1.2594-.532 2.4272-1.2589 3.4606-2.1539 4.0847 1.9566 6.4914 5.2875 6.9718 9.669zm-6.1495-33.9303c.9798-.0004 1.9324.3221 2.7105.9174.7782.5953 1.3386 1.4303 1.5946 2.3761.256.9457.1934 1.9494-.1782 2.856-.3716.9065-1.0314 1.6655-1.8775 2.1594-.6225-1.3043-1.4674-2.4904-2.4968-3.5048-1.0623-1.0419-2.2968-1.8922-3.649-2.5131.3871-.6938.9523-1.2718 1.6371-1.6745.6849-.4027 1.4648-.6155 2.2593-.6165zm-25.8597 4.4585c-.0002-.9878.3275-1.9477.9319-2.729.6043-.7813 1.451-1.3399 2.4071-1.5879.9562-.248 1.9676-.1715 2.8755.2175.908.389 1.661 1.0685 2.141 1.9319-1.3522.6209-2.5868 1.4711-3.649 2.5131-1.0295 1.0144-1.8744 2.2003-2.4968 3.5047-.6719-.3936-1.2292-.956-1.6168-1.6313-.3876-.6754-.592-1.4403-.5929-2.219zm5.957 1.6171c2.2623-2.2246 5.4447-3.4005 9.2022-3.4005 3.7574 0 6.9398 1.1759 9.2022 3.4007 2.1163 2.081 3.2817 4.9901 3.2817 8.1916 0 3.2014-1.1654 6.1106-3.2817 8.1916-2.2624 2.2247-5.4445 3.4007-9.2022 3.4007-3.7578 0-6.9399-1.176-9.2022-3.4006-2.1164-2.0811-3.2818-4.9903-3.2818-8.1917 0-3.2015 1.1654-6.1106 3.2818-8.1918zm-7.728 28.9973.08-1.1429c.4805-4.3819 2.8869-7.7128 6.9718-9.6696 1.038.8989 2.2115 1.6281 3.4771 2.1608-1.9916 2.3437-3.2154 5.7001-3.3787 9.3095-1.7191.2372-3.2513 1.1639-4.3692 2.5271-.7421-.1659-1.4119-.5643-1.912-1.137-.5002-.5728-.8046-1.2902-.869-2.0479zm8.0231 14.863c-2.9503 0-5.3503-2.8001-5.3503-6.242s2.4-6.242 5.3503-6.242c2.9502 0 5.3502 2.8001 5.3502 6.242s-2.4 6.242-5.3502 6.242zm8.9171-1.7834c-.9191-.003-1.8241-.2259-2.6395-.6498.5677-1.1893.8603-2.491.8561-3.8088 0-4.0771-2.7172-7.4515-6.2211-7.9574.1715-3.4777 1.4209-6.6567 3.4271-8.6804 1.4894.3987 3.0255.5961 4.5674.587 1.547.0093 3.0883-.1894 4.5824-.5908 2.0126 2.0232 3.262 5.1896 3.4324 8.6844-3.504.5055-6.2214 3.8799-6.2214 7.9572-.0042 1.3178.2884 2.6195.8561 3.8088-.8155.4239-1.7205.6468-2.6395.6498zm8.9171 1.7834c-2.9502 0-5.3503-2.8001-5.3503-6.242s2.4001-6.242 5.3503-6.242c2.9503 0 5.3503 2.8001 5.3503 6.242s-2.4 6.242-5.3503 6.242zm7.1337-6.242h3.5669c.2365 0 .4633-.0939.6305-.2612.1673-.1672.2612-.394.2612-.6305v-5.3503c0-.2365-.0939-.4633-.2612-.6305-.1672-.1672-.394-.2612-.6305-.2612h-1.2086c.1635-.46.2627-.9403.2949-1.4274.0027-.0402.0027-.0806 0-.1208l-.0165-.2352h3.6053v10.7005h-6.4218c.1194-.5869.1796-1.1844.1798-1.7834zm18.726 1.7834h-10.7005v-10.7005h10.7005z"/><path d="m76.4774 63.4766h5.3503c.152 0 .3014-.0389.4342-.1129.1327-.074.2444-.1808.3243-.3101s.1254-.2768.1322-.4287c.0069-.1518-.0252-.3029-.0932-.4389l-2.6752-5.3502c-.074-.1481-.1879-.2727-.3287-.3597-.1409-.0871-.3032-.1332-.4688-.1332s-.3279.0461-.4687.1332c-.1409.087-.2547.2116-.3288.3597l-2.6751 5.3502c-.068.136-.1001.2871-.0933.4389.0068.1519.0523.2994.1323.4287.0799.1293.1915.2361.3242.3101.1328.074.2823.1129.4343.1129zm2.6751-4.248 1.2324 2.4645h-2.4647z"/></g></svg>