<svg fill="none" height="29" viewBox="0 0 29 29" width="29" xmlns="http://www.w3.org/2000/svg"><path d="m23.6163 8.97122-3.5583-3.56326c-2.4342-2.43796-3.6507-3.65453-4.9585-3.3663-1.3066.28823-1.8987 1.90593-3.084 5.14013l-.8022 2.18935c-.3158.86226-.4743 1.29346-.759 1.62736-.1275.1498-.2726.2837-.4323.3987-.35545.2558-.79738.3771-1.68125.6209-1.99351.55-2.99147.825-3.36735 1.4772-.1626.2822-.24716.6026-.24499.9283.00481.753.73616 1.4844 2.19767 2.9484l1.69928 1.7005-5.37527 5.3804c-.16379.1736-.25347.4042-.24999.6429s.09984.4667.26863.6355.39671.2651.63539.2686.46932-.0862.64295-.25l5.37407-5.3803 1.76056 1.763c1.4723 1.4724 2.2085 2.2098 2.9662 2.2098.3183 0 .6317-.0817.9091-.2402.6581-.3759.9343-1.3799 1.4879-3.3891.2426-.8828.3639-1.3235.6185-1.6802.1117-.1549.2414-.2966.3867-.4227.3303-.2859.759-.4468 1.6152-.7687l2.2145-.8322c3.1992-1.201 4.7988-1.8027 5.0798-3.1057.2823-1.3043-.9259-2.5136-3.3433-4.93238z" fill="#09921f"/><path d="m2.73744 2.26256 23.99996 24.00004" stroke="#09921f" stroke-width="3.5"/><g stroke="#fff" stroke-width="1.5"><path d="m3.53033 1.46967 23.99997 24.00003"/><path d="m.53033 3.46967 24.99997 25.00003"/></g></svg>