<svg fill="none" height="144" viewBox="0 0 126 144" width="126" xmlns="http://www.w3.org/2000/svg"><path d="m108.619 121.022h-7.65v-57.4856c-2.7972.8184-5.7554 1.2591-8.8168 1.2591-2.5268 0-4.9829-.3009-7.3364-.8657.0003.0737.0028.1469.0028.2205 0 6.8606-1.6889 13.3257-4.6696 19.0064v37.8653h-7.65c-.8511 0-1.2879 1.02-.7003 1.636l18.0599 18.933c.3814.4 1.0192.4 1.4003 0l18.0601-18.933c.588-.616.151-1.636-.7-1.636z" fill="#fe646f"/><path d="m81.1781 122.658c-.5875-.616-.151-1.636.7003-1.636h4.8375c1.5533 0 2.8125-1.259 2.8125-2.812v-53.5256c-1.6082-.1339-3.1823-.3876-4.7126-.7546.0003.0737.0028.1468.0028.2205 0 6.8605-1.6889 13.3256-4.6696 19.0063v37.8654h-7.65c-.8511 0-1.2879 1.02-.7003 1.636l18.0599 18.933c.3814.399 1.0192.399 1.4003 0l3.9896-4.183z" fill="#fd4755"/><path d="m61.9118 121.022h-7.65v-17.241c-3.3244.871-6.8127 1.336-10.4099 1.336s-7.0858-.465-10.4099-1.336v17.241h-7.65c-.8511 0-1.2879 1.02-.7004 1.636l18.06 18.933c.3813.4 1.0192.4 1.4003 0l18.0599-18.933c.5875-.616.151-1.636-.7-1.636z" fill="#fe646f"/><path d="m34.4907 122.658c-.5875-.616-.151-1.636.7004-1.636h4.8375c1.5533 0 2.8125-1.259 2.8125-2.812v-13.109c-3.24-.079-6.3875-.531-9.3991-1.32v17.241h-7.65c-.8511 0-1.2879 1.02-.7004 1.636l18.06 18.933c.3813.4 1.0192.4 1.4003 0l3.9994-4.193z" fill="#fd4755"/><path d="m60.8091 33.4524c0-2.1605.2188-4.2702.635-6.3076-5.3305-2.5385-11.295-3.9611-17.5924-3.9611-22.6255 0-40.96693 18.3415-40.96693 40.9669 0 22.6255 18.34143 40.9664 40.96693 40.9664 22.6254 0 40.9668-18.3409 40.9668-40.9664 0-.0737-.0025-.1468-.0028-.2205-13.7708-3.303-24.0066-15.694-24.0066-30.4777z" fill="#fff0ad"/><path d="m61.494 39.9902c-4.9505-3.6248-11.0503-5.7688-17.6422-5.7688-16.5029 0-29.9289 13.4261-29.9289 29.929s13.426 29.9289 29.9289 29.9289 29.9289-13.426 29.9289-29.9289c0-1.9522-.1901-3.8607-.5487-5.7097-5.8885-4.4654-10.1492-10.9637-11.738-18.4505z" fill="#ffe177"/><path d="m25.7837 64.1506c0-14.4731 10.3267-26.5784 23.9985-29.3377-1.9175-.387-3.9006-.5912-5.9304-.5912-16.5029 0-29.9289 13.426-29.9289 29.9289s13.426 29.929 29.9289 29.929c2.0298 0 4.0129-.2042 5.9304-.5912-13.6718-2.7594-23.9985-14.8649-23.9985-29.3378z" fill="#ffd15b"/><path d="m92.1517 64.7955c17.3103 0 31.3433-14.0327 31.3433-31.343 0-17.3104-14.033-31.34312-31.3433-31.34312s-31.3431 14.03272-31.3431 31.34312c0 17.3103 14.0328 31.343 31.3431 31.343z" fill="#05e39c"/><path d="m75.0022 33.4525c0-14.8694 10.3545-27.32037 24.2463-30.53618-2.2804-.52791-4.6559-.80719-7.0968-.80719-17.3104 0-31.3431 14.03267-31.3431 31.34307s14.0327 31.3431 31.3431 31.3431c2.4407 0 4.8164-.2793 7.0968-.8072-13.8918-3.2153-24.2463-15.6662-24.2463-30.5356z" fill="#0ed290"/><path d="m81.7852 26.9733c2.6838 0 4.8595-2.1757 4.8595-4.8595s-2.1757-4.8594-4.8595-4.8594-4.8594 2.1756-4.8594 4.8594 2.1756 4.8595 4.8594 4.8595z" fill="#fff"/><path d="m102.519 49.6504c2.683 0 4.859-2.1756 4.859-4.8594s-2.176-4.8595-4.859-4.8595c-2.6842 0-4.8598 2.1757-4.8598 4.8595s2.1756 4.8594 4.8598 4.8594z" fill="#fff"/><g fill="#000"><path d="m47.4264 62.0409h-7.1485c-2.403 0-4.3583-1.9552-4.3583-4.3582s1.9553-4.3583 4.3583-4.3583h12.5949c1.165 0 2.1094-.9444 2.1094-2.1093 0-1.165-.9444-2.1094-2.1094-2.1094h-6.9111v-4.5284c0-1.165-.9445-2.1094-2.1094-2.1094s-2.1094.9444-2.1094 2.1094v4.5284h-1.4647c-4.7292 0-8.577 3.8478-8.577 8.577s3.8478 8.577 8.577 8.577h7.1485c2.403 0 4.3583 1.9552 4.3583 4.3582s-1.9553 4.3583-4.3583 4.3583h-12.5947c-1.1649 0-2.1093.9444-2.1093 2.1094 0 1.1649.9444 2.1093 2.1093 2.1093h6.9112v4.5287c0 1.165.9444 2.1094 2.1094 2.1094 1.1649 0 2.1094-.9444 2.1094-2.1094v-4.5287h1.4647c4.7292 0 8.577-3.8477 8.577-8.577 0-4.7292-3.8481-8.577-8.5773-8.577z"/><path d="m123.492 35.597c-1.153-.1556-2.217.6536-2.373 1.8081-1.947 14.4127-14.4 25.281-28.9669 25.281-16.1195 0-29.2337-13.1141-29.2337-29.2337 0-16.1195 13.1142-29.23365 29.2337-29.23365 14.1559 0 26.2539 10.09355 28.7659 23.99995.207 1.1463 1.306 1.9082 2.451 1.7007 1.146-.207 1.908-1.3045 1.701-2.4508-2.876-15.9163-16.72-27.4686-32.9179-27.4686-15.2437 0-28.1379 10.2493-32.1556 24.2184-4.9888-2.025-10.438-3.144-16.1448-3.144-23.7525 0-43.076309 19.3238-43.076309 43.0762 0 19.3995 12.891409 35.8428 30.556709 41.2184v13.544h-5.5406c-1.233 0-2.3434.732-2.8289 1.866-.4854 1.134-.2489 2.443.6022 3.335l18.0596 18.933c.578.606 1.3894.953 2.2267.953s1.649-.347 2.2266-.953l18.06-18.933c.851-.892 1.0873-2.201.6021-3.335-.4854-1.133-1.5955-1.866-2.8288-1.866h-5.5406v-13.543c8.7078-2.65 16.2534-7.99 21.6683-15.0477v28.5907h-5.5406c-1.233 0-2.3434.732-2.8288 1.866s-.2489 2.443.6024 3.335l18.0597 18.933c.5779.606 1.3893.953 2.2269.953.8373 0 1.6487-.347 2.2264-.953l18.0603-18.933c.851-.892 1.087-2.201.602-3.335-.485-1.133-1.596-1.866-2.829-1.866h-5.54v-22.163c0-1.1649-.945-2.1093-2.11-2.1093s-2.1092.9444-2.1092 2.1093v24.272c0 1.165.9442 2.11 2.1092 2.11h4.983l-15.3924 16.137-15.3931-16.137h4.9832c1.1652 0 2.1093-.945 2.1093-2.11v-37.3841c2.6494-5.2009 4.2742-11.0073 4.6041-17.1526 1.7235.275 3.49.4196 5.2898.4196 2.2691 0 4.5151-.2306 6.7072-.6784v20.6798c0 1.1649.9442 2.1094 2.1089 2.1094 1.166 0 2.11-.9445 2.11-2.1094v-21.8352c4.08-1.4093 7.881-3.6059 11.174-6.5067 6.05-5.3288 9.973-12.643 11.047-20.5948.157-1.1542-.653-2.2165-1.807-2.3726zm-69.2304 87.535h4.9832l-15.3931 16.137-15.3931-16.137h4.9831c1.165 0 2.1094-.945 2.1094-2.11v-14.601c2.6871.527 5.4616.806 8.3006.806 2.8389 0 5.6137-.279 8.3005-.806v14.601c0 1.165.9444 2.11 2.1094 2.11zm-10.4099-20.124c-21.4262 0-38.85756-17.4315-38.85756-38.8577s17.43136-38.8575 38.85756-38.8575c5.4025 0 10.5496 1.1104 15.2285 3.1121-.2503 1.6467-.3805 3.3322-.3805 5.0475 0 .7946.0298 1.5824.0846 2.3631-4.462-2.3614-9.5425-3.7035-14.9324-3.7035-17.6658 0-32.0383 14.3725-32.0383 32.0383 0 17.6659 14.3725 32.0384 32.0383 32.0384 6.3988 0 12.5809-1.8892 17.878-5.4636.9655-.6517 1.22-1.9629.5684-2.9284-.6514-.9658-1.9629-1.2203-2.9284-.5684-4.5973 3.1022-9.9633 4.7419-15.5182 4.7419-15.34 0-27.8196-12.4799-27.8196-27.8196 0-15.3396 12.4799-27.8196 27.8196-27.8196 5.85 0 11.282 1.8178 15.7666 4.9149 1.76 7.3479 5.9509 13.7601 11.6724 18.3372.2472 1.4867.3805 3.0116.3805 4.5675 0 6.1105-1.9533 11.9138-5.6486 16.7825-.7045.9278-.5231 2.2511.4047 2.9554.9279.7045 2.2514.5228 2.9554-.405 4.2573-5.6084 6.5073-12.2938 6.5073-19.3332 0-.5014-.0155-.9992-.0386-1.4951 2.1432 1.2009 4.4309 2.1727 6.8302 2.8823-.7332 20.786-17.8684 37.4705-38.8299 37.4705z"/><path d="m88.7538 22.1138c0-3.8427-3.1261-6.9688-6.9686-6.9688-3.8427 0-6.9688 3.1261-6.9688 6.9688 0 3.8428 3.1261 6.9689 6.9688 6.9689 3.8425 0 6.9686-3.1261 6.9686-6.9689zm-6.9686 2.7501c-1.5165 0-2.75-1.2336-2.75-2.7501s1.2338-2.75 2.75-2.75 2.7498 1.2335 2.7498 2.75-1.2336 2.7501-2.7498 2.7501z"/><path d="m102.519 51.7599c3.842 0 6.968-3.1261 6.968-6.9688s-3.126-6.9688-6.968-6.9688c-3.8431 0-6.9692 3.1261-6.9692 6.9688s3.1261 6.9688 6.9692 6.9688zm0-9.7189c1.516 0 2.749 1.2336 2.749 2.7501s-1.233 2.75-2.749 2.75c-1.517 0-2.7504-1.2335-2.7504-2.75s1.2334-2.7501 2.7504-2.7501z"/><path d="m83.4646 51.552c.2945.1412.605.2084.9113.2084.7858 0 1.5404-.4413 1.9032-1.197l15.5499-32.3961c.504-1.0502.061-2.3105-.989-2.8145-1.0497-.504-2.3105-.0615-2.8145.9889l-15.5498 32.3961c-.504 1.0502-.0613 2.3102.9889 2.8142z"/></g></svg>