<svg width="135" height="134" viewBox="0 0 135 134" fill="none" xmlns="http://www.w3.org/2000/svg">
<path d="M32.7432 111.558C27.5502 114.423 25.2972 116.998 25.2972 116.998L17.3861 101.887L2.49414 111.854L14.4821 118.447V131.727L36.274 118.862L32.7874 111.586L32.7432 111.558Z" fill="#B32425"/>
<path d="M102.249 111.558C107.442 114.423 109.695 116.998 109.695 116.998L117.606 101.887L132.499 111.854L120.511 118.447V131.727L98.7188 118.862L102.205 111.587L102.249 111.558Z" fill="#B32425"/>
<path d="M32.7871 111.586C32.7871 111.586 32.7531 111.585 32.695 111.585C27.5365 114.439 25.2969 116.998 25.2969 116.998L36.2731 118.861L32.7871 111.586Z" fill="#8C1E23"/>
<path d="M102.205 111.586C102.205 111.586 102.239 111.585 102.297 111.585C107.455 114.439 109.695 116.998 109.695 116.998L98.7188 118.861L102.205 111.586Z" fill="#8C1E23"/>
<path d="M27.6627 87.3516C18.4043 91.7424 14.4814 96.3398 14.4814 96.3398L25.2968 116.998C25.2968 116.998 30.0161 111.6 41.5534 107.741C35.6915 101.547 31.1595 94.5747 27.6627 87.3516Z" fill="#E93234"/>
<path d="M107.328 87.3516C103.831 94.5747 99.2994 101.547 93.4375 107.741C104.975 111.6 109.694 116.998 109.694 116.998L120.509 96.3398C120.509 96.3398 116.586 91.7421 107.328 87.3516Z" fill="#E93234"/>
<path d="M67.4961 125.214C126.626 101.692 118.444 22.2251 118.444 22.2251C87.533 19.0365 67.4961 2.28784 67.4961 2.28784C67.4961 2.28784 47.4592 19.0365 16.5486 22.2251C16.5486 22.2251 8.36597 101.692 67.4961 125.214Z" fill="#F5BA3D"/>
<path d="M107.329 87.3516C103.832 94.5747 99.3004 101.547 93.4385 107.741C95.1746 108.322 96.7534 108.937 98.1879 109.564C104.144 103.702 108.816 97.0542 112.475 90.1059C110.987 89.2082 109.277 88.2754 107.329 87.3516Z" fill="#B32425"/>
<path d="M27.6628 87.3516C31.1598 94.5747 35.6916 101.547 41.5535 107.741C39.8174 108.322 38.2386 108.937 36.8041 109.564C30.8483 103.702 26.176 97.0542 22.5166 90.1059C24.0052 89.2082 25.7144 88.2754 27.6628 87.3516Z" fill="#B32425"/>
<path d="M118.444 22.2251C116.31 22.0049 114.23 21.7182 112.203 21.3787C112.853 39.6481 111.169 100.132 62.707 123.115C64.2532 123.856 65.847 124.558 67.4965 125.214C126.627 101.692 118.444 22.2251 118.444 22.2251Z" fill="#EF9325"/>
<path d="M67.4955 110.572C112.54 92.6536 106.306 32.1173 106.306 32.1173C82.7592 29.6883 67.4955 16.9292 67.4955 16.9292C67.4955 16.9292 52.2318 29.6881 28.6845 32.1173C28.6845 32.1173 22.4512 92.6536 67.4955 110.572Z" fill="#FFDB57"/>
<path d="M62.2428 79.3662C60.9412 79.3662 59.6927 78.849 58.7722 77.9288L47.6095 66.7661C45.6927 64.8493 45.6927 61.7418 47.6095 59.8252C49.5263 57.9084 52.6336 57.9084 54.5501 59.8252L62.2425 67.5176L81.0977 48.6625C83.0145 46.7457 86.122 46.7454 88.0383 48.6622C89.9551 50.579 89.9551 53.6866 88.0383 55.6031L65.7129 77.9283C64.7929 78.849 63.5441 79.3662 62.2428 79.3662Z" fill="#00B76C"/>
<path d="M133.589 110.224L120.16 101.236L122.247 97.2493C122.619 96.5399 122.522 95.6759 122.002 95.0667C121.842 94.8786 118.207 90.6871 109.925 86.4454C112.888 79.9966 115.272 72.9442 117.053 65.3463C122.412 42.4814 120.479 22.8489 120.394 22.0244C120.299 21.1003 119.569 20.3697 118.645 20.2745C103.035 18.6642 90.3122 13.4584 82.3883 9.37518C73.7746 4.93651 68.8018 0.823243 68.7537 0.783222C68.0255 0.174798 66.9658 0.174798 66.2381 0.783222C66.0422 0.946968 46.3147 17.1832 16.3468 20.2748C15.4227 20.3702 14.6924 21.1005 14.5972 22.0247C14.559 22.3948 13.6756 31.2329 14.6707 43.9708C14.7552 45.0506 15.6963 45.8589 16.7784 45.7734C17.8585 45.6891 18.6654 44.7451 18.5812 43.6656C17.8535 34.348 18.1713 27.0564 18.3753 23.9951C33.9048 22.1348 46.5441 16.9224 54.5138 12.8034C61.0092 9.44633 65.4581 6.31501 67.4958 4.77852C69.5329 6.31501 73.9823 9.44633 80.4775 12.8034C88.4474 16.9224 101.086 22.1346 116.615 23.9951C116.953 29.0799 117.595 45.8453 113.234 64.4517C111.344 72.5121 108.757 79.9228 105.507 86.6118C105.416 86.7991 105.323 86.9837 105.231 87.1695C105.03 87.5752 104.828 87.978 104.622 88.3782C104.506 88.6037 104.39 88.8289 104.273 89.0528C104.055 89.4685 103.833 89.8804 103.61 90.2901C103.423 90.6317 103.234 90.9704 103.044 91.3079C102.874 91.6108 102.702 91.9129 102.529 92.2121C102.355 92.5129 102.179 92.8119 102.001 93.1093C101.873 93.3241 101.744 93.5365 101.614 93.7491C101.196 94.4363 100.77 95.1153 100.335 95.7839C100.303 95.8328 100.272 95.8825 100.24 95.9314C100.014 96.2778 99.7844 96.6197 99.5536 96.9607C99.4548 97.107 99.3554 97.2529 99.2554 97.3981C97.8921 99.3856 96.4555 101.286 94.9473 103.092C94.9387 103.102 94.93 103.113 94.9214 103.123C94.6292 103.473 94.3339 103.818 94.0365 104.16C93.8021 104.43 93.5654 104.695 93.3276 104.961C93.2798 105.014 93.2324 105.068 93.1845 105.121C92.9159 105.419 92.6452 105.714 92.3721 106.006C92.3582 106.021 92.3444 106.036 92.3302 106.051C85.4074 113.453 77.0893 119.167 67.496 123.099C58.1034 119.246 47.5883 112.655 38.6697 101.39C38.6412 101.354 38.6126 101.318 38.5841 101.281C38.4044 101.054 38.2263 100.822 38.0482 100.591C34.795 96.3345 31.9077 91.6189 29.4282 86.4972C29.3704 86.3777 29.3016 86.2668 29.2242 86.1648C24.7319 76.8168 21.2438 65.4101 19.4012 51.4838C19.2592 50.41 18.2707 49.6544 17.1998 49.7969C16.1261 49.9389 15.3706 50.9248 15.5127 51.9983C17.2032 64.7752 20.4115 76.323 25.0667 86.4454C16.7839 90.6877 13.1499 94.8791 12.9895 95.0669C12.4698 95.6762 12.3727 96.5401 12.7436 97.2495L14.831 101.237L1.40252 110.224C0.833596 110.605 0.504273 111.255 0.534092 111.939C0.563912 112.623 0.948166 113.242 1.54848 113.573L12.5203 119.607V131.727C12.5203 132.431 12.8977 133.081 13.509 133.43C13.8106 133.602 14.1459 133.689 14.4815 133.689C14.8263 133.689 15.1713 133.597 15.4787 133.416L37.2705 120.551C37.2841 120.543 37.2961 120.534 37.3095 120.525C37.3317 120.511 37.3534 120.497 37.3751 120.482C37.4141 120.456 37.4518 120.428 37.4884 120.399C37.5062 120.385 37.5242 120.371 37.5415 120.357C37.5875 120.318 37.6312 120.277 37.6731 120.235C37.6799 120.228 37.6869 120.222 37.6935 120.215C37.7442 120.162 37.7913 120.106 37.8352 120.048C37.8365 120.046 37.8384 120.045 37.8399 120.043C37.8433 120.038 37.846 120.033 37.8494 120.028C37.8944 119.967 37.9352 119.904 37.9726 119.839C37.9804 119.825 37.9888 119.811 37.9964 119.797C38.0343 119.727 38.0686 119.656 38.0976 119.582C38.1026 119.569 38.1065 119.556 38.1112 119.544C38.1347 119.48 38.1549 119.415 38.1719 119.349C38.1763 119.332 38.1813 119.314 38.1852 119.297C38.2028 119.22 38.2161 119.143 38.2245 119.065C38.2255 119.054 38.2258 119.044 38.2266 119.033C38.2328 118.962 38.2349 118.891 38.2334 118.82C38.2331 118.804 38.2328 118.788 38.2323 118.772C38.2286 118.691 38.2211 118.611 38.2075 118.531C38.2064 118.525 38.2048 118.52 38.2038 118.514C38.1907 118.441 38.1724 118.369 38.1507 118.297C38.1449 118.278 38.1392 118.26 38.1332 118.241C38.1075 118.164 38.0788 118.088 38.0429 118.014L35.3563 112.407C36.9689 111.603 38.8509 110.779 41.0168 110.003C48.2559 117.392 56.8654 123.095 66.7717 127.036C67.0048 127.128 67.2504 127.175 67.4966 127.175C67.7427 127.175 67.9886 127.128 68.2214 127.036C78.1102 123.102 86.7331 117.393 93.9771 110.003C96.1427 110.78 98.0245 111.604 99.6368 112.408L96.9502 118.014C96.9144 118.088 96.8856 118.165 96.8599 118.241C96.8537 118.26 96.8479 118.279 96.8424 118.297C96.8207 118.369 96.8024 118.442 96.7893 118.515C96.7883 118.52 96.7867 118.526 96.7859 118.531C96.7723 118.611 96.7647 118.692 96.7611 118.772C96.7603 118.789 96.7603 118.805 96.76 118.821C96.7587 118.892 96.7605 118.963 96.7668 119.034C96.7679 119.044 96.7679 119.055 96.7689 119.065C96.777 119.144 96.7906 119.221 96.8082 119.297C96.8121 119.315 96.817 119.332 96.8218 119.35C96.8385 119.416 96.8586 119.48 96.8822 119.544C96.8869 119.557 96.8908 119.57 96.8958 119.583C96.9248 119.656 96.9588 119.728 96.9967 119.798C97.0043 119.812 97.0127 119.826 97.0208 119.839C97.0582 119.904 97.0988 119.968 97.1435 120.028C97.1471 120.033 97.1495 120.038 97.1532 120.043C97.1547 120.045 97.1563 120.047 97.1579 120.048C97.2018 120.106 97.2489 120.162 97.2997 120.215C97.3062 120.222 97.3133 120.228 97.3201 120.235C97.3616 120.277 97.4056 120.318 97.4516 120.357C97.4689 120.372 97.4869 120.386 97.5047 120.4C97.5413 120.428 97.579 120.456 97.618 120.483C97.6397 120.497 97.6614 120.512 97.6834 120.526C97.6967 120.534 97.7088 120.543 97.7224 120.551L119.514 133.416C119.821 133.598 120.166 133.689 120.511 133.689C120.846 133.689 121.182 133.603 121.484 133.431C122.095 133.081 122.472 132.431 122.472 131.727V119.607L133.444 113.573C134.044 113.242 134.429 112.624 134.458 111.939C134.487 111.255 134.158 110.605 133.589 110.224ZM29.8915 115.663C29.993 115.59 30.0942 115.517 30.2009 115.443C30.2663 115.397 30.3361 115.349 30.4036 115.303C30.513 115.228 30.6213 115.153 30.7356 115.075C30.8046 115.029 30.8781 114.981 30.9493 114.934C31.0693 114.854 31.1881 114.775 31.3136 114.694C31.3586 114.665 31.4073 114.635 31.4531 114.606C31.5943 114.515 31.7369 114.425 31.8847 114.333C31.8959 114.326 31.9082 114.319 31.9195 114.312L32.8695 116.294L29.7507 115.765C29.796 115.731 29.8441 115.697 29.8915 115.663ZM15.4269 116.729L6.26494 111.69L16.6615 104.732L23.5595 117.908C23.5974 117.981 23.6398 118.05 23.6859 118.116C23.7039 118.142 23.7251 118.165 23.7442 118.19C23.7745 118.23 23.8043 118.27 23.8376 118.307C23.8705 118.343 23.9066 118.376 23.9419 118.41C23.9642 118.432 23.9851 118.454 24.0084 118.474C24.0518 118.512 24.0981 118.546 24.1449 118.58C24.1619 118.593 24.1784 118.606 24.1957 118.618C24.248 118.653 24.3026 118.685 24.3584 118.716C24.3714 118.723 24.3843 118.73 24.3976 118.737C24.4572 118.768 24.5184 118.795 24.5815 118.82C24.5919 118.824 24.6024 118.828 24.6131 118.832C24.6783 118.856 24.7447 118.877 24.8127 118.895C24.8221 118.897 24.8318 118.899 24.8415 118.901C24.8841 118.912 24.9257 118.925 24.9694 118.932L30.6608 119.898L16.4436 128.292V118.447C16.4431 117.732 16.0536 117.074 15.4269 116.729ZM38.1324 106.893C35.6856 107.846 33.5909 108.854 31.8127 109.833C31.8072 109.837 31.8012 109.838 31.7957 109.841C31.779 109.85 31.763 109.86 31.7463 109.869L31.7458 109.869C31.7392 109.873 31.7329 109.877 31.7261 109.88C31.643 109.926 31.5616 109.972 31.48 110.018C31.328 110.103 31.1792 110.188 31.0324 110.273C30.9451 110.324 30.8575 110.374 30.7719 110.424C30.7622 110.43 30.7528 110.435 30.7431 110.441C30.7298 110.449 30.717 110.457 30.7037 110.464C30.468 110.603 30.2399 110.74 30.017 110.876C29.9827 110.897 29.9472 110.919 29.9132 110.94C29.7779 111.023 29.6464 111.105 29.5158 111.188C29.4879 111.205 29.4606 111.223 29.4329 111.24C29.4295 111.242 29.4264 111.245 29.423 111.247C27.9147 112.205 26.7277 113.094 25.8467 113.821L19.4303 101.564L16.8807 96.6937C18.3086 95.3463 21.4779 92.6989 26.7779 89.9756C26.9812 90.3738 27.1868 90.7687 27.395 91.1619C27.5007 91.3615 27.6087 91.559 27.7157 91.7572C27.9864 92.2595 28.2603 92.7585 28.5391 93.2527C28.6011 93.3628 28.66 93.4758 28.7222 93.5854C30.8174 97.2671 33.1279 100.701 35.6427 103.889C35.7008 103.963 35.7589 104.037 35.8172 104.11C36.0215 104.368 36.2268 104.623 36.434 104.877C36.5404 105.008 36.6477 105.137 36.7547 105.267C36.937 105.487 37.1188 105.708 37.3027 105.926C37.5768 106.251 37.8535 106.574 38.1324 106.893ZM102.686 115.121L103.073 114.312C103.085 114.319 103.097 114.326 103.108 114.334C103.256 114.425 103.397 114.515 103.538 114.605C103.584 114.635 103.634 114.665 103.679 114.695C103.806 114.776 103.925 114.856 104.045 114.936C104.115 114.982 104.188 115.03 104.257 115.076C104.372 115.153 104.48 115.228 104.59 115.304C104.657 115.351 104.727 115.398 104.792 115.444C104.897 115.517 104.996 115.588 105.096 115.66C105.145 115.695 105.195 115.731 105.243 115.766L102.124 116.295L102.686 115.121ZM96.8728 106.877C97.042 106.684 97.2084 106.488 97.3752 106.292C97.477 106.173 97.5795 106.056 97.6808 105.936C97.9363 105.634 98.189 105.329 98.4406 105.023C98.4493 105.012 98.4579 105.002 98.4663 104.992C99.6944 103.492 100.876 101.937 102.008 100.325C102.158 100.111 102.302 99.8912 102.45 99.6754C102.631 99.4133 102.811 99.1512 102.988 98.8862C103.187 98.5891 103.384 98.2901 103.58 97.9893C103.738 97.747 103.894 97.5027 104.049 97.2582C104.309 96.8512 104.565 96.4415 104.819 96.028C104.991 95.7478 105.161 95.4664 105.33 95.1836C105.529 94.8519 105.725 94.5192 105.92 94.1836C106.138 93.8067 106.354 93.4277 106.568 93.046C106.686 92.836 106.804 92.6267 106.92 92.4151C107.2 91.9058 107.475 91.3916 107.747 90.8739C107.84 90.6979 107.931 90.5213 108.023 90.3445C108.086 90.2215 108.151 90.0996 108.214 89.9762C113.477 92.6843 116.67 95.3468 118.109 96.6984L109.145 113.821C108.264 113.094 107.077 112.205 105.568 111.247C105.565 111.245 105.562 111.243 105.559 111.241C105.531 111.223 105.504 111.206 105.476 111.188C105.346 111.106 105.214 111.023 105.079 110.94C105.037 110.914 104.992 110.887 104.949 110.861C104.734 110.73 104.515 110.598 104.288 110.464C104.275 110.456 104.262 110.449 104.249 110.441C104.239 110.435 104.23 110.43 104.22 110.424C104.135 110.374 104.047 110.324 103.96 110.273C103.813 110.188 103.664 110.104 103.512 110.018C103.43 109.972 103.349 109.926 103.266 109.88C103.259 109.877 103.253 109.873 103.246 109.869L103.246 109.869C103.229 109.86 103.213 109.851 103.197 109.841C103.191 109.838 103.185 109.836 103.18 109.833C101.401 108.853 99.3067 107.846 96.8599 106.892C96.8639 106.888 96.8683 106.882 96.8728 106.877ZM119.565 116.729C118.938 117.073 118.549 117.732 118.549 118.447V128.291L104.332 119.898L110.023 118.932C110.044 118.928 110.063 118.921 110.084 118.917C110.132 118.907 110.18 118.896 110.227 118.883C110.261 118.873 110.295 118.862 110.329 118.851C110.374 118.835 110.419 118.818 110.463 118.799C110.496 118.785 110.528 118.771 110.56 118.755C110.603 118.734 110.645 118.71 110.686 118.686C110.716 118.669 110.746 118.652 110.775 118.633C110.817 118.605 110.856 118.575 110.895 118.545C110.921 118.524 110.948 118.506 110.972 118.484C111.013 118.449 111.051 118.411 111.089 118.373C111.109 118.352 111.13 118.333 111.15 118.312C111.194 118.263 111.235 118.21 111.274 118.157C111.284 118.143 111.295 118.131 111.305 118.117C111.351 118.051 111.394 117.98 111.432 117.907L118.33 104.731L128.727 111.689L119.565 116.729Z" fill="black"/>
<path d="M108.376 46.1448C108.846 37.7765 108.283 32.1516 108.258 31.9162C108.163 30.992 107.433 30.2617 106.509 30.1662C83.8831 27.8322 68.9016 15.5468 68.7543 15.4241C68.0272 14.8165 66.9683 14.8165 66.2401 15.4231C66.0915 15.5471 51.1101 27.8325 28.4843 30.1662C27.5602 30.2617 26.8299 30.992 26.7346 31.9162C26.6972 32.2798 25.8335 40.9565 27.1809 52.8037C28.4294 63.7786 31.9086 79.6053 41.3925 92.6775C41.7763 93.2061 42.3748 93.487 42.9813 93.487C43.3805 93.487 43.7836 93.3654 44.1315 93.113C45.008 92.4768 45.2034 91.2503 44.567 90.3738C35.6036 78.0188 32.2902 62.934 31.0888 52.4551C30.1037 43.8626 30.3378 36.8699 30.5194 33.8819C49.9374 31.4676 63.4339 22.4422 67.4962 19.4137C71.5587 22.4424 85.0539 31.4684 104.474 33.8819C104.608 36.0655 104.771 40.3896 104.46 45.924C104.399 47.0057 105.226 47.9316 106.308 47.9921C107.392 48.0509 108.315 47.2264 108.376 46.1448Z" fill="black"/>
<path d="M66.7711 112.394C67.0041 112.487 67.2497 112.533 67.4959 112.533C67.742 112.533 67.9879 112.487 68.2207 112.394C80.8647 107.364 90.7606 98.6071 97.6333 86.3656C102.722 77.3023 106.088 66.4898 107.64 54.228C107.776 53.1534 107.015 52.1723 105.941 52.0362C104.867 51.9002 103.885 52.6609 103.749 53.7354C99.3835 88.2291 81.7904 102.535 67.4954 108.455C60.5874 105.597 54.5296 101.495 49.4809 96.254C48.73 95.4742 47.488 95.4504 46.708 96.2022C45.928 96.9537 45.9047 98.1954 46.6562 98.9754C52.2712 104.804 59.0386 109.318 66.7711 112.394Z" fill="black"/>
<path d="M62.2433 81.3272C64.0785 81.3272 65.8033 80.6126 67.1005 79.3154L89.4262 56.99C92.1042 54.3117 92.1042 49.9538 89.4259 47.2753C86.7474 44.597 82.39 44.5976 79.7115 47.2756L62.2433 64.7438L55.9377 58.438C53.2592 55.7598 48.9019 55.76 46.2233 58.4383C43.5453 61.1168 43.5453 65.4744 46.2233 68.1527L57.3866 79.3157C58.6835 80.6131 60.4086 81.3272 62.2433 81.3272ZM48.9966 61.2118C49.571 60.6374 50.3256 60.3502 51.0805 60.3502C51.8349 60.3502 52.5896 60.6376 53.164 61.2118L60.8561 68.9042C61.2242 69.2722 61.7227 69.4786 62.243 69.4786C62.763 69.4786 63.2618 69.272 63.6299 68.9042L82.4847 50.0491C83.6341 48.8997 85.503 48.8994 86.6524 50.0485C87.8015 51.1979 87.8015 53.0671 86.6524 54.2162L64.3267 76.5417C63.7703 77.098 63.0303 77.4046 62.2433 77.4046C61.4562 77.4046 60.7162 77.098 60.1598 76.5417L48.9971 65.3789C47.8483 64.2301 47.8483 62.3606 48.9966 61.2118Z" fill="black"/>
</svg>
