<svg fill="none" height="134" viewBox="0 0 135 134" width="135" xmlns="http://www.w3.org/2000/svg"><path d="m32.7432 111.558c-5.193 2.865-7.446 5.44-7.446 5.44l-7.9111-15.111-14.89196 9.967 11.98796 6.593v13.28l21.7919-12.865-3.4866-7.276z" fill="#b32425"/><path d="m102.249 111.558c5.193 2.865 7.446 5.44 7.446 5.44l7.911-15.111 14.893 9.967-11.988 6.593v13.28l-21.7922-12.865 3.4862-7.275z" fill="#b32425"/><path d="m32.7871 111.586s-.034-.001-.0921-.001c-5.1585 2.854-7.3981 5.413-7.3981 5.413l10.9762 1.863z" fill="#8c1e23"/><path d="m102.205 111.586s.034-.001.092-.001c5.158 2.854 7.398 5.413 7.398 5.413l-10.9762 1.863z" fill="#8c1e23"/><path d="m27.6627 87.3516c-9.2584 4.3908-13.1813 8.9882-13.1813 8.9882l10.8154 20.6582s4.7193-5.398 16.2566-9.257c-5.8619-6.194-10.3939-13.1663-13.8907-20.3894z" fill="#e93234"/><path d="m107.328 87.3516c-3.497 7.2231-8.0286 14.1954-13.8905 20.3894 11.5375 3.859 16.2565 9.257 16.2565 9.257l10.815-20.6582s-3.923-4.5977-13.181-8.9882z" fill="#e93234"/><path d="m67.4961 125.214c59.1299-23.522 50.9479-102.9889 50.9479-102.9889-30.911-3.1886-50.9479-19.93726-50.9479-19.93726s-20.0369 16.74866-50.9475 19.93726c0 0-8.18263 79.4669 50.9475 102.9889z" fill="#f5ba3d"/><path d="m107.329 87.3516c-3.497 7.2231-8.0286 14.1954-13.8905 20.3894 1.7361.581 3.3149 1.196 4.7494 1.823 5.9561-5.862 10.6281-12.5098 14.2871-19.4581-1.488-.8977-3.198-1.8305-5.146-2.7543z" fill="#b32425"/><path d="m27.6628 87.3516c3.497 7.2231 8.0288 14.1954 13.8907 20.3894-1.7361.581-3.3149 1.196-4.7494 1.823-5.9558-5.862-10.6281-12.5098-14.2875-19.4581 1.4886-.8977 3.1978-1.8305 5.1462-2.7543z" fill="#b32425"/><path d="m118.444 22.2251c-2.134-.2202-4.214-.5069-6.241-.8464.65 18.2694-1.034 78.7533-49.496 101.7363 1.5462.741 3.14 1.443 4.7895 2.099 59.1305-23.522 50.9475-102.9889 50.9475-102.9889z" fill="#ef9325"/><path d="m67.4955 110.572c45.0445-17.9184 38.8105-78.4547 38.8105-78.4547-23.5468-2.429-38.8105-15.1881-38.8105-15.1881s-15.2637 12.7589-38.811 15.1881c0 0-6.2333 60.5363 38.811 78.4547z" fill="#ffdb57"/><path d="m62.2428 79.3662c-1.3016 0-2.5501-.5172-3.4706-1.4374l-11.1627-11.1627c-1.9168-1.9168-1.9168-5.0243 0-6.9409 1.9168-1.9168 5.0241-1.9168 6.9406 0l7.6924 7.6924 18.8552-18.8551c1.9168-1.9168 5.0243-1.9171 6.9406-.0003 1.9168 1.9168 1.9168 5.0244 0 6.9409l-22.3254 22.3252c-.92.9207-2.1688 1.4379-3.4701 1.4379z" fill="#00b76c"/><g fill="#000"><path d="m133.589 110.224-13.429-8.988 2.087-3.9867c.372-.7094.275-1.5734-.245-2.1826-.16-.1881-3.795-4.3796-12.077-8.6213 2.963-6.4488 5.347-13.5012 7.128-21.0991 5.359-22.8649 3.426-42.4974 3.341-43.3219-.095-.9241-.825-1.6547-1.749-1.7499-15.61-1.6103-28.3328-6.8161-36.2567-10.89932-8.6137-4.43867-13.5865-8.551937-13.6346-8.591958-.7282-.608424-1.7879-.608424-2.5156 0-.1959.163746-19.9234 16.399978-49.8913 19.491578-.9241.0954-1.6544.8257-1.7496 1.7499-.0382.3701-.9216 9.2082.0735 21.9461.0845 1.0798 1.0256 1.8881 2.1077 1.8026 1.0801-.0843 1.887-1.0283 1.8028-2.1078-.7277-9.3176-.4099-16.6092-.2059-19.6705 15.5295-1.8603 28.1688-7.0727 36.1385-11.1917 6.4954-3.35707 10.9443-6.48839 12.982-8.02488 2.0371 1.53649 6.4865 4.66781 12.9817 8.02488 7.9699 4.119 20.6085 9.3312 36.1375 11.1917.338 5.0848.98 21.8502-3.381 40.4566-1.89 8.0604-4.477 15.4711-7.727 22.1601-.091.1873-.184.3719-.276.5577-.201.4057-.403.8085-.609 1.2087-.116.2255-.232.4507-.349.6746-.218.4157-.44.8276-.663 1.2373-.187.3416-.376.6803-.566 1.0178-.17.3029-.342.605-.515.9042-.174.3008-.35.5998-.528.8972-.128.2148-.257.4272-.387.6398-.418.6872-.844 1.3662-1.279 2.0348-.032.0489-.063.0986-.095.1475-.226.3464-.4556.6883-.6864 1.0293-.0988.1463-.1982.2922-.2982.4374-1.3633 1.9875-2.7999 3.8879-4.3081 5.6939-.0086.01-.0173.021-.0259.031-.2922.35-.5875.695-.8849 1.037-.2344.27-.4711.535-.7089.801-.0478.053-.0952.107-.1431.16-.2686.298-.5393.593-.8124.885-.0139.015-.0277.03-.0419.045-6.9228 7.402-15.2409 13.116-24.8342 17.048-9.3926-3.853-19.9077-10.444-28.8263-21.709-.0285-.036-.0571-.072-.0856-.109-.1797-.227-.3578-.459-.5359-.69-3.2532-4.2565-6.1405-8.9721-8.62-14.0938-.0578-.1195-.1266-.2304-.204-.3324-4.4923-9.348-7.9804-20.7547-9.823-34.681-.142-1.0738-1.1305-1.8294-2.2014-1.6869-1.0737.142-1.8292 1.1279-1.6871 2.2014 1.6905 12.7769 4.8988 24.3247 9.554 34.4471-8.2828 4.2423-11.9168 8.4337-12.0772 8.6215-.5197.6093-.6168 1.4732-.2459 2.1826l2.0874 3.9875-13.42848 8.987c-.568924.381-.898247 1.031-.868428 1.715.02982.684.414074 1.303 1.014388 1.634l10.97182 6.034v12.12c0 .704.3774 1.354.9887 1.703.3016.172.6369.259.9725.259.3448 0 .6898-.092.9972-.273l21.7918-12.865c.0136-.008.0256-.017.039-.026.0222-.014.0439-.028.0656-.043.039-.026.0767-.054.1133-.083.0178-.014.0358-.028.0531-.042.046-.039.0897-.08.1316-.122.0068-.007.0138-.013.0204-.02.0507-.053.0978-.109.1417-.167.0013-.002.0032-.003.0047-.005.0034-.005.0061-.01.0095-.015.045-.061.0858-.124.1232-.189.0078-.014.0162-.028.0238-.042.0379-.07.0722-.141.1012-.215.005-.013.0089-.026.0136-.038.0235-.064.0437-.129.0607-.195.0044-.017.0094-.035.0133-.052.0176-.077.0309-.154.0393-.232.001-.011.0013-.021.0021-.032.0062-.071.0083-.142.0068-.213-.0003-.016-.0006-.032-.0011-.048-.0037-.081-.0112-.161-.0248-.241-.0011-.006-.0027-.011-.0037-.017-.0131-.073-.0314-.145-.0531-.217-.0058-.019-.0115-.037-.0175-.056-.0257-.077-.0544-.153-.0903-.227l-2.6866-5.607c1.6126-.804 3.4946-1.628 5.6605-2.404 7.2391 7.389 15.8486 13.092 25.7549 17.033.2331.092.4787.139.7249.139.2461 0 .492-.047.7248-.139 9.8888-3.934 18.5117-9.643 25.7557-17.033 2.1656.777 4.0474 1.601 5.6597 2.405l-2.6866 5.606c-.0358.074-.0646.151-.0903.227-.0062.019-.012.038-.0175.056-.0217.072-.04.145-.0531.218-.001.005-.0026.011-.0034.016-.0136.08-.0212.161-.0248.241-.0008.017-.0008.033-.0011.049-.0013.071.0005.142.0068.213.0011.01.0011.021.0021.031.0081.079.0217.156.0393.232.0039.018.0088.035.0136.053.0167.066.0368.13.0604.194.0047.013.0086.026.0136.039.029.073.063.145.1009.215.0076.014.016.028.0241.041.0374.065.078.129.1227.189.0036.005.006.01.0097.015.0015.002.0031.004.0047.005.0439.058.091.114.1418.167.0065.007.0136.013.0204.02.0415.042.0855.083.1315.122.0173.015.0353.029.0531.043.0366.028.0743.056.1133.083.0217.014.0434.029.0654.043.0133.008.0254.017.039.025l21.7916 12.865c.307.182.652.273.997.273.335 0 .671-.086.973-.258.611-.35.988-1 .988-1.704v-12.12l10.972-6.034c.6-.331.985-.949 1.014-1.634.029-.684-.3-1.334-.869-1.715zm-103.6975 5.439c.1015-.073.2027-.146.3094-.22.0654-.046.1352-.094.2027-.14.1094-.075.2177-.15.332-.228.069-.046.1425-.094.2137-.141.12-.08.2388-.159.3643-.24.045-.029.0937-.059.1395-.088.1412-.091.2838-.181.4316-.273.0112-.007.0235-.014.0348-.021l.95 1.982-3.1188-.529c.0453-.034.0934-.068.1408-.102zm-14.4646 1.066-9.16196-5.039 10.39656-6.958 6.898 13.176c.0379.073.0803.142.1264.208.018.026.0392.049.0583.074.0303.04.0601.08.0934.117.0329.036.069.069.1043.103.0223.022.0432.044.0665.064.0434.038.0897.072.1365.106.017.013.0335.026.0508.038.0523.035.1069.067.1627.098.013.007.0259.014.0392.021.0596.031.1208.058.1839.083.0104.004.0209.008.0316.012.0652.024.1316.045.1996.063.0094.002.0191.004.0288.006.0426.011.0842.024.1279.031l5.6914.966-14.2172 8.394v-9.845c-.0005-.715-.39-1.373-1.0167-1.718zm22.7055-9.836c-2.4468.953-4.5415 1.961-6.3197 2.94-.0055.004-.0115.005-.017.008-.0167.009-.0327.019-.0494.028h-.0005c-.0066.004-.0129.008-.0197.011-.0831.046-.1645.092-.2461.138-.152.085-.3008.17-.4476.255-.0873.051-.1749.101-.2605.151-.0097.006-.0191.011-.0288.017-.0133.008-.0261.016-.0394.023-.2357.139-.4638.276-.6867.412-.0343.021-.0698.043-.1038.064-.1353.083-.2668.165-.3974.248-.0279.017-.0552.035-.0829.052-.0034.002-.0065.005-.0099.007-1.5083.958-2.6953 1.847-3.5763 2.574l-6.4164-12.257-2.5496-4.8703c1.4279-1.3474 4.5972-3.9948 9.8972-6.7181.2033.3982.4089.7931.6171 1.1863.1057.1996.2137.3971.3207.5953.2707.5023.5446 1.0013.8234 1.4955.062.1101.1209.2231.1831.3327 2.0952 3.6817 4.4057 7.1156 6.9205 10.3036.0581.074.1162.148.1745.221.2043.258.4096.513.6168.767.1064.131.2137.26.3207.39.1823.22.3641.441.548.659.2741.325.5508.648.8297.967zm64.5536 8.228.387-.809c.012.007.024.014.035.022.148.091.289.181.43.271.046.03.096.06.141.09.127.081.246.161.366.241.07.046.143.094.212.14.115.077.223.152.333.228.067.047.137.094.202.14.105.073.204.144.304.216.049.035.099.071.147.106l-3.119.529zm-5.8132-8.244c.1692-.193.3356-.389.5024-.585.1018-.119.2043-.236.3056-.356.2555-.302.5082-.607.7598-.913.0087-.011.0173-.021.0257-.031 1.2281-1.5 2.4097-3.055 3.5417-4.667.15-.214.294-.4338.442-.6496.181-.2621.361-.5242.538-.7892.199-.2971.396-.5961.592-.8969.158-.2423.314-.4866.469-.7311.26-.407.516-.8167.77-1.2302.172-.2802.342-.5616.511-.8444.199-.3317.395-.6644.59-1 .218-.3769.434-.7559.648-1.1376.118-.21.236-.4193.352-.6309.28-.5093.555-1.0235.827-1.5412.093-.176.184-.3526.276-.5294.063-.123.128-.2449.191-.3683 5.263 2.7081 8.456 5.3706 9.895 6.7222l-8.964 17.1226c-.881-.727-2.068-1.616-3.577-2.574-.003-.002-.006-.004-.009-.006-.028-.018-.055-.035-.083-.053-.13-.082-.262-.165-.397-.248-.042-.026-.087-.053-.13-.079-.215-.131-.434-.263-.661-.397-.013-.008-.026-.015-.039-.023-.01-.006-.019-.011-.029-.017-.085-.05-.173-.1-.26-.151-.147-.085-.296-.169-.448-.255-.082-.046-.163-.092-.246-.138-.007-.003-.013-.007-.02-.011-.017-.009-.033-.018-.049-.028-.006-.003-.012-.005-.017-.008-1.779-.98-3.8733-1.987-6.3201-2.941.004-.004.0084-.01.0129-.015zm22.6922 9.852c-.627.344-1.016 1.003-1.016 1.718v9.844l-14.217-8.393 5.691-.966c.021-.004.04-.011.061-.015.048-.01.096-.021.143-.034.034-.01.068-.021.102-.032.045-.016.09-.033.134-.052.033-.014.065-.028.097-.044.043-.021.085-.045.126-.069.03-.017.06-.034.089-.053.042-.028.081-.058.12-.088.026-.021.053-.039.077-.061.041-.035.079-.073.117-.111.02-.021.041-.04.061-.061.044-.049.085-.102.124-.155.01-.014.021-.026.031-.04.046-.066.089-.137.127-.21l6.898-13.176 10.397 6.958z"/><path d="m108.376 46.1448c.47-8.3683-.093-13.9932-.118-14.2286-.095-.9242-.825-1.6545-1.749-1.75-22.6259-2.334-37.6074-14.6194-37.7547-14.7421-.7271-.6076-1.786-.6076-2.5142-.001-.1486.124-15.13 12.4094-37.7558 14.7431-.9241.0955-1.6544.8258-1.7497 1.75-.0374.3636-.9011 9.0403.4463 20.8875 1.2485 10.9749 4.7277 26.8016 14.2116 39.8738.3838.5286.9823.8095 1.5888.8095.3992 0 .8023-.1216 1.1502-.374.8765-.6362 1.0719-1.8627.4355-2.7392-8.9634-12.355-12.2768-27.4398-13.4782-37.9187-.9851-8.5925-.751-15.5852-.5694-18.5732 19.418-2.4143 32.9145-11.4397 36.9768-14.4682 4.0625 3.0287 17.5577 12.0547 36.9778 14.4682.134 2.1836.297 6.5077-.014 12.0421-.061 1.0817.766 2.0076 1.848 2.0681 1.084.0588 2.007-.7657 2.068-1.8473z"/><path d="m66.7711 112.394c.233.093.4786.139.7248.139.2461 0 .492-.046.7248-.139 12.644-5.03 22.5399-13.7869 29.4126-26.0284 5.0887-9.0633 8.4547-19.8758 10.0067-32.1376.136-1.0746-.625-2.0557-1.699-2.1918-1.074-.136-2.056.6247-2.192 1.6992-4.3655 34.4937-21.9586 48.7996-36.2536 54.7196-6.908-2.858-12.9658-6.96-18.0145-12.201-.7509-.7798-1.9929-.8036-2.7729-.0518-.78.7515-.8033 1.9932-.0518 2.7732 5.615 5.8286 12.3824 10.3426 20.1149 13.4186z"/><path d="m62.2433 81.3272c1.8352 0 3.56-.7146 4.8572-2.0118l22.3257-22.3254c2.678-2.6783 2.678-7.0362-.0003-9.7147-2.6785-2.6783-7.0359-2.6777-9.7144.0003l-17.4682 17.4682-6.3056-6.3058c-2.6785-2.6782-7.0358-2.678-9.7144.0003-2.678 2.6785-2.678 7.0361 0 9.7144l11.1633 11.163c1.2969 1.2974 3.022 2.0115 4.8567 2.0115zm-13.2467-20.1154c.5744-.5744 1.329-.8616 2.0839-.8616.7544 0 1.5091.2874 2.0835.8616l7.6921 7.6924c.3681.368.8666.5744 1.3869.5744.52 0 1.0188-.2066 1.3869-.5744l18.8548-18.8551c1.1494-1.1494 3.0183-1.1497 4.1677-.0006 1.1491 1.1494 1.1491 3.0186 0 4.1677l-22.3257 22.3255c-.5564.5563-1.2964.8629-2.0834.8629-.7871 0-1.5271-.3066-2.0835-.8629l-11.1627-11.1628c-1.1488-1.1488-1.1488-3.0183-.0005-4.1671z"/></g></svg>