<svg fill="none" height="130" viewBox="0 0 117 130" width="117" xmlns="http://www.w3.org/2000/svg"><circle cx="57.8343" cy="45.4964" r="44.3397" stroke="#000" stroke-width="2.31337"/><g fill="#000"><path d="m18.6997 125.076c-2.2139 0-4.4279-.69-5.606-1.706l.9141-2.052c1.1374.914 2.9451 1.564 4.6919 1.564 2.214 0 3.1483-.792 3.1483-1.848 0-3.067-8.4496-1.056-8.4496-6.337 0-2.295 1.8281-4.245 5.7279-4.245 1.7062 0 3.4936.447 4.7326 1.259l-.8328 2.052c-1.2796-.752-2.6811-1.118-3.9201-1.118-2.1937 0-3.0874.853-3.0874 1.93 0 3.026 8.4293 1.056 8.4293 6.276 0 2.275-1.8483 4.225-5.7482 4.225zm18.3192-5.565c0 .203-.0203.508-.0406.751h-8.5106c.3047 1.585 1.6249 2.6 3.5139 2.6 1.2187 0 2.1733-.386 2.9452-1.178l1.3609 1.564c-.975 1.158-2.4984 1.767-4.367 1.767-3.6358 0-5.9919-2.336-5.9919-5.565 0-3.23 2.3764-5.545 5.606-5.545 3.1686 0 5.4841 2.214 5.4841 5.606zm-5.4841-3.575c-1.6453 0-2.8437 1.056-3.0874 2.64h6.1544c-.2031-1.564-1.4015-2.64-3.067-2.64zm10.34-.325c.7312-1.138 2.0515-1.706 3.8592-1.706v2.417c-.2234-.041-.4062-.061-.5891-.061-1.9296 0-3.1482 1.137-3.1482 3.351v5.261h-2.539v-10.846h2.4171zm14.1281-1.584h2.4374l-4.6513 10.846h-2.6202l-4.6514-10.846h2.6405l3.3717 8.043zm5.3039-1.788c-.9344 0-1.6249-.67-1.6249-1.523s.6905-1.524 1.6249-1.524c.9343 0 1.6249.63 1.6249 1.463 0 .894-.6703 1.584-1.6249 1.584zm-1.2797 12.634v-10.846h2.539v10.846zm10.8477.142c-3.4327 0-5.87-2.315-5.87-5.565s2.4373-5.545 5.87-5.545c2.1124 0 3.7983.873 4.631 2.518l-1.9499 1.138c-.6499-1.036-1.6249-1.503-2.7014-1.503-1.8687 0-3.2905 1.3-3.2905 3.392 0 2.112 1.4218 3.392 3.2905 3.392 1.0765 0 2.0515-.467 2.7014-1.503l1.9499 1.137c-.8327 1.625-2.5186 2.539-4.631 2.539zm8.1054-12.776c-.9343 0-1.6249-.67-1.6249-1.523s.6906-1.524 1.6249-1.524c.9344 0 1.625.63 1.625 1.463 0 .894-.6703 1.584-1.625 1.584zm-1.2796 12.634v-10.846h2.539v10.846zm10.7461.142c-3.3311 0-5.7685-2.315-5.7685-5.565s2.4374-5.545 5.7685-5.545c3.3717 0 5.7888 2.295 5.7888 5.545s-2.4171 5.565-5.7888 5.565zm0-2.173c1.8484 0 3.2295-1.32 3.2295-3.392s-1.3811-3.392-3.2295-3.392c-1.828 0-3.2092 1.32-3.2092 3.392s1.3812 3.392 3.2092 3.392zm11.5683 2.173c-1.8079 0-3.6157-.528-4.5906-1.219l.9749-1.929c.9547.63 2.4171 1.076 3.7777 1.076 1.605 0 2.275-.446 2.275-1.198 0-2.072-6.7026-.122-6.7026-4.448 0-2.052 1.8483-3.392 4.7736-3.392 1.442 0 3.087.345 4.062.934l-.975 1.93c-1.036-.61-2.072-.813-3.108-.813-1.5434 0-2.2746.508-2.2746 1.219 0 2.194 6.7026.244 6.7026 4.489 0 2.031-1.868 3.351-4.915 3.351z"/><path d="m82.4598 28.507h-1.4179v-2.8357c0-1.5041-.5975-2.9466-1.6611-4.0102-1.0635-1.0636-2.5061-1.6611-4.0102-1.6611h-39.6993c-1.5041 0-2.9466.5975-4.0102 1.6611s-1.6611 2.5061-1.6611 4.0102v8.507c0 1.5041.5975 2.9467 1.6611 4.0102 1.0636 1.0636 2.5061 1.6611 4.0102 1.6611h39.6993c1.5041 0 2.9467-.5975 4.0102-1.6611 1.0636-1.0635 1.6611-2.5061 1.6611-4.0102v-2.8357h1.4179c.376 0 .7366.1494 1.0025.4153s.4153.6265.4153 1.0026v8.507c0 .376-.1494.7366-.4153 1.0025s-.6265.4153-1.0025.4153h-24.1032c-1.1281 0-2.21.4481-3.0076 1.2458-.7977.7977-1.2459 1.8796-1.2459 3.0077v3.5587c-1.3228 1.0207-2.394 2.3311-3.1313 3.8304-.7374 1.4992-1.1213 3.1476-1.1222 4.8184v14.7313c0 1.1281.4482 2.21 1.2459 3.0077.7976.7976 1.8795 1.2458 3.0076 1.2458h2.8357c1.1281 0 2.21-.4482 3.0077-1.2458.7977-.7977 1.2458-1.8796 1.2458-3.0077v-14.7313c-.0009-1.6708-.3848-3.3192-1.1221-4.8184-.7374-1.4993-1.8086-2.8097-3.1314-3.8304v-3.5587c0-.376.1494-.7367.4153-1.0026s.6265-.4152 1.0025-.4152h24.1032c1.1281 0 2.2099-.4482 3.0076-1.2459.7977-.7976 1.2459-1.8795 1.2459-3.0076v-8.507c0-1.1281-.4482-2.21-1.2459-3.0077s-1.8795-1.2458-3.0076-1.2458zm-4.2535 5.6713c0 .7521-.2988 1.4733-.8306 2.0051s-1.253.8306-2.0051.8306h-39.6993c-.752 0-1.4733-.2988-2.0051-.8306s-.8305-1.253-.8305-2.0051v-8.507c0-.752.2987-1.4733.8305-2.0051s1.2531-.8305 2.0051-.8305h39.6993c.7521 0 1.4733.2987 2.0051.8305s.8306 1.2531.8306 2.0051zm-19.8497 24.968v14.7313c0 .376-.1494.7367-.4152 1.0025-.2659.2659-.6266.4153-1.0026.4153h-2.8357c-.376 0-.7366-.1494-1.0025-.4153-.2659-.2658-.4153-.6265-.4153-1.0025v-14.7313c-.0012-1.1739.2517-2.3342.7411-3.4013.4895-1.067 1.204-2.0155 2.0946-2.7804.8905.7649 1.605 1.7134 2.0945 2.7804.4895 1.0671.7423 2.2274.7411 3.4013z"/></g></svg>