<svg fill="none" height="131" viewBox="0 0 146 131" width="146" xmlns="http://www.w3.org/2000/svg"><path d="m11.1193 61.7585c.8477-15.7781 7.5952-29.9903 18.0729-40.4691 11.2227-11.2224 26.7278-18.16513 43.8482-18.16513 5.4032 0 10.7985.72131 16.0383 2.12571 5.1857 1.38713 10.2222 3.47178 14.9673 6.21322 5.293 3.0642 7.098 9.8427 4.034 15.1351-3.064 5.2928-9.8422 7.0982-15.1347 4.0337-2.9912-1.727-6.2189-3.0549-9.5921-3.9575-3.3129-.8875-6.7833-1.3443-10.3128-1.3443-10.9931 0-20.9468 4.4562-28.1495 11.6571-6.4544 6.4568-10.7045 15.1253-11.515 24.7709h3.9549v.0147c.5699-.0005 1.1467.1439 1.676.4475 1.6112.9249 2.166 2.9821 1.2407 4.5924l-7.4989 12.9913c-.0314.0629-.064.1241-.0997.1858l-7.5779 13.1228c-.2857.5106-.708.9529-1.2509 1.2673-1.61.9329-3.6728.3837-4.6051-1.2268l-7.6012-13.163.0054-.0031-.0054-.0102-7.4366-12.8823c-.39337-.5526-.62447-1.228-.62447-1.957 0-1.866 1.51259-3.3791 3.37861-3.3791z" fill="#c8d85f"/><path d="m134.962 68.5157c-.848 15.7763-7.594 29.99-18.074 40.4693-11.222 11.221-26.7242 18.165-43.8474 18.165-5.4044 0-10.798-.721-16.0389-2.126-5.1849-1.387-10.2222-3.473-14.9673-6.213-5.2927-3.065-7.0987-9.843-4.0342-15.135 3.0651-5.2938 9.8433-7.0987 15.1358-4.0341 2.9903 1.7271 6.218 3.0551 9.5906 3.9581 3.3143.887 6.7836 1.344 10.314 1.344 10.9925 0 20.9465-4.458 28.1484-11.6583 6.456-6.4562 10.705-15.1247 11.516-24.77h-3.955c-1.866 0-3.379-1.5126-3.379-3.3781 0-.7295.232-1.4055.624-1.958l7.436-12.8821.007-.0099-.007-.0037 7.602-13.1635c.932-1.6106 2.995-2.1597 4.606-1.2268.542.3138.964.7564 1.25 1.2673l7.578 13.123c.036.0615.068.1227.1.1855l7.499 12.9914c.925 1.6111.37 3.6674-1.24 4.5924-.529.3041-1.107.4486-1.676.448v.0142h-4.189v.0003z" fill="#46b778"/><g fill="#000003"><path d="m35.4041 81.2465 7.4635-12.9288c.849-1.4783 1.0722-3.1991.6273-4.8456-.4449-1.6471-1.5044-3.0218-2.985-3.8719-.8453-.4849-1.7907-.7698-2.7615-.8341-.1365-.0189-.2758-.0286-.4177-.0286h-.5194c1.3019-7.389 4.8615-14.2581 10.2151-19.6137 6.9481-6.947 16.1865-10.7728 26.0136-10.7728 3.2494 0 6.4564.4175 9.532 1.2416 3.1288.8372 6.1107 2.0668 8.8586 3.6536 2.1464 1.2424 4.5856 1.8992 7.0543 1.8992 5.0191-.0003 9.6981-2.6953 12.2081-7.0337 1.887-3.2576 2.392-7.0559 1.422-10.6945-.97-3.6389-3.298-6.6822-6.558-8.5703-4.955-2.86233-10.2372-5.05431-15.6965-6.51507-5.5185-1.479166-11.1772-2.228803-16.8205-2.228803-17.3685 0-33.7 6.765703-45.9847 19.049873-10.6833 10.685-17.27255 24.6485-18.73614 39.5843h-1.38854c-3.52757.0003-6.398393 2.8714-6.398393 6.4004 0 1.2826.376376 2.514 1.089763 3.5726l7.28142 12.6127c.02973.0601.06088.1192.09487.1776l7.60252 13.1666c1.1388 1.9669 3.2594 3.1889 5.5338 3.1889 1.1207 0 2.2274-.2979 3.1994-.8609.9864-.571 1.8023-1.3954 2.361-2.3852l7.5666-13.1035c.0504-.0866.0972-.1727.1425-.2599zm-5.371-2.7672-7.5782 13.123c-.0065.0116-.0133.0232-.0195.0351-.0306.0541-.0722.096-.1294.1289-.0553.0317-.1113.0473-.1717.0473-.0478 0-.2112-.0128-.303-.1711l-7.506-12.9987c-.0136-.0274-.0275-.0549-.0419-.0821-.0173-.032-.0348-.064-.053-.0954l-7.43685-12.8821c-.04786-.0829-.09969-.1637-.1552-.2415-.04333-.0618-.06428-.1283-.06428-.2054 0-.1976.16029-.3582.35768-.3582h4.18795c1.6052 0 2.9306-1.2557 3.0164-2.8589.7797-14.5156 6.8855-28.1866 17.1924-38.4949 11.1437-11.1434 25.9572-17.28043 41.712-17.28043 5.1152 0 10.2483.68053 15.2576 2.02319 4.9503 1.32426 9.7399 3.31294 14.2349 5.90934 3.842 2.2254 5.158 7.163 2.933 11.0075-1.436 2.4788-4.11 4.0186-6.9814 4.0189-1.4064 0-2.7992-.3755-4.0294-1.0878-3.209-1.8527-6.6819-3.2857-10.3205-4.2593-3.5842-.9601-7.3174-1.4469-11.0944-1.4469-11.4409 0-22.1963 4.4542-30.286 12.5424-7.1452 7.1478-11.5453 16.6138-12.389 26.6536-.0708.8423.2144 1.6755.7868 2.2977.572.6222 1.3783.9764 2.2237.9764h3.6575c.0992.0097.1991.0148.3005.0148.0589 0 .1144.0153.1682.0461.0813.0465.1348.1164.1592.2073.0244.0912.0133.1793-.0306.2552l-7.4995 12.9913c-.0289.0519-.0711.1306-.098.1847z"/><path d="m144.683 61.9505-7.461-12.9234c-.044-.0863-.09-.171-.139-.2537l-7.57-13.1094c-.559-.9893-1.374-1.8134-2.36-2.3843-.973-.5633-2.079-.8612-3.201-.8612-2.274 0-4.395 1.2217-5.535 3.1916l-7.601 13.1636c-.034.0583-.066.1175-.095.1773l-7.281 12.6129c-.713 1.0587-1.09 2.2906-1.09 3.5738 0 3.5284 2.871 6.3989 6.4 6.3989h.519c-1.302 7.3899-4.862 14.259-10.216 19.6129-6.9486 6.9473-16.1864 10.7735-26.0127 10.7735-3.2492 0-6.4564-.418-9.5329-1.241-3.1293-.8379-6.1109-2.0675-8.8577-3.654-2.1455-1.2424-4.585-1.8995-7.0537-1.8995-5.0192 0-9.698 2.695-12.21 7.0335-3.8952 6.727-1.5916 15.368 5.1379 19.265 4.9563 2.863 10.238 5.055 15.6956 6.515 5.5148 1.479 11.1743 2.229 16.8211 2.229 17.3677 0 33.6984-6.765 45.9834-19.05 10.684-10.683 17.273-24.6474 18.737-39.5844h1.389c.136 0 .27-.009.401-.0266.975-.0617 1.93-.348 2.779-.8371 3.052-1.7531 4.109-5.6632 2.353-8.7224zm-5.365 3.4845c-.053.0306-.107.0454-.165.0454-.1-.0102-.196.0045-.292.0141h-3.9c-1.605 0-2.93 1.2557-3.016 2.8587-.78 14.5172-6.886 28.1882-17.193 38.4948-11.145 11.143-25.9574 17.28-41.7114 17.28-5.1183 0-10.2514-.68-15.2578-2.023-4.949-1.324-9.7388-3.313-14.2343-5.909-3.8434-2.226-5.1594-7.164-2.934-11.008 1.4355-2.479 4.1104-4.019 6.9815-4.019 1.4072 0 2.7995.376 4.0291 1.088 3.2081 1.852 6.6805 3.285 10.3202 4.259 3.5851.96 7.3185 1.447 11.095 1.447 11.4391 0 22.1946-4.454 30.2847-12.5425 7.146-7.1455 11.546-16.6112 12.39-26.6533.071-.8423-.214-1.6754-.787-2.2976-.571-.6222-1.378-.9759-2.223-.9759h-3.955c-.197 0-.358-.1601-.358-.3572 0-.0776.021-.1452.064-.2064.056-.0782.108-.1589.156-.2416l7.416-12.848c.044-.0734.085-.1484.122-.2249l7.497-12.9828c.094-.1615.258-.1739.305-.1739.061 0 .117.0156.172.0473.056.0323.098.0745.128.1288.007.0116.014.0235.02.0351l7.592 13.1489c.027.054.056.1073.086.1594l7.495 12.9851c.095.166.039.3761-.127.4715z"/><path d="m31.5487 41.2107.0527-.0895c.0983-.1677.196-.3351.2962-.501.8641-1.4273.4078-3.2849-1.0195-4.1486-1.4268-.8638-3.2846-.4076-4.1486 1.0195-.115.1903-.228.3823-.3407.5749l-.0513.0875c-.8439 1.4392-.3619 3.29 1.077 4.1345.4803.2818 1.0065.4157 1.5259.4157 1.0365-.0006 2.0461-.5347 2.6083-1.493z"/><path d="m118.65 87.985c-1.44-.8431-3.29-.3589-4.133 1.0812l-.033.0572c-.106.1799-.211.3591-.318.5364-.861 1.4288-.4 3.2854 1.029 4.1467.487.2939 1.025.4338 1.556.4338 1.024 0 2.023-.5211 2.59-1.4621.121-.1997.239-.4016.357-.6038l.033-.0561c.842-1.4404.359-3.2908-1.081-4.1333z"/><path d="m32.8298 33.7568c.5744.5058 1.2863.7539 1.9952.7539.8374 0 1.6712-.3461 2.2685-1.0243 9.0882-10.3197 22.188-16.238 35.9403-16.238 4.1841 0 8.3536.5488 12.3924 1.6312 1.612.4316 3.2679-.5245 3.7-2.1356.4319-1.6117-.5239-3.2679-2.1359-3.7-4.5491-1.2192-9.2446-1.8375-13.9565-1.8375-15.4872 0-30.2395 6.6652-40.4744 18.2867-1.1025 1.252-.9813 3.1611.2704 4.2636z"/><path d="m113.237 96.5177c-1.252-1.1028-3.161-.9819-4.263.2705-9.0889 10.3188-22.1884 16.2378-35.9401 16.2378-4.1829 0-8.3525-.549-12.3932-1.632-1.6117-.432-3.2679.525-3.7001 2.136-.4319 1.612.5245 3.268 2.1359 3.7 4.5505 1.22 9.2463 1.838 13.9574 1.838 15.4863 0 30.2381-6.665 40.4731-18.286 1.103-1.2527.982-3.1615-.27-4.2643z"/></g></svg>