<svg fill="none" height="131" viewBox="0 0 118 131" width="118" xmlns="http://www.w3.org/2000/svg"><g fill="#000"><path d="m63.7408 44.9276c.1843.1648.4139.2457.6426.2457.2671 0 .5331-.1106.7244-.3273 1.7102-1.9366 2.6521-4.4275 2.6521-7.0134 0-5.8297-4.7168-10.5728-10.5145-10.5728s-10.5144 4.7429-10.5144 10.5728c0 2.5861.9417 5.0768 2.652 7.0134.3551.4025.9672.4387 1.3671.0816s.4361-.9725.0811-1.3746c-1.3951-1.58-2.1635-3.6114-2.1635-5.7204 0-4.756 3.8479-8.6253 8.5777-8.6253s8.5777 3.8693 8.5777 8.6253c0 2.1088-.7683 4.1404-2.1636 5.7204-.355.4021-.3187 1.0175.0813 1.3746z"/><path d="m62.7493 39.7138c.0388.0051.0774.0076.1156.0076.4814 0 .8978-.3942.9564-.9305.0294-.2697.0443-.5443.0443-.8165 0-3.7608-2.795-6.8203-6.2308-6.8203-3.4357 0-6.2307 3.0595-6.2307 6.8203 0 .2565.0132.515.0392.7684.0594.5793.5369.9954 1.0661.9311.5292-.0652.9101-.5877.8507-1.167-.018-.1753-.0271-.3546-.0271-.5325 0-2.5965 1.9298-4.709 4.3019-4.709 2.3722 0 4.3021 2.1125 4.3021 4.709 0 .1888-.0103.3791-.0307.566-.0634.5789.3141 1.1043.843 1.1734z"/><path d="m54.728 14.4844h15.7723c2.1242 0 3.8524 1.7704 3.8524 3.9463v17.9428c0 .5587.4419 1.0114.9873 1.0114s.9874-.4527.9874-1.0114v-17.9428c-.0002-3.2914-2.6141-5.969-5.8271-5.969h-15.7723c-.5452 0-.9873.4527-.9873 1.0114 0 .5586.4421 1.0113.9873 1.0113z"/><path d="m53.8741 17.9135h5.9636c.5041 0 .9125-.1743.9125-.3894s-.4084-.3894-.9125-.3894h-5.9636c-.5039 0-.9124.1743-.9124.3894s.4084.3894.9124.3894z"/><path d="m65.5284 17.5767c0-.6742-.5465-1.2207-1.2207-1.2207s-1.2208.5465-1.2208 1.2207c0 .6744.5466 1.2208 1.2208 1.2208s1.2207-.5466 1.2207-1.2208z"/><path d="m75.6433 72.1292h-.5856c.1005-1.2881.5405-2.5143 1.2878-3.5753 1.1159-1.5844 1.6702-3.5062 1.6702-5.4537v-7.2537c0-1.7134-1.1219-3.1657-2.6597-3.6424v-11.4045c0-.5436-.4127-1.0175-.9479-1.0338-.5538-.0168-1.008.4339-1.008.9922v11.3823c-.4171.0995-.8075.2697-1.1584.4975-.5314-1.5155-1.9728-2.6053-3.664-2.6053-.824 0-1.589.2586-2.2182.699-.5798-1.4192-1.973-2.4213-3.5951-2.4213-.6525 0-1.2759.1645-1.8253.4585v-7.0814c0-2.1462-1.7418-3.8922-3.883-3.8922-2.1411 0-3.8831 1.746-3.8831 3.8922v10.114h-.4317c-2.5153 0-4.5545 2.0695-4.5545 4.6224v2.849c0 .5435.4126 1.0174.9479 1.0337.5538.017 1.0081-.4337 1.0081-.9922v-2.8905c0-1.4565 1.1634-2.6374 2.5986-2.6374h.4318v6.5168c0 .5435.4125 1.0175.9478 1.0337.5538.017 1.0081-.4336 1.0081-.9921v-18.6571c0-1.0515.8645-1.9071 1.9271-1.9071s1.9271.8556 1.9271 1.9071v14.644c0 .5436.4127 1.0175.948 1.0338.5538.0168 1.008-.4339 1.008-.9922v-4.1766c-.0097-.9227.7993-1.909 1.8252-1.901 1.0626 0 1.9271.8556 1.9271 1.9084.0002 1.0021.0106 3.1423.0133 4.1725.0019.5471.4393.9893.9779.9893h.0034c.5395 0 .9765-.445.9747-.9926l-.0084-2.4854c.0204-1.0343.8754-1.8699 1.9253-1.8699 1.0626 0 1.9271.8556 1.9271 1.9071v2.4245c0 .5435.4127 1.0174.948 1.0337.5538.0168 1.008-.4338 1.008-.9922-.1729-1.0866.5437-2.352 1.7994-2.3673.9922 0 1.7996.8177 1.7996 1.8229v7.4125c0 1.4975-.4741 2.9497-1.3272 4.1715-.9726 1.3929-1.5312 3.0064-1.6342 4.6986h-16.3577c-.2428-1.8346-1.4787-3.6472-3.0858-4.6837-1.3186-.9771-2.3286-2.3074-2.9235-3.8496-.1951-.5056-.7392-.8033-1.2454-.6274-.5278.1834-.7955.7726-.597 1.2962.7279 1.9179 1.9771 3.5723 3.6124 4.7842 1.0271.6413 1.9765 1.7789 2.2514 3.0801h-.4943c-1.1874 0-2.2023.7544-2.6103 1.8147h-7.151c-2.1075 0-3.8159-1.7339-3.8159-3.8729v-51.627c0-2.1389 1.7084-3.8729 3.8159-3.8729h4.9951c.5355 0 1.0024-.4189 1.0185-.9621.0165-.5621-.4275-1.023-.9776-1.023h-5.0361c-3.1877 0-5.7719 2.6227-5.7719 5.858v51.627c0 3.2353 2.5842 5.8581 5.7719 5.8581h6.9577v1.5714c0 1.5714 1.2552 2.8454 2.8035 2.8454h11.328c.5356 0 1.0025-.4189 1.0185-.9622.0166-.562-.4274-1.023-.9775-1.023h-11.369c-.4681 0-.8475-.3851-.8475-.8602v-2.5258c0-.4751.3794-.8602.8475-.8602h21.3848c.4681 0 .8475.3851.8475.8602v2.5258c0 .4751-.3794.8602-.8475.8602h-5.4111c-.5355 0-1.0024.4189-1.0185.9622-.0165.562.4275 1.023.9776 1.023h5.452c1.5483 0 2.8035-1.274 2.8035-2.8454v-2.5258c.0001-1.5714-1.2551-2.8453-2.8034-2.8453z"/></g><circle cx="58.4138" cy="45.9521" r="44.7839" stroke="#000" stroke-width="2.33655"/><path d="m6.24952 125.924v-12.104h-4.75949v-2.257h12.18597v2.257h-4.75952v12.104zm18.35838-5.416c0 .205-.0205.512-.041.759h-8.5958c.3077 1.6 1.6412 2.626 3.5491 2.626 1.2309 0 2.1951-.39 2.9747-1.19l1.3745 1.579c-.9847 1.17-2.5234 1.785-4.4107 1.785-3.6722 0-6.052-2.359-6.052-5.621s2.4003-5.601 5.6622-5.601c3.2003 0 5.539 2.237 5.539 5.663zm-5.539-3.611c-1.6618 0-2.8721 1.067-3.1183 2.667h6.216c-.2051-1.58-1.4155-2.667-3.0977-2.667zm13.0285 9.17c-3.4671 0-5.9289-2.339-5.9289-5.621s2.4618-5.601 5.9289-5.601c2.1335 0 3.8363.883 4.6774 2.544l-1.9694 1.149c-.6565-1.046-1.6412-1.518-2.7285-1.518-1.8874 0-3.3235 1.313-3.3235 3.426 0 2.134 1.4361 3.426 3.3235 3.426 1.0873 0 2.072-.472 2.7285-1.518l1.9694 1.149c-.8411 1.641-2.5439 2.564-4.6774 2.564zm13.1102-11.222c2.6259 0 4.5749 1.498 4.5749 4.801v6.278h-2.5644v-5.95c0-1.949-.9642-2.892-2.6054-2.892-1.8259 0-3.0568 1.107-3.0568 3.302v5.54h-2.5643v-10.955h2.4412v1.415c.8412-1.005 2.1746-1.539 3.7748-1.539zm12.8517 11.222c-3.3644 0-5.8262-2.339-5.8262-5.621s2.4618-5.601 5.8262-5.601c3.4055 0 5.8468 2.319 5.8468 5.601s-2.4413 5.621-5.8468 5.621zm0-2.195c1.8669 0 3.2619-1.333 3.2619-3.426s-1.395-3.426-3.2619-3.426c-1.8463 0-3.2413 1.333-3.2413 3.426s1.395 3.426 3.2413 3.426zm8.299 2.052v-15.223h2.5644v15.223zm10.8538.143c-3.3645 0-5.8263-2.339-5.8263-5.621s2.4618-5.601 5.8263-5.601c3.4055 0 5.8468 2.319 5.8468 5.601s-2.4413 5.621-5.8468 5.621zm0-2.195c1.8668 0 3.2619-1.333 3.2619-3.426s-1.3951-3.426-3.2619-3.426c-1.8464 0-3.2414 1.333-3.2414 3.426s1.395 3.426 3.2414 3.426zm16.7306-8.903h2.4413v9.293c0 3.98-2.072 5.785-5.9083 5.785-2.0515 0-4.0825-.533-5.3339-1.559l1.1488-1.928c.9642.8 2.5234 1.312 4.0415 1.312 2.4208 0 3.4876-1.107 3.4876-3.323v-.574c-.9027.984-2.1952 1.456-3.6722 1.456-3.1388 0-5.5391-2.133-5.5391-5.313s2.4003-5.273 5.5391-5.273c1.5386 0 2.8926.493 3.7952 1.58zm-3.4055 8.288c1.9285 0 3.3235-1.272 3.3235-3.139 0-1.847-1.395-3.098-3.3235-3.098-1.9489 0-3.3439 1.251-3.3439 3.098 0 1.867 1.395 3.139 3.3439 3.139zm8.7874-9.786 2.7694-2.811h3.016l-3.57 2.811zm.4308 12.453v-10.955h2.5646v10.955zm10.1156-11.079c3.159 0 4.985 1.498 4.985 4.657v6.422h-2.421v-1.334c-.615.944-1.805 1.477-3.447 1.477-2.502 0-4.082-1.374-4.082-3.282 0-1.826 1.231-3.262 4.554-3.262h2.831v-.164c0-1.498-.902-2.38-2.728-2.38-1.231 0-2.503.41-3.324 1.087l-1.005-1.867c1.17-.902 2.872-1.354 4.637-1.354zm-.349 9.355c1.251 0 2.339-.574 2.769-1.702v-1.272h-2.646c-1.744 0-2.216.656-2.216 1.456 0 .923.78 1.518 2.093 1.518z" fill="#000"/></svg>