<svg fill="none" height="129" viewBox="0 0 130 129" width="130" xmlns="http://www.w3.org/2000/svg" xmlns:xlink="http://www.w3.org/1999/xlink"><clipPath id="a"><path d="m.532227 0h129v129h-129z"/></clipPath><g clip-path="url(#a)"><path d="m65.0359 1.89014v14.90786c-13.2364 0-25.2157 5.3925-33.8601 14.0999l-10.5401-10.5403c11.3406-11.40631 27.0459-18.46746 44.4002-18.46746z" fill="#fdb441"/><path d="m65.0391 1.89014v14.90786c13.2364 0 25.2156 5.3925 33.8601 14.0999l10.5398-10.5403c-11.3403-11.40631-27.0456-18.46746-44.3999-18.46746z" fill="#57be92"/><path d="m65.0366 112.203v14.907c-17.2228 0-32.8197-6.955-44.1401-18.21l10.5403-10.5399c8.6238 8.5559 20.4921 13.8429 33.5998 13.8429z" fill="#57be92"/><path d="m65.0364 122.411v4.7c-17.2218 0-32.8203-6.957-44.1399-18.211l.3887-.389c10.777 8.78 24.5299 14.041 39.5101 14.041 1.4263 0 2.84-.048 4.2411-.141z" fill="#22b27f"/><path d="m98.8984 30.8977 10.5406-10.54c11.35 11.28 18.136 27.1496 18.207 44.4027h-14.908c-.07-13.1382-5.188-25.279-13.8396-33.8627z" fill="#fd4755"/><path d="m123.225 64.7603c.121-1.5903.181-3.1959.181-4.8165 0-14.9825-5.263-28.7357-14.041-39.5126l.074-.073c11.349 11.279 18.138 27.1504 18.208 44.4024z" fill="#fb2b3a"/><path d="m31.4388 98.3602-10.5426 10.5408c-11.35065-11.2805-18.39694-26.8876-18.46749-44.1406h14.90789c.0705 13.1379 5.4504 25.0164 14.1022 33.5998z" fill="#fd4755"/><path d="m98.6357 98.3602 10.5433 10.5408c11.35-11.2805 18.396-26.8876 18.467-44.1406h-14.908c-.071 13.1379-5.451 25.0164-14.1023 33.5998z" fill="#8ac9fe"/><path d="m127.647 64.7604c-.071 17.252-7.119 32.8606-18.469 44.1396l-4.4-4.4c10.431-10.2945 17.265-24.2268 18.446-39.7394z" fill="#60b7ff"/><path d="m65.0391 112.203v14.907c17.2228 0 32.8197-6.955 44.1399-18.21l-10.5401-10.5399c-8.6238 8.5559-20.4921 13.8429-33.5998 13.8429z" fill="#fdb441"/><path d="m109.179 108.9c-11.3197 11.254-26.9181 18.211-44.1399 18.211v-4.7c15.4546-1.035 29.3743-7.677 39.7399-17.911z" fill="#fea613"/><path d="m31.1762 30.8977-10.5401-10.54c-11.35057 11.2798-18.13684 27.1494-18.20739 44.4027h14.90789c.0705-13.1382 5.1879-25.279 13.8396-33.8627z" fill="#8ac9fe"/><path d="m129.53 64.5003c-.01-7.4955-1.302-15.0311-3.832-22.0156-2.856-7.8826-7.283-15.1629-12.926-21.3601-2.54-2.7889-5.138-5.2043-8.118-7.5356-.008-.0061-.016-.0118-.024-.0179-4.432-3.4603-9.3147-6.33831-14.4951-8.52599-7.9943-3.37613-16.6949-5.0911576-25.3532-5.0440429-8.4131.0458549-16.7859 1.6880629-24.5571 4.9248729-9.7986 4.08109-18.5652 10.67486-25.2539 18.86976-1.6072 1.9693-3.0927 4.0373-4.4472 6.1882-3.18744 5.0609-5.6946 10.5174-7.37989 16.2596-.85361 2.9083-1.49936 5.877-1.93397 8.8765-.680018 4.6953-.842778 9.3259-.502141 14.0454.904001 12.7285 5.496801 24.7226 13.255901 34.7366.0168.022.0337.044.0508.066 6.7488 8.73 15.7711 15.692 25.9653 19.986 1.3351.562 2.689 1.079 4.0586 1.551.9864.339 2.062-.186 2.4016-1.172.3397-.987-.1849-2.062-1.1718-2.402-8.2463-2.838-15.5798-7.338-21.6828-13.046l7.9006-7.899c8.4046 7.734 19.478 12.608 31.6634 13.067v11.135c-3.229-.099-6.4479-.449-9.593-1.05-1.0247-.197-2.0151.475-2.2109 1.501-.196 1.024.4759 2.014 1.5009 2.21 3.9911.764 8.0924 1.151 12.1926 1.151 1.9395 0 3.9244-.092 5.8548-.265 1.1817-.106 2.4255-.248 3.6271-.424.0143-.002.0287-.004.0428-.006 9.8959-1.456 19.2359-5.178 27.4056-10.907.006-.004.012-.009.019-.013 1.213-.853 2.422-1.767 3.574-2.701 1.572-1.275 3.11-2.648 4.555-4.061 2.113-2.066 4.08-4.282 5.897-6.612.912-1.169 1.786-2.369 2.617-3.597 2.455-3.6306 4.514-7.506 6.172-11.5773 2.401-5.8994 3.967-12.4524 4.5-18.8081.154-1.8347.23-3.6802.227-5.5283zm-62.6014-60.68823c.0126-.15521 5.2798.38321 5.6265.42579.0086.00101.0169.00227.0255.00353 11.1077 1.3696 20.8075 5.52627 29.7314 12.25331.394.2976 4.452 3.8652 4.436 3.8816l-7.8694 7.8694c-2.4212-2.2638-5.0654-4.2885-7.8873-6.0277-5.8425-3.6008-12.5884-6.1153-19.4339-6.8409-.3313-.035-4.6238-.5054-4.6288-.4334 0-.001 0-11.03766 0-11.13163zm43.8604 61.59253c-.065 3.4716-.509 6.9276-1.332 10.2281-.916 3.674-2.282 7.2371-4.082 10.5691-3.328 6.1602-8.0723 11.53-13.7689 15.5992-6.7087 4.793-14.7094 7.713-22.9073 8.366-1.2182.097-2.4404.146-3.6624.146-23.6717 0-43.2074-18.047-45.5722-41.1047-.9441-9.293 1.0713-19.083 5.691-27.2308.0162-.0282.0315-.0567.0477-.0849.0617-.1101.1259-.2187.1887-.3283 7.9371-13.6663 22.7352-22.8763 39.6448-22.8763 14.1758 0 27.7775 6.7636 36.3916 18.0124 3.126 4.0826 5.561 8.6882 7.161 13.5756 1.562 4.7709 2.298 9.9669 2.2 15.1286zm-47.6399-61.59279v11.13619c-12.3161.4633-23.4959 5.4381-31.9324 13.3176l-7.8909-7.8906c10.8621-10.2821 24.8793-16.10993 39.8233-16.56319zm-54.10104 37.23089c.64625-1.5583 1.35624-3.0901 2.12944-4.5895.7834-1.5187 1.676-3.0912 2.5901-4.5237 2.0007-3.1358 4.3056-6.1045 6.8954-8.8727l7.8636 7.8636c-2.4777 2.6714-4.6382 5.6404-6.452 8.8296-3.9599 6.847-6.3279 14.7234-6.6006 23.1207h-11.12028c.2517-7.5824 1.82815-14.9162 4.69434-21.828zm11.86404 65.1693c-.1421.142-4.1871-4.92-4.6842-5.583-1.7521-2.3369-3.3104-4.8319-4.6916-7.4046-2.79134-5.1993-4.81929-10.8036-5.9974-16.5861-.66666-3.2721-1.06223-6.613-1.1819-9.9415-.00051-.0156-.00076-.0315-.00151-.0474 3.70316 0 7.43981.1311 11.13421-.0078.1834 11.3363 5.1549 22.6985 12.7066 31.0569.0494.0547.5905.6402.5895.6412-.0015.0023-7.8734 7.8723-7.8737 7.8723zm85.2759 3.004c-1.874 1.762-4.02 3.402-6.119 4.891-1.5391 1.091-3.1276 2.113-4.7618 3.056-1.4784.853-3.0133 1.655-4.559 2.378-4.0851 1.911-8.3834 3.358-12.7706 4.302-1.4278.308-2.8672.561-4.3134.766-1.5036.212-3.0151.372-4.5303.473-.1124.008-2.2023.126-2.2048.107v-11.132c.1501-.005.2998-.014.45-.021 5.6656-.262 11.2898-1.493 16.5407-3.653 5.2963-2.179 10.1927-5.294 14.431-9.144.0209-.018.2562-.236.2575-.235.005.005 7.8717 7.87 7.8717 7.87.025.025-.094.156-.292.342zm19.541-42.0327c-.164 3.5881-.647 7.1096-1.421 10.5945-.555 2.5029-1.249 4.903-2.115 7.3116-1.35 3.7558-3.078 7.3721-5.138 10.7752-1.758 2.904-3.75 5.6544-5.97 8.2204-.009.011-.017.021-.026.031-.146.169-1.802 2.143-1.897 2.095-.002-.002-7.871-7.8718-7.872-7.8718.164.1633 4.882-6.1042 5.272-6.6993 3.118-4.7495 5.398-10.0352 6.713-15.56.495-2.0836.86-4.2408 1.079-6.3441.023-.2136.315-3.0856.229-3.0856h11.132c.028-.0003.029.2122.014.5331zm-11.13-4.3126c-.399-12.2874-5.289-23.4583-13.078-31.9223l7.89-7.8906c10.185 10.8873 15.933 24.8944 16.323 39.8126z" fill="#000"/><path d="m97.5152 79.8926v-32.0475l-31.5359-16.1717c-.5921-.3036-1.294-.3036-1.8858 0l-31.5359 16.1717v32.0478c0 .7752.4339 1.485 1.1235 1.8387l31.3552 16.079 31.3552-16.079c.6898-.3537 1.1237-1.0637 1.1237-1.839z" fill="#fedba6"/><path d="m97.5157 47.8438v32.0478c0 .775-.4341 1.4868-1.1234 1.8403l-4.4001 2.2567c.3003-.3636.4747-.8279.4747-1.3177v-37.4171z" fill="#fece85"/><path d="m65.036 31.4452v66.3649l-31.3559-16.0782c-.6891-.3535-1.1235-1.0652-1.1235-1.8402v-32.0478l31.5354-16.1717c.2978-.1512.6208-.227.944-.227z" fill="#fdb441"/><path d="m97.5154 47.8439-32.4794 16.6561-32.4794-16.6561 31.5354-16.1717c.5933-.3028 1.295-.3028 1.8883 0z" fill="#ffefd2"/><path d="m99.4044 47.8632v-.0181c0-.0033-.0008-.0068-.0008-.0101-.0073-.8017-.4356-1.3074-1.068-1.6926-3.1567-1.9226-6.6674-3.4189-9.9548-5.1047-3.0924-1.5858-6.1849-3.1716-9.2773-4.7576-.928-.4762-2.0675-.1096-2.5437.8191s-.1096 2.0675.8193 2.5437l15.9938 8.2017-28.3368 14.532-28.3368-14.532 28.2564-14.4899c.0504-.026.1106-.026.1613 0l4.4015 2.257c.9277.4759 2.0675.1093 2.5437-.8191.4762-.9287.1096-2.0675-.8193-2.5437l-4.4013-2.257c-1.1305-.58-2.4802-.5797-3.6105 0 0 0-31.5358 16.1717-31.5404 16.1744-.5951.3067-1.012 1.0023-1.0219 1.6667 0 .004-.0007.0078-.0007.0118v.0217c0 .0091-.0003.0184 0 .0275v31.9986c0 1.4911.8241 2.84 2.1509 3.5203l31.3552 16.079c.0108.0055.0222.009.033.0143.5054.2467 1.1564.2459 1.6606-.0007.0101-.0051.0209-.0084.031-.0136l31.3554-16.0793c1.3268-.6802 2.1507-2.0292 2.1507-3.5202v-31.9969c-.0003-.0109-.0005-.0217-.0005-.0323zm-64.8613 32.1869c-.0592-.0305-.096-.0907-.096-.1575v-28.9556l28.6996 14.7179v29.0633zm60.986 0-28.6034 14.6681v-29.0633l28.6994-14.7179v28.9556c0 .0668-.0368.127-.096.1575z" fill="#000"/></g></svg>