<svg fill="none" height="130" viewBox="0 0 117 130" width="117" xmlns="http://www.w3.org/2000/svg"><circle cx="57.8345" cy="45.4964" r="44.3397" stroke="#000" stroke-width="2.31337"/><g fill="#000"><path d="m20.6145 110.655h2.6405l-6.195 14.218h-2.5999l-6.21535-14.218h2.86395l4.7326 10.968zm13.2803 8.856c0 .203-.0203.507-.0406.751h-8.5106c.3047 1.585 1.6249 2.6 3.5139 2.6 1.2187 0 2.1734-.386 2.9452-1.178l1.3609 1.564c-.975 1.158-2.4984 1.767-4.367 1.767-3.6358 0-5.9919-2.336-5.9919-5.565 0-3.23 2.3764-5.545 5.606-5.545 3.1686 0 5.4841 2.214 5.4841 5.606zm-5.4841-3.575c-1.6453 0-2.8437 1.056-3.0874 2.64h6.1544c-.2031-1.564-1.4015-2.64-3.067-2.64zm14.0773-2.031c2.5999 0 4.5295 1.482 4.5295 4.753v6.215h-2.5389v-5.89c0-1.93-.9547-2.864-2.5796-2.864-1.8078 0-3.0264 1.096-3.0264 3.27v5.484h-2.539v-15.071h2.539v5.484c.8327-.894 2.1124-1.381 3.6154-1.381zm7.3238-1.361 2.742-2.783h2.9858l-3.5342 2.783zm.4265 12.329v-10.846h2.539v10.846zm10.8477.142c-3.4327 0-5.8701-2.315-5.8701-5.565s2.4374-5.545 5.8701-5.545c2.1124 0 3.7982.873 4.631 2.518l-1.9499 1.138c-.65-1.036-1.6249-1.503-2.7014-1.503-1.8687 0-3.2905 1.3-3.2905 3.392 0 2.112 1.4218 3.392 3.2905 3.392 1.0765 0 2.0514-.467 2.7014-1.503l1.9499 1.137c-.8328 1.625-2.5186 2.539-4.631 2.539zm14.7879-10.988h2.539v10.846h-2.4171v-1.381c-.8125.995-2.0921 1.523-3.4936 1.523-2.7827 0-4.6717-1.523-4.6717-4.793v-6.195h2.539v5.849c0 1.971.9343 2.905 2.5389 2.905 1.7671 0 2.9655-1.097 2.9655-3.27zm5.8632 10.846v-15.071h2.539v15.071zm10.7461.142c-3.3311 0-5.7685-2.315-5.7685-5.565s2.4374-5.545 5.7685-5.545c3.3718 0 5.7888 2.295 5.7888 5.545s-2.417 5.565-5.7888 5.565zm0-2.173c1.8484 0 3.2296-1.32 3.2296-3.392s-1.3812-3.392-3.2296-3.392c-1.828 0-3.2092 1.32-3.2092 3.392s1.3812 3.392 3.2092 3.392zm11.5678 2.173c-1.807 0-3.615-.528-4.5901-1.219l.9751-1.929c.954.629 2.417 1.076 3.778 1.076 1.604 0 2.275-.447 2.275-1.198 0-2.072-6.7031-.122-6.7031-4.448 0-2.052 1.8481-3.392 4.7731-3.392 1.442 0 3.087.345 4.062.934l-.975 1.93c-1.035-.61-2.071-.813-3.107-.813-1.544 0-2.275.508-2.275 1.219 0 2.194 6.703.244 6.703 4.489 0 2.031-1.869 3.351-4.916 3.351z"/><path d="m85.3305 41.4434-3.7996-.6323c-.4847-.0801-.9453-.2675-1.3484-.5483-.403-.2809-.7383-.6482-.9813-1.0751l-5.2475-9.1818c-.8702-1.5191-2.1257-2.7818-3.6397-3.6607s-3.2331-1.3429-4.9838-1.3452h-18.4453c-1.7505.0022-3.4695.4661-4.9836 1.3447-1.514.8787-2.7695 2.1412-3.6398 3.6601l-5.3524 9.3661c-.2226.3874-.521.7259-.8772.9955-.3563.2697-.7632.4648-1.1964.5738l-3.6573.9138c-.9106.2279-1.7477.6851-2.4318 1.3279-.684.6429-1.1921 1.4501-1.476 2.3448-.0122.0287-.0133.0629-.0232.0927-.1598.5144-.2431 1.0495-.2472 1.5881v7.5893c.0018 1.4629.5837 2.8654 1.6181 3.8998 1.0344 1.0345 2.4369 1.6164 3.8998 1.6181h4.0667c.6242 1.3204 1.6106 2.4364 2.8444 3.2179 1.2339.7814 2.6643 1.1963 4.1248 1.1963s2.8909-.4149 4.1247-1.1963c1.2339-.7815 2.2203-1.8975 2.8444-3.2179h23.5837c.6241 1.3204 1.6105 2.4364 2.8444 3.2179 1.2338.7814 2.6642 1.1963 4.1247 1.1963s2.8909-.4149 4.1248-1.1963c1.2338-.7815 2.2202-1.8975 2.8444-3.2179h4.0667c1.4629-.0017 2.8654-.5836 3.8998-1.6181 1.0344-1.0344 1.6163-2.4369 1.6181-3.8998v-3.5568c.0059-2.3526-.826-4.6304-2.3467-6.4255-1.5206-1.7951-3.6307-2.9901-5.9523-3.3711zm4.8713 5.6283c.4365.6804.7631 1.4252.9678 2.2072h-.8509c-.8755-.0002-1.7155-.3461-2.3374-.9623-.3495-.3523-.617-.7774-.7835-1.2449zm-64.9836 0h1.886l-.5518 2.2072h-1.3452v-2.0714c0-.0464.0099-.0905.011-.1358zm14.3356 15.4502c-1.0914 0-2.1582-.3236-3.0656-.9299s-1.6147-1.4681-2.0323-2.4764c-.4177-1.0083-.5269-2.1177-.314-3.1881s.7384-2.0536 1.5101-2.8253 1.7549-1.2972 2.8253-1.5101 2.1798-.1036 3.1881.314 1.8701 1.1249 2.4764 2.0323.9299 1.9742.9299 3.0656c-.0017 1.4629-.5836 2.8654-1.6181 3.8998-1.0344 1.0345-2.4369 1.6164-3.8998 1.6181zm37.5219 0c-1.0913 0-2.1582-.3236-3.0656-.9299s-1.6146-1.4681-2.0323-2.4764c-.4176-1.0083-.5269-2.1177-.314-3.1881s.7384-2.0536 1.5101-2.8253 1.7549-1.2972 2.8253-1.5101 2.1799-.1036 3.1881.314c1.0083.4176 1.8701 1.1249 2.4764 2.0323s.9299 1.9742.9299 3.0656c-.0017 1.4629-.5836 2.8654-1.6181 3.8998-1.0344 1.0345-2.4369 1.6164-3.8998 1.6181zm11.0359-4.4143h-3.3991c.1678-1.1002.0959-2.2237-.2108-3.2936-.3067-1.0698-.841-2.0607-1.5662-2.9049s-1.6243-1.5218-2.6357-1.9862c-1.0114-.4645-2.1112-.705-3.2241-.705s-2.2127.2405-3.2241.705c-1.0114.4644-1.9104 1.142-2.6357 1.9862-.7252.8442-1.2594 1.8351-1.5661 2.9049-.3068 1.0699-.3787 2.1934-.2109 3.2936h-22.2483c.1678-1.1002.0959-2.2237-.2109-3.2936-.3067-1.0698-.8409-2.0607-1.5661-2.9049-.7253-.8442-1.6243-1.5218-2.6357-1.9862-1.0114-.4645-2.1112-.705-3.2241-.705s-2.2127.2405-3.2241.705c-1.0114.4644-1.9105 1.142-2.6357 1.9862s-1.2595 1.8351-1.5662 2.9049c-.3067 1.0699-.3786 2.1934-.2108 3.2936h-3.3991c-.878 0-1.7201-.3488-2.341-.9697s-.9697-1.463-.9697-2.3411v-3.3107h2.2071c.2461 0 .485-.0823.679-.2336.1939-.1514.3317-.3632.3915-.6019l1.1036-4.4143c.0408-.1627.0439-.3326.0092-.4967-.0348-.1641-.1065-.3182-.2097-.4504-.1032-.1323-.2352-.2392-.3859-.3128-.1508-.0736-.3163-.1119-.4841-.1119h-2.3296c.4207-.4223.9482-.7225 1.5262-.8685l3.6584-.9148c.7214-.1822 1.3988-.5076 1.9918-.9569.5931-.4494 1.0897-1.0134 1.4602-1.6586l5.3524-9.3662c.6771-1.1813 1.6537-2.1631 2.8314-2.8465 1.1776-.6833 2.5146-1.0441 3.8762-1.0458h18.4453c1.3616.0017 2.6986.3625 3.8763 1.0458 1.1776.6834 2.1543 1.6652 2.8313 2.8465l5.2465 9.1819c.4047.7121.9634 1.3247 1.6353 1.7931.672.4683 1.4401.7806 2.2482.9139l3.7997.6335c1.111.1838 2.1686.6079 3.0988 1.2426h-2.1619c-.2927 0-.5734.1163-.7804.3233-.2069.2069-.3232.4876-.3232.7803-.0007.7249.1415 1.4427.4186 2.1125.277.6698.6834 1.2784 1.196 1.7909.5125.5125 1.1211.919 1.7909 1.196.6698.2771 1.3876.4193 2.1124.4186h1.1036v3.3107c0 .8781-.3488 1.7202-.9697 2.3411s-1.463.9697-2.341.9697z"/><path d="m73.1668 35.4675c-.1507-.251-.395-.4318-.679-.5027-.2841-.0709-.5847-.026-.8356.1247-.251.1508-.4318.395-.5027.6791-.0709.284-.0261.5846.1247.8356l1.6454 2.7424h-13.5012v-8.8287h6.329c.5716.0016 1.1331.1504 1.6304.432.4974.2816.9138.6866 1.2091 1.176l.6997 1.1675c.1508.251.395.4319.6791.5027.284.0709.5846.0261.8356-.1247.251-.1507.4318-.395.5027-.679.0709-.2841.026-.5847-.1247-.8356l-.7008-1.1676c-.4921-.8152-1.186-1.4899-2.0146-1.9591-.8287-.4691-1.7642-.7168-2.7165-.7193h-7.4326c-.2927 0-.5734.1162-.7804.3232-.2069.207-.3232.4877-.3232.7803v11.0359c0 .2927.1163.5734.3232.7804.207.2069.4877.3232.7804.3232h16.5538c.1953 0 .3871-.0519.5558-.1504.1687-.0984.3083-.2398.4045-.4098s.1455-.3625.1429-.5579c-.0025-.1953-.0569-.3864-.1575-.5538z"/><path d="m53.9003 28.3108h-7.4326c-.9523.0025-1.8878.2502-2.7165.7193-.8286.4692-1.5225 1.1439-2.0146 1.9591l-5.3358 8.8927c-.1006.1674-.155.3585-.1575.5538-.0026.1954.0467.3879.1429.5579s.2357.3114.4045.4098c.1687.0985.3605.1504.5558.1504h16.5538c.2927 0 .5734-.1163.7804-.3232.2069-.207.3232-.4877.3232-.7804v-11.0359c0-.2926-.1163-.5733-.3232-.7803-.207-.207-.4877-.3232-.7804-.3232zm-1.1036 11.0358h-13.5012l4.3327-7.2207c.2953-.4894.7117-.8944 1.2091-1.176.4973-.2816 1.0588-.4304 1.6304-.432h6.329z"/><path d="m60.5219 42.6574h-2.2071c-.2927 0-.5734.1163-.7804.3232-.2069.207-.3232.4877-.3232.7804s.1163.5734.3232.7803c.207.207.4877.3233.7804.3233h2.2071c.2927 0 .5734-.1163.7804-.3233.207-.2069.3232-.4876.3232-.7803s-.1162-.5734-.3232-.7804c-.207-.2069-.4877-.3232-.7804-.3232z"/><path d="m39.5537 42.6574h-2.2072c-.2927 0-.5734.1163-.7803.3232-.207.207-.3233.4877-.3233.7804s.1163.5734.3233.7803c.2069.207.4876.3233.7803.3233h2.2072c.2927 0 .5734-.1163.7803-.3233.207-.2069.3233-.4876.3233-.7803s-.1163-.5734-.3233-.7804c-.2069-.2069-.4876-.3232-.7803-.3232z"/><path d="m77.0757 53.6932c-.6549 0-1.295.1942-1.8394.5579-.5445.3638-.9688.8809-1.2194 1.4859-.2506.6049-.3161 1.2706-.1884 1.9128.1278.6423.4431 1.2322.9061 1.6952s1.0529.7783 1.6952.9061c.6422.1277 1.3079.0622 1.9128-.1884.605-.2506 1.1221-.675 1.4858-1.2194.3638-.5445.558-1.1846.558-1.8394 0-.878-.3488-1.7201-.9697-2.341s-1.463-.9697-2.341-.9697zm0 4.4143c-.2183 0-.4317-.0647-.6132-.186-.1815-.1212-.3229-.2936-.4064-.4952-.0836-.2017-.1054-.4236-.0628-.6377.0426-.214.1477-.4107.302-.565.1543-.1544.351-.2595.5651-.302.214-.0426.4359-.0208.6376.0628.2016.0835.374.2249.4953.4064.1212.1815.1859.3949.1859.6131 0 .2927-.1162.5734-.3232.7804s-.4877.3232-.7803.3232z"/><path d="m39.5537 53.6932c-.6548 0-1.2949.1942-1.8394.5579-.5444.3638-.9688.8809-1.2194 1.4859-.2505.6049-.3161 1.2706-.1884 1.9128.1278.6423.4431 1.2322.9061 1.6952s1.053.7783 1.6952.9061c.6422.1277 1.3079.0622 1.9129-.1884.6049-.2506 1.122-.675 1.4858-1.2194.3638-.5445.5579-1.1846.5579-1.8394 0-.878-.3488-1.7201-.9697-2.341-.6208-.6209-1.463-.9697-2.341-.9697zm0 4.4143c-.2183 0-.4317-.0647-.6131-.186-.1815-.1212-.323-.2936-.4065-.4952-.0835-.2017-.1054-.4236-.0628-.6377.0426-.214.1477-.4107.302-.565.1544-.1544.351-.2595.5651-.302.2141-.0426.4359-.0208.6376.0628.2017.0835.374.2249.4953.4064.1212.1815.186.3949.186.6131 0 .2927-.1163.5734-.3233.7804-.2069.207-.4876.3232-.7803.3232z"/></g></svg>